<svg version="1.1" viewBox="0.0 0.0 335.0 256.0" fill="none" stroke="none" stroke-linecap="square" stroke-miterlimit="10" width="335" height="256" xmlns:xlink="http://www.w3.org/1999/xlink" xmlns="http://www.w3.org/2000/svg"><path fill="#ffffff" d="M0 0L335.0 0L335.0 256.0L0 256.0L0 0Z" fill-rule="nonzero"/><path stroke="#333333" stroke-width="1.0" stroke-linecap="butt" d="M74.5 223.5L322.5 223.5" fill-rule="nonzero"/><path stroke="#cccccc" stroke-width="1.0" stroke-linecap="butt" d="M74.5 177.5L322.5 177.5" fill-rule="nonzero"/><path stroke="#cccccc" stroke-width="1.0" stroke-linecap="butt" d="M74.5 132.5L322.5 132.5" fill-rule="nonzero"/><path stroke="#cccccc" stroke-width="1.0" stroke-linecap="butt" d="M74.5 87.5L322.5 87.5" fill-rule="nonzero"/><path stroke="#cccccc" stroke-width="1.0" stroke-linecap="butt" d="M74.5 42.5L322.5 42.5" fill-rule="nonzero"/><clipPath id="id_0"><path d="M74.8 42.333332L322.2 42.333332L322.2 223.2L74.8 223.2L74.8 42.333332Z" clip-rule="nonzero"/></clipPath><path stroke="#000000" stroke-width="2.0" stroke-linecap="butt" stroke-opacity="0.0" clip-path="url(#id_0)" d="M124.0 223.0L102.0 223.0L102.0 95.0C102.0 93.89543 102.89543 93.0 104.0 93.0L122.0 93.0C123.10457 93.0 124.0 93.89543 124.0 95.0Z" fill-rule="nonzero"/><path fill="#4285f4" clip-path="url(#id_0)" d="M124.0 223.0L102.0 223.0L102.0 95.0C102.0 93.89543 102.89543 93.0 104.0 93.0L122.0 93.0C123.10457 93.0 124.0 93.89543 124.0 95.0Z" fill-rule="nonzero"/><path stroke="#000000" stroke-width="2.0" stroke-linecap="butt" stroke-opacity="0.0" clip-path="url(#id_0)" d="M198.0 223.0L176.0 223.0L176.0 82.0C176.0 80.89543 176.89543 80.0 178.0 80.0L196.0 80.0C197.10457 80.0 198.0 80.89543 198.0 82.0Z" fill-rule="nonzero"/><path fill="#4285f4" clip-path="url(#id_0)" d="M198.0 223.0L176.0 223.0L176.0 82.0C176.0 80.89543 176.89543 80.0 178.0 80.0L196.0 80.0C197.10457 80.0 198.0 80.89543 198.0 82.0Z" fill-rule="nonzero"/><path stroke="#000000" stroke-width="2.0" stroke-linecap="butt" stroke-opacity="0.0" clip-path="url(#id_0)" d="M271.0 223.0L249.0 223.0L249.0 91.0C249.0 89.89543 249.89543 89.0 251.0 89.0L269.0 89.0C270.10458 89.0 271.0 89.89543 271.0 91.0Z" fill-rule="nonzero"/><path fill="#4285f4" clip-path="url(#id_0)" d="M271.0 223.0L249.0 223.0L249.0 91.0C249.0 89.89543 249.89543 89.0 251.0 89.0L269.0 89.0C270.10458 89.0 271.0 89.89543 271.0 91.0Z" fill-rule="nonzero"/><path stroke="#000000" stroke-width="2.0" stroke-linecap="butt" stroke-opacity="0.0" clip-path="url(#id_0)" d="M148.0 223.0L126.0 223.0L126.0 81.0C126.0 79.89543 126.89543 79.0 128.0 79.0L146.0 79.0C147.10457 79.0 148.0 79.89543 148.0 81.0Z" fill-rule="nonzero"/><path fill="#ea4335" clip-path="url(#id_0)" d="M148.0 223.0L126.0 223.0L126.0 81.0C126.0 79.89543 126.89543 79.0 128.0 79.0L146.0 79.0C147.10457 79.0 148.0 79.89543 148.0 81.0Z" fill-rule="nonzero"/><path stroke="#000000" stroke-width="2.0" stroke-linecap="butt" stroke-opacity="0.0" clip-path="url(#id_0)" d="M222.0 223.0L200.0 223.0L200.0 77.0C200.0 75.89543 200.89543 75.0 202.0 75.0L220.0 75.0C221.10457 75.0 222.0 75.89543 222.0 77.0Z" fill-rule="nonzero"/><path fill="#ea4335" clip-path="url(#id_0)" d="M222.0 223.0L200.0 223.0L200.0 77.0C200.0 75.89543 200.89543 75.0 202.0 75.0L220.0 75.0C221.10457 75.0 222.0 75.89543 222.0 77.0Z" fill-rule="nonzero"/><path stroke="#000000" stroke-width="2.0" stroke-linecap="butt" stroke-opacity="0.0" clip-path="url(#id_0)" d="M295.0 223.0L273.0 223.0L273.0 82.0C273.0 80.89543 273.89542 80.0 275.0 80.0L293.0 80.0C294.10458 80.0 295.0 80.89543 295.0 82.0Z" fill-rule="nonzero"/><path fill="#ea4335" clip-path="url(#id_0)" d="M295.0 223.0L273.0 223.0L273.0 82.0C273.0 80.89543 273.89542 80.0 275.0 80.0L293.0 80.0C294.10458 80.0 295.0 80.89543 295.0 82.0Z" fill-rule="nonzero"/><path stroke="#ffffff" stroke-width="3.0" stroke-linejoin="round" stroke-linecap="round" d="M107.328125 74.44475Q107.328125 76.21037 106.59375 77.1635Q105.859375 78.101 104.453125 78.101Q103.046875 78.101 102.3125 77.17912Q101.578125 76.25725 101.5625 74.5385L101.5625 72.96037Q101.5625 71.17912 102.296875 70.25725Q103.046875 69.31975 104.4375 69.31975Q105.828125 69.31975 106.5625 70.24162Q107.3125 71.1635 107.328125 72.88225L107.328125 74.44475ZM105.625 72.726Q105.625 71.6635 105.328125 71.17912Q105.046875 70.69475 104.4375 70.69475Q103.84375 70.69475 103.546875 71.1635Q103.265625 71.61662 103.25 72.601L103.25 74.6635Q103.25 75.71037 103.53125 76.226Q103.8125 76.726 104.453125 76.726Q105.0625 76.726 105.34375 76.24162Q105.625 75.75725 105.625 74.75725L105.625 72.726ZM109.09375 80.11662L108.203125 79.64787L108.421875 79.27287Q108.8125 78.55412 108.828125 77.851L108.828125 76.5385L110.25 76.5385L110.25 77.71037Q110.234375 78.351 109.90625 79.00725Q109.59375 79.67912 109.09375 80.11662ZM117.375 70.39787L114.078125 77.976L112.296875 77.976L115.59375 70.81975L111.359375 70.81975L111.359375 69.44475L117.375 69.44475L117.375 70.39787ZM124.421875 77.976L118.578125 77.976L118.578125 76.81975L121.34375 73.86662Q121.90625 73.25725 122.171875 72.7885Q122.453125 72.31975 122.453125 71.9135Q122.453125 71.33537 122.15625 71.02287Q121.875 70.69475 121.34375 70.69475Q120.765625 70.69475 120.4375 71.08537Q120.109375 71.476 120.109375 72.13225L118.40625 72.13225Q118.40625 71.351 118.78125 70.71037Q119.15625 70.05412 119.828125 69.69475Q120.515625 69.31975 121.375 69.31975Q122.6875 69.31975 123.421875 69.96037Q124.15625 70.58537 124.15625 71.74162Q124.15625 72.38225 123.828125 73.0385Q123.5 73.69475 122.703125 74.56975L120.765625 76.61662L124.421875 76.61662L124.421875 77.976Z" fill-rule="nonzero"/><path fill="#000000" d="M107.328125 74.44475Q107.328125 76.21037 106.59375 77.1635Q105.859375 78.101 104.453125 78.101Q103.046875 78.101 102.3125 77.17912Q101.578125 76.25725 101.5625 74.5385L101.5625 72.96037Q101.5625 71.17912 102.296875 70.25725Q103.046875 69.31975 104.4375 69.31975Q105.828125 69.31975 106.5625 70.24162Q107.3125 71.1635 107.328125 72.88225L107.328125 74.44475ZM105.625 72.726Q105.625 71.6635 105.328125 71.17912Q105.046875 70.69475 104.4375 70.69475Q103.84375 70.69475 103.546875 71.1635Q103.265625 71.61662 103.25 72.601L103.25 74.6635Q103.25 75.71037 103.53125 76.226Q103.8125 76.726 104.453125 76.726Q105.0625 76.726 105.34375 76.24162Q105.625 75.75725 105.625 74.75725L105.625 72.726ZM109.09375 80.11662L108.203125 79.64787L108.421875 79.27287Q108.8125 78.55412 108.828125 77.851L108.828125 76.5385L110.25 76.5385L110.25 77.71037Q110.234375 78.351 109.90625 79.00725Q109.59375 79.67912 109.09375 80.11662ZM117.375 70.39787L114.078125 77.976L112.296875 77.976L115.59375 70.81975L111.359375 70.81975L111.359375 69.44475L117.375 69.44475L117.375 70.39787ZM124.421875 77.976L118.578125 77.976L118.578125 76.81975L121.34375 73.86662Q121.90625 73.25725 122.171875 72.7885Q122.453125 72.31975 122.453125 71.9135Q122.453125 71.33537 122.15625 71.02287Q121.875 70.69475 121.34375 70.69475Q120.765625 70.69475 120.4375 71.08537Q120.109375 71.476 120.109375 72.13225L118.40625 72.13225Q118.40625 71.351 118.78125 70.71037Q119.15625 70.05412 119.828125 69.69475Q120.515625 69.31975 121.375 69.31975Q122.6875 69.31975 123.421875 69.96037Q124.15625 70.58537 124.15625 71.74162Q124.15625 72.38225 123.828125 73.0385Q123.5 73.69475 122.703125 74.56975L120.765625 76.61662L124.421875 76.61662L124.421875 77.976Z" fill-rule="nonzero"/><path stroke="#ffffff" stroke-width="3.0" stroke-linejoin="round" stroke-linecap="round" d="M181.32812 61.784084Q181.32812 63.54971 180.59375 64.50283Q179.85938 65.44033 178.45312 65.44033Q177.04688 65.44033 176.3125 64.518456Q175.57812 63.596584 175.5625 61.877834L175.5625 60.29971Q175.5625 58.51846 176.29688 57.596584Q177.04688 56.659084 178.4375 56.659084Q179.82812 56.659084 180.5625 57.58096Q181.3125 58.502834 181.32812 60.221584L181.32812 61.784084ZM179.625 60.065334Q179.625 59.002834 179.32812 58.51846Q179.04688 58.034084 178.4375 58.034084Q177.84375 58.034084 177.54688 58.502834Q177.26562 58.95596 177.25 59.940334L177.25 62.002834Q177.25 63.04971 177.53125 63.565334Q177.8125 64.06533 178.45312 64.06533Q179.0625 64.06533 179.34375 63.58096Q179.625 63.096584 179.625 62.096584L179.625 60.065334ZM183.09375 67.455956L182.20312 66.987206L182.42188 66.612206Q182.8125 65.893456 182.82812 65.19033L182.82812 63.877834L184.25 63.877834L184.25 65.049706Q184.23438 65.69033 183.90625 66.34658Q183.59375 67.018456 183.09375 67.455956ZM191.375 57.73721L188.07812 65.31533L186.29688 65.31533L189.59375 58.159084L185.35938 58.159084L185.35938 56.784084L191.375 56.784084L191.375 57.73721ZM196.54688 61.909084Q195.875 62.54971 195.0 62.54971Q193.85938 62.54971 193.17188 61.784084Q192.5 61.002834 192.5 59.690334Q192.5 58.846584 192.85938 58.14346Q193.23438 57.440334 193.89062 57.04971Q194.54688 56.659084 195.375 56.659084Q196.21875 56.659084 196.875 57.08096Q197.53125 57.502834 197.89062 58.29971Q198.25 59.096584 198.26562 60.11221L198.26562 60.73721Q198.26562 62.877834 197.20312 64.09658Q196.14062 65.31533 194.1875 65.393456L193.78125 65.393456L193.78125 63.98721L194.15625 63.971584Q196.35938 63.877834 196.54688 61.909084ZM195.40625 61.252834Q195.82812 61.252834 196.10938 61.04971Q196.40625 60.83096 196.5625 60.534084L196.5625 59.846584Q196.5625 58.98721 196.23438 58.51846Q195.90625 58.034084 195.35938 58.034084Q194.84375 58.034084 194.51562 58.502834Q194.1875 58.95596 194.1875 59.659084Q194.1875 60.36221 194.5 60.815334Q194.82812 61.252834 195.40625 61.252834Z" fill-rule="nonzero"/><path fill="#000000" d="M181.32812 61.78408Q181.32812 63.549706 180.59375 64.50283Q179.85938 65.44033 178.45312 65.44033Q177.04688 65.44033 176.3125 64.518456Q175.57812 63.59658 175.5625 61.87783L175.5625 60.299706Q175.5625 58.518456 176.29688 57.59658Q177.04688 56.65908 178.4375 56.65908Q179.82812 56.65908 180.5625 57.580956Q181.3125 58.50283 181.32812 60.22158L181.32812 61.78408ZM179.625 60.06533Q179.625 59.00283 179.32812 58.518456Q179.04688 58.03408 178.4375 58.03408Q177.84375 58.03408 177.54688 58.50283Q177.26562 58.955956 177.25 59.94033L177.25 62.00283Q177.25 63.049706 177.53125 63.56533Q177.8125 64.06533 178.45312 64.06533Q179.0625 64.06533 179.34375 63.580956Q179.625 63.09658 179.625 62.09658L179.625 60.06533ZM183.09375 67.455956L182.20312 66.987206L182.42188 66.612206Q182.8125 65.893456 182.82812 65.19033L182.82812 63.87783L184.25 63.87783L184.25 65.049706Q184.23438 65.69033 183.90625 66.34658Q183.59375 67.018456 183.09375 67.455956ZM191.375 57.737206L188.07812 65.31533L186.29688 65.31533L189.59375 58.15908L185.35938 58.15908L185.35938 56.78408L191.375 56.78408L191.375 57.737206ZM196.54688 61.90908Q195.875 62.549706 195.0 62.549706Q193.85938 62.549706 193.17188 61.78408Q192.5 61.00283 192.5 59.69033Q192.5 58.84658 192.85938 58.143456Q193.23438 57.44033 193.89062 57.049706Q194.54688 56.65908 195.375 56.65908Q196.21875 56.65908 196.875 57.080956Q197.53125 57.50283 197.89062 58.299706Q198.25 59.09658 198.26562 60.112206L198.26562 60.737206Q198.26562 62.87783 197.20312 64.09658Q196.14062 65.31533 194.1875 65.393456L193.78125 65.393456L193.78125 63.987206L194.15625 63.97158Q196.35938 63.87783 196.54688 61.90908ZM195.40625 61.25283Q195.82812 61.25283 196.10938 61.049706Q196.40625 60.830956 196.5625 60.53408L196.5625 59.84658Q196.5625 58.987206 196.23438 58.518456Q195.90625 58.03408 195.35938 58.03408Q194.84375 58.03408 194.51562 58.50283Q194.1875 58.955956 194.1875 59.65908Q194.1875 60.362206 194.5 60.81533Q194.82812 61.25283 195.40625 61.25283Z" fill-rule="nonzero"/><path stroke="#ffffff" stroke-width="3.0" stroke-linejoin="round" stroke-linecap="round" d="M254.32812 70.827415Q254.32812 72.59304 253.59375 73.546165Q252.85938 74.483665 251.45312 74.483665Q250.04688 74.483665 249.3125 73.56179Q248.57812 72.639915 248.5625 70.921165L248.5625 69.34304Q248.5625 67.56179 249.29688 66.639915Q250.04688 65.702415 251.4375 65.702415Q252.82812 65.702415 253.5625 66.62429Q254.3125 67.546165 254.32812 69.264915L254.32812 70.827415ZM252.625 69.108665Q252.625 68.046165 252.32812 67.56179Q252.04688 67.077415 251.4375 67.077415Q250.84375 67.077415 250.54688 67.546165Q250.26562 67.99929 250.25 68.983665L250.25 71.046165Q250.25 72.09304 250.53125 72.608665Q250.8125 73.108665 251.45312 73.108665Q252.0625 73.108665 252.34375 72.62429Q252.625 72.139915 252.625 71.139915L252.625 69.108665ZM256.09375 76.49929L255.20312 76.03054L255.42188 75.65554Q255.8125 74.93679 255.82812 74.233665L255.82812 72.921165L257.25 72.921165L257.25 74.09304Q257.23438 74.733665 256.90625 75.389915Q256.59375 76.06179 256.09375 76.49929ZM264.375 66.78054L261.07812 74.358665L259.29688 74.358665L262.59375 67.202415L258.35938 67.202415L258.35938 65.827415L264.375 65.827415L264.375 66.78054ZM270.59375 71.139915L271.5625 71.139915L271.5625 72.514915L270.59375 72.514915L270.59375 74.358665L268.89062 74.358665L268.89062 72.514915L265.40625 72.514915L265.32812 71.452415L268.875 65.827415L270.59375 65.827415L270.59375 71.139915ZM267.01562 71.139915L268.89062 71.139915L268.89062 68.139915L268.78125 68.327415L267.01562 71.139915Z" fill-rule="nonzero"/><path fill="#000000" d="M254.32812 70.827415Q254.32812 72.59304 253.59375 73.546165Q252.85938 74.483665 251.45312 74.483665Q250.04688 74.483665 249.3125 73.56179Q248.57812 72.639915 248.5625 70.921165L248.5625 69.34304Q248.5625 67.56179 249.29688 66.639915Q250.04688 65.702415 251.4375 65.702415Q252.82812 65.702415 253.5625 66.62429Q254.3125 67.546165 254.32812 69.264915L254.32812 70.827415ZM252.625 69.108665Q252.625 68.046165 252.32812 67.56179Q252.04688 67.077415 251.4375 67.077415Q250.84375 67.077415 250.54688 67.546165Q250.26562 67.99929 250.25 68.983665L250.25 71.046165Q250.25 72.09304 250.53125 72.608665Q250.8125 73.108665 251.45312 73.108665Q252.0625 73.108665 252.34375 72.62429Q252.625 72.139915 252.625 71.139915L252.625 69.108665ZM256.09375 76.49929L255.20312 76.03054L255.42188 75.65554Q255.8125 74.93679 255.82812 74.233665L255.82812 72.921165L257.25 72.921165L257.25 74.09304Q257.23438 74.733665 256.90625 75.389915Q256.59375 76.06179 256.09375 76.49929ZM264.375 66.78054L261.07812 74.358665L259.29688 74.358665L262.59375 67.202415L258.35938 67.202415L258.35938 65.827415L264.375 65.827415L264.375 66.78054ZM270.59375 71.139915L271.5625 71.139915L271.5625 72.514915L270.59375 72.514915L270.59375 74.358665L268.89062 74.358665L268.89062 72.514915L265.40625 72.514915L265.32812 71.452415L268.875 65.827415L270.59375 65.827415L270.59375 71.139915ZM267.01562 71.139915L268.89062 71.139915L268.89062 68.139915L268.78125 68.327415L267.01562 71.139915Z" fill-rule="nonzero"/><path stroke="#ffffff" stroke-width="3.0" stroke-linejoin="round" stroke-linecap="round" d="M134.82812 59.975418Q134.82812 61.741043 134.09375 62.694168Q133.35938 63.631668 131.95312 63.631668Q130.54688 63.631668 129.8125 62.709793Q129.07812 61.787918 129.0625 60.069168L129.0625 58.491043Q129.0625 56.709793 129.79688 55.787918Q130.54688 54.850418 131.9375 54.850418Q133.32812 54.850418 134.0625 55.772293Q134.8125 56.694168 134.82812 58.412918L134.82812 59.975418ZM133.125 58.256668Q133.125 57.194168 132.82812 56.709793Q132.54688 56.225418 131.9375 56.225418Q131.34375 56.225418 131.04688 56.694168Q130.76562 57.147293 130.75 58.131668L130.75 60.194168Q130.75 61.241043 131.03125 61.756668Q131.3125 62.256668 131.95312 62.256668Q132.5625 62.256668 132.84375 61.772293Q133.125 61.287918 133.125 60.287918L133.125 58.256668ZM136.59375 65.64729L135.70312 65.17854L135.92188 64.80354Q136.3125 64.08479 136.32812 63.381668L136.32812 62.069168L137.75 62.069168L137.75 63.241043Q137.73438 63.881668 137.40625 64.53792Q137.09375 65.20979 136.59375 65.64729ZM144.64062 57.241043Q144.64062 57.866043 144.32812 58.350418Q144.01562 58.819168 143.46875 59.116043Q144.09375 59.412918 144.45312 59.944168Q144.82812 60.459793 144.82812 61.162918Q144.82812 62.303543 144.04688 62.975418Q143.28125 63.631668 141.9375 63.631668Q140.60938 63.631668 139.82812 62.975418Q139.0625 62.303543 139.0625 61.162918Q139.0625 60.459793 139.42188 59.928543Q139.78125 59.397293 140.40625 59.116043Q139.85938 58.819168 139.54688 58.350418Q139.23438 57.866043 139.23438 57.241043Q139.23438 56.147293 139.95312 55.506668Q140.6875 54.850418 141.9375 54.850418Q143.1875 54.850418 143.90625 55.506668Q144.64062 56.147293 144.64062 57.241043ZM143.125 61.037918Q143.125 60.491043 142.79688 60.162918Q142.48438 59.819168 141.9375 59.819168Q141.39062 59.819168 141.0625 60.147293Q140.75 60.475418 140.75 61.037918Q140.75 61.584793 141.0625 61.928543Q141.39062 62.256668 141.95312 62.256668Q142.5 62.256668 142.8125 61.944168Q143.125 61.616043 143.125 61.037918ZM142.95312 57.319168Q142.95312 56.819168 142.6875 56.522293Q142.42188 56.225418 141.9375 56.225418Q141.46875 56.225418 141.20312 56.522293Q140.9375 56.803543 140.9375 57.319168Q140.9375 57.834793 141.20312 58.147293Q141.46875 58.459793 141.9375 58.459793Q142.42188 58.459793 142.6875 58.147293Q142.95312 57.834793 142.95312 57.319168Z" fill-rule="nonzero"/><path fill="#000000" d="M134.82812 59.975418Q134.82812 61.741043 134.09375 62.694168Q133.35938 63.631668 131.95312 63.631668Q130.54688 63.631668 129.8125 62.709793Q129.07812 61.787918 129.0625 60.069168L129.0625 58.491043Q129.0625 56.709793 129.79688 55.787918Q130.54688 54.850418 131.9375 54.850418Q133.32812 54.850418 134.0625 55.772293Q134.8125 56.694168 134.82812 58.412918L134.82812 59.975418ZM133.125 58.256668Q133.125 57.194168 132.82812 56.709793Q132.54688 56.225418 131.9375 56.225418Q131.34375 56.225418 131.04688 56.694168Q130.76562 57.147293 130.75 58.131668L130.75 60.194168Q130.75 61.241043 131.03125 61.756668Q131.3125 62.256668 131.95312 62.256668Q132.5625 62.256668 132.84375 61.772293Q133.125 61.287918 133.125 60.287918L133.125 58.256668ZM136.59375 65.64729L135.70312 65.17854L135.92188 64.80354Q136.3125 64.08479 136.32812 63.381668L136.32812 62.069168L137.75 62.069168L137.75 63.241043Q137.73438 63.881668 137.40625 64.53792Q137.09375 65.20979 136.59375 65.64729ZM144.64062 57.241043Q144.64062 57.866043 144.32812 58.350418Q144.01562 58.819168 143.46875 59.116043Q144.09375 59.412918 144.45312 59.944168Q144.82812 60.459793 144.82812 61.162918Q144.82812 62.303543 144.04688 62.975418Q143.28125 63.631668 141.9375 63.631668Q140.60938 63.631668 139.82812 62.975418Q139.0625 62.303543 139.0625 61.162918Q139.0625 60.459793 139.42188 59.928543Q139.78125 59.397293 140.40625 59.116043Q139.85938 58.819168 139.54688 58.350418Q139.23438 57.866043 139.23438 57.241043Q139.23438 56.147293 139.95312 55.506668Q140.6875 54.850418 141.9375 54.850418Q143.1875 54.850418 143.90625 55.506668Q144.64062 56.147293 144.64062 57.241043ZM143.125 61.037918Q143.125 60.491043 142.79688 60.162918Q142.48438 59.819168 141.9375 59.819168Q141.39062 59.819168 141.0625 60.147293Q140.75 60.475418 140.75 61.037918Q140.75 61.584793 141.0625 61.928543Q141.39062 62.256668 141.95312 62.256668Q142.5 62.256668 142.8125 61.944168Q143.125 61.616043 143.125 61.037918ZM142.95312 57.319168Q142.95312 56.819168 142.6875 56.522293Q142.42188 56.225418 141.9375 56.225418Q141.46875 56.225418 141.20312 56.522293Q140.9375 56.803543 140.9375 57.319168Q140.9375 57.834793 141.20312 58.147293Q141.46875 58.459793 141.9375 58.459793Q142.42188 58.459793 142.6875 58.147293Q142.95312 57.834793 142.95312 57.319168Z" fill-rule="nonzero"/><path stroke="#ffffff" stroke-width="3.0" stroke-linejoin="round" stroke-linecap="round" d="M205.32812 56.35808Q205.32812 58.123707 204.59375 59.07683Q203.85938 60.01433 202.45312 60.01433Q201.04688 60.01433 200.3125 59.092457Q199.57812 58.17058 199.5625 56.45183L199.5625 54.873707Q199.5625 53.092457 200.29688 52.17058Q201.04688 51.23308 202.4375 51.23308Q203.82812 51.23308 204.5625 52.154957Q205.3125 53.07683 205.32812 54.79558L205.32812 56.35808ZM203.625 54.63933Q203.625 53.57683 203.32812 53.092457Q203.04688 52.60808 202.4375 52.60808Q201.84375 52.60808 201.54688 53.07683Q201.26562 53.529957 201.25 54.51433L201.25 56.57683Q201.25 57.623707 201.53125 58.13933Q201.8125 58.63933 202.45312 58.63933Q203.0625 58.63933 203.34375 58.154957Q203.625 57.67058 203.625 56.67058L203.625 54.63933ZM207.09375 62.029957L206.20312 61.561207L206.42188 61.186207Q206.8125 60.467457 206.82812 59.76433L206.82812 58.45183L208.25 58.45183L208.25 59.623707Q208.23438 60.26433 207.90625 60.92058Q207.59375 61.592457 207.09375 62.029957ZM215.14062 53.623707Q215.14062 54.248707 214.82812 54.73308Q214.51562 55.20183 213.96875 55.498707Q214.59375 55.79558 214.95312 56.32683Q215.32812 56.842457 215.32812 57.54558Q215.32812 58.686207 214.54688 59.35808Q213.78125 60.01433 212.4375 60.01433Q211.10938 60.01433 210.32812 59.35808Q209.5625 58.686207 209.5625 57.54558Q209.5625 56.842457 209.92188 56.311207Q210.28125 55.779957 210.90625 55.498707Q210.35938 55.20183 210.04688 54.73308Q209.73438 54.248707 209.73438 53.623707Q209.73438 52.529957 210.45312 51.88933Q211.1875 51.23308 212.4375 51.23308Q213.6875 51.23308 214.40625 51.88933Q215.14062 52.529957 215.14062 53.623707ZM213.625 57.42058Q213.625 56.873707 213.29688 56.54558Q212.98438 56.20183 212.4375 56.20183Q211.89062 56.20183 211.5625 56.529957Q211.25 56.85808 211.25 57.42058Q211.25 57.967457 211.5625 58.311207Q211.89062 58.63933 212.45312 58.63933Q213.0 58.63933 213.3125 58.32683Q213.625 57.998707 213.625 57.42058ZM213.45312 53.70183Q213.45312 53.20183 213.1875 52.904957Q212.92188 52.60808 212.4375 52.60808Q211.96875 52.60808 211.70312 52.904957Q211.4375 53.186207 211.4375 53.70183Q211.4375 54.217457 211.70312 54.529957Q211.96875 54.842457 212.4375 54.842457Q212.92188 54.842457 213.1875 54.529957Q213.45312 54.217457 213.45312 53.70183ZM222.42188 59.88933L216.57812 59.88933L216.57812 58.73308L219.34375 55.779957Q219.90625 55.17058 220.17188 54.70183Q220.45312 54.23308 220.45312 53.82683Q220.45312 53.248707 220.15625 52.936207Q219.875 52.60808 219.34375 52.60808Q218.76562 52.60808 218.4375 52.998707Q218.10938 53.38933 218.10938 54.04558L216.40625 54.04558Q216.40625 53.26433 216.78125 52.623707Q217.15625 51.967457 217.82812 51.60808Q218.51562 51.23308 219.375 51.23308Q220.6875 51.23308 221.42188 51.873707Q222.15625 52.498707 222.15625 53.654957Q222.15625 54.29558 221.82812 54.95183Q221.5 55.60808 220.70312 56.48308L218.76562 58.529957L222.42188 58.529957L222.42188 59.88933Z" fill-rule="nonzero"/><path fill="#000000" d="M205.32812 56.35808Q205.32812 58.123707 204.59375 59.07683Q203.85938 60.01433 202.45312 60.01433Q201.04688 60.01433 200.3125 59.092457Q199.57812 58.17058 199.5625 56.45183L199.5625 54.873707Q199.5625 53.092457 200.29688 52.17058Q201.04688 51.23308 202.4375 51.23308Q203.82812 51.23308 204.5625 52.154957Q205.3125 53.07683 205.32812 54.79558L205.32812 56.35808ZM203.625 54.63933Q203.625 53.57683 203.32812 53.092457Q203.04688 52.60808 202.4375 52.60808Q201.84375 52.60808 201.54688 53.07683Q201.26562 53.529957 201.25 54.51433L201.25 56.57683Q201.25 57.623707 201.53125 58.13933Q201.8125 58.63933 202.45312 58.63933Q203.0625 58.63933 203.34375 58.154957Q203.625 57.67058 203.625 56.67058L203.625 54.63933ZM207.09375 62.029957L206.20312 61.561207L206.42188 61.186207Q206.8125 60.467457 206.82812 59.76433L206.82812 58.45183L208.25 58.45183L208.25 59.623707Q208.23438 60.26433 207.90625 60.92058Q207.59375 61.592457 207.09375 62.029957ZM215.14062 53.623707Q215.14062 54.248707 214.82812 54.73308Q214.51562 55.20183 213.96875 55.498707Q214.59375 55.79558 214.95312 56.32683Q215.32812 56.842457 215.32812 57.54558Q215.32812 58.686207 214.54688 59.35808Q213.78125 60.01433 212.4375 60.01433Q211.10938 60.01433 210.32812 59.35808Q209.5625 58.686207 209.5625 57.54558Q209.5625 56.842457 209.92188 56.311207Q210.28125 55.779957 210.90625 55.498707Q210.35938 55.20183 210.04688 54.73308Q209.73438 54.248707 209.73438 53.623707Q209.73438 52.529957 210.45312 51.88933Q211.1875 51.23308 212.4375 51.23308Q213.6875 51.23308 214.40625 51.88933Q215.14062 52.529957 215.14062 53.623707ZM213.625 57.42058Q213.625 56.873707 213.29688 56.54558Q212.98438 56.20183 212.4375 56.20183Q211.89062 56.20183 211.5625 56.529957Q211.25 56.85808 211.25 57.42058Q211.25 57.967457 211.5625 58.311207Q211.89062 58.63933 212.45312 58.63933Q213.0 58.63933 213.3125 58.32683Q213.625 57.998707 213.625 57.42058ZM213.45312 53.70183Q213.45312 53.20183 213.1875 52.904957Q212.92188 52.60808 212.4375 52.60808Q211.96875 52.60808 211.70312 52.904957Q211.4375 53.186207 211.4375 53.70183Q211.4375 54.217457 211.70312 54.529957Q211.96875 54.842457 212.4375 54.842457Q212.92188 54.842457 213.1875 54.529957Q213.45312 54.217457 213.45312 53.70183ZM222.42188 59.88933L216.57812 59.88933L216.57812 58.73308L219.34375 55.779957Q219.90625 55.17058 220.17188 54.70183Q220.45312 54.23308 220.45312 53.82683Q220.45312 53.248707 220.15625 52.936207Q219.875 52.60808 219.34375 52.60808Q218.76562 52.60808 218.4375 52.998707Q218.10938 53.38933 218.10938 54.04558L216.40625 54.04558Q216.40625 53.26433 216.78125 52.623707Q217.15625 51.967457 217.82812 51.60808Q218.51562 51.23308 219.375 51.23308Q220.6875 51.23308 221.42188 51.873707Q222.15625 52.498707 222.15625 53.654957Q222.15625 54.29558 221.82812 54.95183Q221.5 55.60808 220.70312 56.48308L218.76562 58.529957L222.42188 58.529957L222.42188 59.88933Z" fill-rule="nonzero"/><path stroke="#ffffff" stroke-width="3.0" stroke-linejoin="round" stroke-linecap="round" d="M278.32812 61.784084Q278.32812 63.54971 277.59375 64.50283Q276.85938 65.44033 275.45312 65.44033Q274.04688 65.44033 273.3125 64.518456Q272.57812 63.596584 272.5625 61.877834L272.5625 60.29971Q272.5625 58.51846 273.29688 57.596584Q274.04688 56.659084 275.4375 56.659084Q276.82812 56.659084 277.5625 57.58096Q278.3125 58.502834 278.32812 60.221584L278.32812 61.784084ZM276.625 60.065334Q276.625 59.002834 276.32812 58.51846Q276.04688 58.034084 275.4375 58.034084Q274.84375 58.034084 274.54688 58.502834Q274.26562 58.95596 274.25 59.940334L274.25 62.002834Q274.25 63.04971 274.53125 63.565334Q274.8125 64.06533 275.45312 64.06533Q276.0625 64.06533 276.34375 63.58096Q276.625 63.096584 276.625 62.096584L276.625 60.065334ZM280.09375 67.455956L279.20312 66.987206L279.42188 66.612206Q279.8125 65.893456 279.82812 65.19033L279.82812 63.877834L281.25 63.877834L281.25 65.049706Q281.23438 65.69033 280.90625 66.34658Q280.59375 67.018456 280.09375 67.455956ZM288.375 57.73721L285.07812 65.31533L283.29688 65.31533L286.59375 58.159084L282.35938 58.159084L282.35938 56.784084L288.375 56.784084L288.375 57.73721ZM293.54688 61.909084Q292.875 62.54971 292.0 62.54971Q290.85938 62.54971 290.17188 61.784084Q289.5 61.002834 289.5 59.690334Q289.5 58.846584 289.85938 58.14346Q290.23438 57.440334 290.89062 57.04971Q291.54688 56.659084 292.375 56.659084Q293.21875 56.659084 293.875 57.08096Q294.53125 57.502834 294.89062 58.29971Q295.25 59.096584 295.26562 60.11221L295.26562 60.73721Q295.26562 62.877834 294.20312 64.09658Q293.14062 65.31533 291.1875 65.393456L290.78125 65.393456L290.78125 63.98721L291.15625 63.971584Q293.35938 63.877834 293.54688 61.909084ZM292.40625 61.252834Q292.82812 61.252834 293.10938 61.04971Q293.40625 60.83096 293.5625 60.534084L293.5625 59.846584Q293.5625 58.98721 293.23438 58.51846Q292.90625 58.034084 292.35938 58.034084Q291.84375 58.034084 291.51562 58.502834Q291.1875 58.95596 291.1875 59.659084Q291.1875 60.36221 291.5 60.815334Q291.82812 61.252834 292.40625 61.252834Z" fill-rule="nonzero"/><path fill="#000000" d="M278.32812 61.78408Q278.32812 63.549706 277.59375 64.50283Q276.85938 65.44033 275.45312 65.44033Q274.04688 65.44033 273.3125 64.518456Q272.57812 63.59658 272.5625 61.87783L272.5625 60.299706Q272.5625 58.518456 273.29688 57.59658Q274.04688 56.65908 275.4375 56.65908Q276.82812 56.65908 277.5625 57.580956Q278.3125 58.50283 278.32812 60.22158L278.32812 61.78408ZM276.625 60.06533Q276.625 59.00283 276.32812 58.518456Q276.04688 58.03408 275.4375 58.03408Q274.84375 58.03408 274.54688 58.50283Q274.26562 58.955956 274.25 59.94033L274.25 62.00283Q274.25 63.049706 274.53125 63.56533Q274.8125 64.06533 275.45312 64.06533Q276.0625 64.06533 276.34375 63.580956Q276.625 63.09658 276.625 62.09658L276.625 60.06533ZM280.09375 67.455956L279.20312 66.987206L279.42188 66.612206Q279.8125 65.893456 279.82812 65.19033L279.82812 63.87783L281.25 63.87783L281.25 65.049706Q281.23438 65.69033 280.90625 66.34658Q280.59375 67.018456 280.09375 67.455956ZM288.375 57.737206L285.07812 65.31533L283.29688 65.31533L286.59375 58.15908L282.35938 58.15908L282.35938 56.78408L288.375 56.78408L288.375 57.737206ZM293.54688 61.90908Q292.875 62.549706 292.0 62.549706Q290.85938 62.549706 290.17188 61.78408Q289.5 61.00283 289.5 59.69033Q289.5 58.84658 289.85938 58.143456Q290.23438 57.44033 290.89062 57.049706Q291.54688 56.65908 292.375 56.65908Q293.21875 56.65908 293.875 57.080956Q294.53125 57.50283 294.89062 58.299706Q295.25 59.09658 295.26562 60.112206L295.26562 60.737206Q295.26562 62.87783 294.20312 64.09658Q293.14062 65.31533 291.1875 65.393456L290.78125 65.393456L290.78125 63.987206L291.15625 63.97158Q293.35938 63.87783 293.54688 61.90908ZM292.40625 61.25283Q292.82812 61.25283 293.10938 61.049706Q293.40625 60.830956 293.5625 60.53408L293.5625 59.84658Q293.5625 58.987206 293.23438 58.518456Q292.90625 58.03408 292.35938 58.03408Q291.84375 58.03408 291.51562 58.50283Q291.1875 58.955956 291.1875 59.65908Q291.1875 60.362206 291.5 60.81533Q291.82812 61.25283 292.40625 61.25283Z" fill-rule="nonzero"/><path fill="#000000" d="M17.331247 143.25104Q16.174997 143.25104 15.628122 142.75104Q15.065622 142.23541 15.065622 141.36041Q15.065622 140.46979 15.628122 139.96979Q16.174997 139.45416 17.331247 139.45416Q18.487497 139.45416 19.049997 139.96979Q19.596872 140.46979 19.596872 141.32916Q19.596872 142.23541 19.049997 142.75104Q18.487497 143.25104 17.331247 143.25104ZM17.315622 141.95416Q18.159372 141.95416 18.440622 141.76666Q18.659372 141.62604 18.659372 141.36041Q18.659372 141.09479 18.440622 140.95416Q18.159372 140.76666 17.315622 140.76666Q16.487497 140.76666 16.206247 140.95416Q15.987497 141.09479 15.987497 141.36041Q15.987497 141.62604 16.190622 141.76666Q16.487497 141.95416 17.315622 141.95416ZM24.128122 140.11041L24.128122 141.32916L15.065622 136.75104L15.065622 135.56354L24.128122 140.11041ZM21.878122 137.45416Q20.721872 137.45416 20.159372 136.95416Q19.596872 136.43854 19.596872 135.56354Q19.596872 134.67291 20.159372 134.17291Q20.721872 133.65729 21.878122 133.65729Q23.034372 133.65729 23.596872 134.17291Q24.143747 134.67291 24.143747 135.53229Q24.143747 136.43854 23.596872 136.95416Q23.034372 137.45416 21.878122 137.45416ZM21.862497 136.17291Q22.706247 136.17291 22.987497 135.96979Q23.206247 135.82916 23.206247 135.56354Q23.206247 135.29791 22.987497 135.15729Q22.706247 134.96979 21.862497 134.96979Q21.034372 134.96979 20.737497 135.15729Q20.534372 135.29791 20.534372 135.56354Q20.534372 135.82916 20.737497 135.96979Q21.034372 136.17291 21.862497 136.17291Z" fill-rule="nonzero"/><path fill="#000000" d="M45.3 222.96562Q45.3 221.43437 45.6125 220.5125Q45.925 219.575 46.534374 219.075Q47.159374 218.575 48.096874 218.575Q48.784374 218.575 49.3 218.85625Q49.83125 219.1375 50.175 219.66875Q50.51875 220.18437 50.70625 220.93437Q50.89375 221.68437 50.89375 222.96562Q50.89375 224.48125 50.58125 225.40312Q50.284374 226.325 49.659374 226.84062Q49.05 227.34062 48.096874 227.34062Q46.8625 227.34062 46.14375 226.45Q45.3 225.3875 45.3 222.96562ZM46.378124 222.96562Q46.378124 225.075 46.878124 225.77812Q47.378124 226.48125 48.096874 226.48125Q48.83125 226.48125 49.315624 225.77812Q49.815624 225.075 49.815624 222.96562Q49.815624 220.84062 49.315624 220.15312Q48.83125 219.45 48.08125 219.45Q47.3625 219.45 46.925 220.05937Q46.378124 220.84062 46.378124 222.96562ZM52.8625 227.2L52.8625 225.99687L54.065624 225.99687L54.065624 227.2Q54.065624 227.85625 53.83125 228.2625Q53.596874 228.68437 53.096874 228.90312L52.8 228.45Q53.128124 228.30937 53.284374 228.0125Q53.440624 227.73125 53.471874 227.2L52.8625 227.2ZM55.3 222.96562Q55.3 221.43437 55.6125 220.5125Q55.925 219.575 56.534374 219.075Q57.159374 218.575 58.096874 218.575Q58.784374 218.575 59.3 218.85625Q59.83125 219.1375 60.175 219.66875Q60.51875 220.18437 60.70625 220.93437Q60.89375 221.68437 60.89375 222.96562Q60.89375 224.48125 60.58125 225.40312Q60.284374 226.325 59.659374 226.84062Q59.05 227.34062 58.096874 227.34062Q56.8625 227.34062 56.14375 226.45Q55.3 225.3875 55.3 222.96562ZM56.378124 222.96562Q56.378124 225.075 56.878124 225.77812Q57.378124 226.48125 58.096874 226.48125Q58.83125 226.48125 59.315624 225.77812Q59.815624 225.075 59.815624 222.96562Q59.815624 220.84062 59.315624 220.15312Q58.83125 219.45 58.08125 219.45Q57.3625 219.45 56.925 220.05937Q56.378124 220.84062 56.378124 222.96562ZM62.3 222.96562Q62.3 221.43437 62.6125 220.5125Q62.925 219.575 63.534374 219.075Q64.15938 218.575 65.09688 218.575Q65.78438 218.575 66.3 218.85625Q66.83125 219.1375 67.175 219.66875Q67.51875 220.18437 67.70625 220.93437Q67.89375 221.68437 67.89375 222.96562Q67.89375 224.48125 67.58125 225.40312Q67.28438 226.325 66.65938 226.84062Q66.05 227.34062 65.09688 227.34062Q63.8625 227.34062 63.14375 226.45Q62.3 225.3875 62.3 222.96562ZM63.378124 222.96562Q63.378124 225.075 63.878124 225.77812Q64.37813 226.48125 65.09688 226.48125Q65.83125 226.48125 66.31563 225.77812Q66.81563 225.075 66.81563 222.96562Q66.81563 220.84062 66.31563 220.15312Q65.83125 219.45 65.08125 219.45Q64.3625 219.45 63.925 220.05937Q63.378124 220.84062 63.378124 222.96562Z" fill-rule="nonzero"/><path fill="#000000" d="M45.3 177.74896Q45.3 176.21771 45.6125 175.29584Q45.925 174.35834 46.534374 173.85834Q47.159374 173.35834 48.096874 173.35834Q48.784374 173.35834 49.3 173.63959Q49.83125 173.92084 50.175 174.45209Q50.51875 174.96771 50.70625 175.71771Q50.89375 176.46771 50.89375 177.74896Q50.89375 179.26459 50.58125 180.18646Q50.284374 181.10834 49.659374 181.62396Q49.05 182.12396 48.096874 182.12396Q46.8625 182.12396 46.14375 181.23334Q45.3 180.17084 45.3 177.74896ZM46.378124 177.74896Q46.378124 179.85834 46.878124 180.56146Q47.378124 181.26459 48.096874 181.26459Q48.83125 181.26459 49.315624 180.56146Q49.815624 179.85834 49.815624 177.74896Q49.815624 175.62396 49.315624 174.93646Q48.83125 174.23334 48.08125 174.23334Q47.3625 174.23334 46.925 174.84271Q46.378124 175.62396 46.378124 177.74896ZM52.8625 181.98334L52.8625 180.78021L54.065624 180.78021L54.065624 181.98334Q54.065624 182.63959 53.83125 183.04584Q53.596874 183.46771 53.096874 183.68646L52.8 183.23334Q53.128124 183.09271 53.284374 182.79584Q53.440624 182.51459 53.471874 181.98334L52.8625 181.98334ZM60.846874 180.96771L60.846874 181.98334L55.159374 181.98334Q55.159374 181.60834 55.284374 181.24896Q55.503124 180.67084 55.971874 180.10834Q56.45625 179.54584 57.3625 178.81146Q58.76875 177.65521 59.253124 176.98334Q59.753124 176.31146 59.753124 175.71771Q59.753124 175.09271 59.3 174.67084Q58.846874 174.23334 58.128124 174.23334Q57.3625 174.23334 56.909374 174.68646Q56.45625 175.13959 56.440624 175.95209L55.3625 175.84271Q55.471874 174.62396 56.190624 173.99896Q56.925 173.35834 58.159374 173.35834Q59.39375 173.35834 60.1125 174.04584Q60.83125 174.73334 60.83125 175.74896Q60.83125 176.26459 60.6125 176.76459Q60.409374 177.24896 59.909374 177.81146Q59.425 178.35834 58.3 179.31146Q57.346874 180.10834 57.065624 180.40521Q56.8 180.68646 56.628124 180.96771L60.846874 180.96771ZM62.3 179.73334L63.409374 179.63959Q63.534374 180.45209 63.971874 180.85834Q64.425 181.26459 65.06563 181.26459Q65.81563 181.26459 66.34688 180.68646Q66.87813 180.10834 66.87813 179.17084Q66.87813 178.26459 66.3625 177.74896Q65.8625 177.21771 65.03438 177.21771Q64.53438 177.21771 64.1125 177.45209Q63.70625 177.68646 63.471874 178.04584L62.4875 177.92084L63.315624 173.51459L67.59688 173.51459L67.59688 174.51459L64.15938 174.51459L63.70625 176.82709Q64.47188 176.28021 65.31563 176.28021Q66.44063 176.28021 67.20625 177.06146Q67.9875 177.84271 67.9875 179.07709Q67.9875 180.23334 67.31563 181.09271Q66.4875 182.12396 65.06563 182.12396Q63.89375 182.12396 63.14375 181.46771Q62.409374 180.81146 62.3 179.73334Z" fill-rule="nonzero"/><path fill="#000000" d="M45.3 132.53229Q45.3 131.00104 45.6125 130.07916Q45.925 129.14166 46.534374 128.64166Q47.159374 128.14166 48.096874 128.14166Q48.784374 128.14166 49.3 128.42291Q49.83125 128.70416 50.175 129.23541Q50.51875 129.75104 50.70625 130.50104Q50.89375 131.25104 50.89375 132.53229Q50.89375 134.04791 50.58125 134.96979Q50.284374 135.89166 49.659374 136.40729Q49.05 136.90729 48.096874 136.90729Q46.8625 136.90729 46.14375 136.01666Q45.3 134.95416 45.3 132.53229ZM46.378124 132.53229Q46.378124 134.64166 46.878124 135.34479Q47.378124 136.04791 48.096874 136.04791Q48.83125 136.04791 49.315624 135.34479Q49.815624 134.64166 49.815624 132.53229Q49.815624 130.40729 49.315624 129.71979Q48.83125 129.01666 48.08125 129.01666Q47.3625 129.01666 46.925 129.62604Q46.378124 130.40729 46.378124 132.53229ZM52.8625 136.76666L52.8625 135.56354L54.065624 135.56354L54.065624 136.76666Q54.065624 137.42291 53.83125 137.82916Q53.596874 138.25104 53.096874 138.46979L52.8 138.01666Q53.128124 137.87604 53.284374 137.57916Q53.440624 137.29791 53.471874 136.76666L52.8625 136.76666ZM55.3 134.51666L56.409374 134.42291Q56.534374 135.23541 56.971874 135.64166Q57.425 136.04791 58.065624 136.04791Q58.815624 136.04791 59.346874 135.46979Q59.878124 134.89166 59.878124 133.95416Q59.878124 133.04791 59.3625 132.53229Q58.8625 132.00104 58.034374 132.00104Q57.534374 132.00104 57.1125 132.23541Q56.70625 132.46979 56.471874 132.82916L55.4875 132.70416L56.315624 128.29791L60.596874 128.29791L60.596874 129.29791L57.159374 129.29791L56.70625 131.61041Q57.471874 131.06354 58.315624 131.06354Q59.440624 131.06354 60.20625 131.84479Q60.9875 132.62604 60.9875 133.86041Q60.9875 135.01666 60.315624 135.87604Q59.4875 136.90729 58.065624 136.90729Q56.89375 136.90729 56.14375 136.25104Q55.409374 135.59479 55.3 134.51666ZM62.3 132.53229Q62.3 131.00104 62.6125 130.07916Q62.925 129.14166 63.534374 128.64166Q64.15938 128.14166 65.09688 128.14166Q65.78438 128.14166 66.3 128.42291Q66.83125 128.70416 67.175 129.23541Q67.51875 129.75104 67.70625 130.50104Q67.89375 131.25104 67.89375 132.53229Q67.89375 134.04791 67.58125 134.96979Q67.28438 135.89166 66.65938 136.40729Q66.05 136.90729 65.09688 136.90729Q63.8625 136.90729 63.14375 136.01666Q62.3 134.95416 62.3 132.53229ZM63.378124 132.53229Q63.378124 134.64166 63.878124 135.34479Q64.37813 136.04791 65.09688 136.04791Q65.83125 136.04791 66.31563 135.34479Q66.81563 134.64166 66.81563 132.53229Q66.81563 130.40729 66.31563 129.71979Q65.83125 129.01666 65.08125 129.01666Q64.3625 129.01666 63.925 129.62604Q63.378124 130.40729 63.378124 132.53229Z" fill-rule="nonzero"/><path fill="#000000" d="M45.3 87.31563Q45.3 85.78438 45.6125 84.8625Q45.925 83.925 46.534374 83.425Q47.159374 82.925 48.096874 82.925Q48.784374 82.925 49.3 83.20625Q49.83125 83.4875 50.175 84.01875Q50.51875 84.53438 50.70625 85.28438Q50.89375 86.03438 50.89375 87.31563Q50.89375 88.83125 50.58125 89.75313Q50.284374 90.675 49.659374 91.19063Q49.05 91.69063 48.096874 91.69063Q46.8625 91.69063 46.14375 90.8Q45.3 89.7375 45.3 87.31563ZM46.378124 87.31563Q46.378124 89.425 46.878124 90.12813Q47.378124 90.83125 48.096874 90.83125Q48.83125 90.83125 49.315624 90.12813Q49.815624 89.425 49.815624 87.31563Q49.815624 85.19063 49.315624 84.50313Q48.83125 83.8 48.08125 83.8Q47.3625 83.8 46.925 84.40938Q46.378124 85.19063 46.378124 87.31563ZM52.8625 91.55L52.8625 90.34688L54.065624 90.34688L54.065624 91.55Q54.065624 92.20625 53.83125 92.6125Q53.596874 93.03438 53.096874 93.25313L52.8 92.8Q53.128124 92.65938 53.284374 92.3625Q53.440624 92.08125 53.471874 91.55L52.8625 91.55ZM55.3625 84.08125L55.3625 83.06563L60.925 83.06563L60.925 83.89375Q60.1125 84.76875 59.3 86.22188Q58.503124 87.65938 58.065624 89.19063Q57.7375 90.26875 57.659374 91.55L56.565624 91.55Q56.58125 90.53438 56.95625 89.09688Q57.346874 87.65938 58.05 86.33125Q58.76875 85.00313 59.58125 84.08125L55.3625 84.08125ZM62.3 89.3L63.409374 89.20625Q63.534374 90.01875 63.971874 90.425Q64.425 90.83125 65.06563 90.83125Q65.81563 90.83125 66.34688 90.25313Q66.87813 89.675 66.87813 88.7375Q66.87813 87.83125 66.3625 87.31563Q65.8625 86.78438 65.03438 86.78438Q64.53438 86.78438 64.1125 87.01875Q63.70625 87.25313 63.471874 87.6125L62.4875 87.4875L63.315624 83.08125L67.59688 83.08125L67.59688 84.08125L64.15938 84.08125L63.70625 86.39375Q64.47188 85.84688 65.31563 85.84688Q66.44063 85.84688 67.20625 86.62813Q67.9875 87.40938 67.9875 88.64375Q67.9875 89.8 67.31563 90.65938Q66.4875 91.69063 65.06563 91.69063Q63.89375 91.69063 63.14375 91.03438Q62.409374 90.37813 62.3 89.3Z" fill-rule="nonzero"/><path fill="#000000" d="M49.26875 46.333332L48.221874 46.333332L48.221874 39.614582Q47.83125 39.973957 47.20625 40.348957Q46.596874 40.708332 46.1125 40.880207L46.1125 39.864582Q46.9875 39.442707 47.64375 38.864582Q48.315624 38.270832 48.596874 37.708332L49.26875 37.708332L49.26875 46.333332ZM52.8625 46.333332L52.8625 45.130207L54.065624 45.130207L54.065624 46.333332Q54.065624 46.989582 53.83125 47.395832Q53.596874 47.817707 53.096874 48.036457L52.8 47.583332Q53.128124 47.442707 53.284374 47.145832Q53.440624 46.864582 53.471874 46.333332L52.8625 46.333332ZM55.3 42.098957Q55.3 40.567707 55.6125 39.645832Q55.925 38.708332 56.534374 38.208332Q57.159374 37.708332 58.096874 37.708332Q58.784374 37.708332 59.3 37.989582Q59.83125 38.270832 60.175 38.802082Q60.51875 39.317707 60.70625 40.067707Q60.89375 40.817707 60.89375 42.098957Q60.89375 43.614582 60.58125 44.536457Q60.284374 45.458332 59.659374 45.973957Q59.05 46.473957 58.096874 46.473957Q56.8625 46.473957 56.14375 45.583332Q55.3 44.520832 55.3 42.098957ZM56.378124 42.098957Q56.378124 44.208332 56.878124 44.911457Q57.378124 45.614582 58.096874 45.614582Q58.83125 45.614582 59.315624 44.911457Q59.815624 44.208332 59.815624 42.098957Q59.815624 39.973957 59.315624 39.286457Q58.83125 38.583332 58.08125 38.583332Q57.3625 38.583332 56.925 39.192707Q56.378124 39.973957 56.378124 42.098957ZM62.3 42.098957Q62.3 40.567707 62.6125 39.645832Q62.925 38.708332 63.534374 38.208332Q64.15938 37.708332 65.09688 37.708332Q65.78438 37.708332 66.3 37.989582Q66.83125 38.270832 67.175 38.802082Q67.51875 39.317707 67.70625 40.067707Q67.89375 40.817707 67.89375 42.098957Q67.89375 43.614582 67.58125 44.536457Q67.28438 45.458332 66.65938 45.973957Q66.05 46.473957 65.09688 46.473957Q63.8625 46.473957 63.14375 45.583332Q62.3 44.520832 62.3 42.098957ZM63.378124 42.098957Q63.378124 44.208332 63.878124 44.911457Q64.37813 45.614582 65.09688 45.614582Q65.83125 45.614582 66.31563 44.911457Q66.81563 44.208332 66.81563 42.098957Q66.81563 39.973957 66.31563 39.286457Q65.83125 38.583332 65.08125 38.583332Q64.3625 38.583332 63.925 39.192707Q63.378124 39.973957 63.378124 42.098957Z" fill-rule="nonzero"/><path fill="#000000" d="M91.03988 240.2L91.03988 231.60625L92.75863 231.60625L94.78988 237.68437Q95.07113 238.54375 95.19613 238.96562Q95.336754 238.49687 95.649254 237.59062L97.711754 231.60625L99.243004 231.60625L99.243004 240.2L98.149254 240.2L98.149254 233.0125L95.649254 240.2L94.618004 240.2L92.13363 232.8875L92.13363 240.2L91.03988 240.2ZM99.555504 237.09062Q99.555504 235.35625 100.50863 234.52812Q101.305504 233.84062 102.461754 233.84062Q103.743004 233.84062 104.555504 234.68437Q105.38363 235.5125 105.38363 236.99687Q105.38363 238.2 105.024254 238.8875Q104.66488 239.575 103.961754 239.96562Q103.274254 240.34062 102.461754 240.34062Q101.16488 240.34062 100.35238 239.5125Q99.555504 238.66875 99.555504 237.09062ZM100.63363 237.09062Q100.63363 238.27812 101.149254 238.87187Q101.680504 239.46562 102.461754 239.46562Q103.25863 239.46562 103.774254 238.87187Q104.28988 238.27812 104.28988 237.05937Q104.28988 235.90312 103.75863 235.30937Q103.243004 234.71562 102.461754 234.71562Q101.680504 234.71562 101.149254 235.30937Q100.63363 235.8875 100.63363 237.09062ZM107.91488 240.2L106.930504 240.2L106.930504 231.60625L107.993004 231.60625L107.993004 234.66875Q108.66488 233.84062 109.69613 233.84062Q110.274254 233.84062 110.774254 234.075Q111.28988 234.29375 111.618004 234.71562Q111.961754 235.1375 112.149254 235.73125Q112.336754 236.325 112.336754 236.99687Q112.336754 238.59062 111.53988 239.46562Q110.743004 240.34062 109.649254 240.34062Q108.53988 240.34062 107.91488 239.41875L107.91488 240.2ZM107.899254 237.04375Q107.899254 238.15312 108.211754 238.65312Q108.711754 239.46562 109.555504 239.46562Q110.243004 239.46562 110.743004 238.87187Q111.25863 238.27812 111.25863 237.075Q111.25863 235.85625 110.774254 235.27812Q110.28988 234.7 109.60238 234.7Q108.91488 234.7 108.399254 235.30937Q107.899254 235.90312 107.899254 237.04375ZM113.94613 232.825L113.94613 231.60625L115.00863 231.60625L115.00863 232.825L113.94613 232.825ZM113.94613 240.2L113.94613 233.98125L115.00863 233.98125L115.00863 240.2L113.94613 240.2ZM116.91488 240.2L116.91488 231.60625L117.97738 231.60625L117.97738 240.2L116.91488 240.2ZM124.19613 238.2L125.28988 238.325Q125.03988 239.27812 124.336754 239.80937Q123.63363 240.34062 122.555504 240.34062Q121.19613 240.34062 120.38363 239.49687Q119.586754 238.65312 119.586754 237.1375Q119.586754 235.575 120.399254 234.71562Q121.211754 233.84062 122.493004 233.84062Q123.743004 233.84062 124.524254 234.68437Q125.32113 235.52812 125.32113 237.075Q125.32113 237.16875 125.32113 237.35625L120.680504 237.35625Q120.743004 238.3875 121.25863 238.93437Q121.774254 239.46562 122.555504 239.46562Q123.13363 239.46562 123.53988 239.16875Q123.961754 238.85625 124.19613 238.2ZM120.743004 236.49687L124.211754 236.49687Q124.149254 235.7 123.82113 235.30937Q123.305504 234.7 122.50863 234.7Q121.774254 234.7 121.274254 235.18437Q120.78988 235.66875 120.743004 236.49687ZM127.07113 240.2L127.07113 231.60625L128.22739 231.60625L132.74301 238.35625L132.74301 231.60625L133.83676 231.60625L133.83676 240.2L132.66489 240.2L128.14926 233.45L128.14926 240.2L127.07113 240.2ZM140.19614 238.2L141.28989 238.325Q141.03989 239.27812 140.33676 239.80937Q139.63364 240.34062 138.55551 240.34062Q137.19614 240.34062 136.38364 239.49687Q135.58676 238.65312 135.58676 237.1375Q135.58676 235.575 136.39926 234.71562Q137.21176 233.84062 138.49301 233.84062Q139.74301 233.84062 140.52426 234.68437Q141.32114 235.52812 141.32114 237.075Q141.32114 237.16875 141.32114 237.35625L136.68051 237.35625Q136.74301 238.3875 137.25864 238.93437Q137.77426 239.46562 138.55551 239.46562Q139.13364 239.46562 139.53989 239.16875Q139.96176 238.85625 140.19614 238.2ZM136.74301 236.49687L140.21176 236.49687Q140.14926 235.7 139.82114 235.30937Q139.30551 234.7 138.50864 234.7Q137.77426 234.7 137.27426 235.18437Q136.78989 235.66875 136.74301 236.49687ZM145.24301 239.2625L145.39926 240.18437Q144.94614 240.27812 144.60239 240.27812Q144.02426 240.27812 143.71176 240.10625Q143.39926 239.91875 143.25864 239.62187Q143.13364 239.325 143.13364 238.37187L143.13364 234.79375L142.36801 234.79375L142.36801 233.98125L143.13364 233.98125L143.13364 232.43437L144.18051 231.80937L144.18051 233.98125L145.24301 233.98125L145.24301 234.79375L144.18051 234.79375L144.18051 238.43437Q144.18051 238.8875 144.22739 239.0125Q144.28989 239.1375 144.41489 239.21562Q144.53989 239.29375 144.77426 239.29375Q144.96176 239.29375 145.24301 239.2625ZM148.52426 240.2L145.19614 231.60625L146.43051 231.60625L148.66489 237.85625Q148.93051 238.60625 149.11801 239.2625Q149.32114 238.55937 149.58676 237.85625L151.89926 231.60625L153.05551 231.60625L149.69614 240.2L148.52426 240.2ZM158.19614 239.18437L158.19614 240.2L152.50864 240.2Q152.50864 239.825 152.63364 239.46562Q152.85239 238.8875 153.32114 238.325Q153.80551 237.7625 154.71176 237.02812Q156.11801 235.87187 156.60239 235.2Q157.10239 234.52812 157.10239 233.93437Q157.10239 233.30937 156.64926 232.8875Q156.19614 232.45 155.47739 232.45Q154.71176 232.45 154.25864 232.90312Q153.80551 233.35625 153.78989 234.16875L152.71176 234.05937Q152.82114 232.84062 153.53989 232.21562Q154.27426 231.575 155.50864 231.575Q156.74301 231.575 157.46176 232.2625Q158.18051 232.95 158.18051 233.96562Q158.18051 234.48125 157.96176 234.98125Q157.75864 235.46562 157.25864 236.02812Q156.77426 236.575 155.64926 237.52812Q154.69614 238.325 154.41489 238.62187Q154.14926 238.90312 153.97739 239.18437L158.19614 239.18437Z" fill-rule="nonzero"/><path fill="#000000" d="M171.4375 240.2L171.4375 231.60625L175.25 231.60625Q176.40625 231.60625 177.0 231.84062Q177.59375 232.075 177.95312 232.66875Q178.3125 233.24687 178.3125 233.95Q178.3125 234.87187 177.71875 235.49687Q177.125 236.12187 175.89062 236.29375Q176.34375 236.5125 176.57812 236.71562Q177.07812 237.16875 177.51562 237.85625L179.01562 240.2L177.57812 240.2L176.45312 238.41875Q175.95312 237.6375 175.625 237.23125Q175.3125 236.825 175.04688 236.66875Q174.79688 236.49687 174.53125 236.41875Q174.34375 236.3875 173.90625 236.3875L172.57812 236.3875L172.57812 240.2L171.4375 240.2ZM172.57812 235.40312L175.03125 235.40312Q175.79688 235.40312 176.23438 235.24687Q176.6875 235.075 176.90625 234.73125Q177.14062 234.37187 177.14062 233.95Q177.14062 233.34062 176.6875 232.95Q176.25 232.55937 175.29688 232.55937L172.57812 232.55937L172.57812 235.40312ZM184.54688 238.2L185.64062 238.325Q185.39062 239.27812 184.6875 239.80937Q183.98438 240.34062 182.90625 240.34062Q181.54688 240.34062 180.73438 239.49687Q179.9375 238.65312 179.9375 237.1375Q179.9375 235.575 180.75 234.71562Q181.5625 233.84062 182.84375 233.84062Q184.09375 233.84062 184.875 234.68437Q185.67188 235.52812 185.67188 237.075Q185.67188 237.16875 185.67188 237.35625L181.03125 237.35625Q181.09375 238.3875 181.60938 238.93437Q182.125 239.46562 182.90625 239.46562Q183.48438 239.46562 183.89062 239.16875Q184.3125 238.85625 184.54688 238.2ZM181.09375 236.49687L184.5625 236.49687Q184.5 235.7 184.17188 235.30937Q183.65625 234.7 182.85938 234.7Q182.125 234.7 181.625 235.18437Q181.14062 235.66875 181.09375 236.49687ZM186.875 238.34062L187.90625 238.18437Q188.0 238.80937 188.39062 239.1375Q188.79688 239.46562 189.53125 239.46562Q190.25 239.46562 190.59375 239.18437Q190.95312 238.8875 190.95312 238.48125Q190.95312 238.12187 190.64062 237.91875Q190.42188 237.77812 189.5625 237.55937Q188.40625 237.2625 187.95312 237.05937Q187.51562 236.84062 187.28125 236.46562Q187.04688 236.09062 187.04688 235.62187Q187.04688 235.21562 187.23438 234.85625Q187.42188 234.49687 187.75 234.2625Q188.0 234.09062 188.42188 233.96562Q188.84375 233.84062 189.34375 233.84062Q190.0625 233.84062 190.60938 234.05937Q191.17188 234.2625 191.4375 234.62187Q191.70312 234.98125 191.79688 235.575L190.76562 235.71562Q190.70312 235.24687 190.35938 234.98125Q190.03125 234.7 189.40625 234.7Q188.6875 234.7 188.375 234.95Q188.0625 235.18437 188.0625 235.5125Q188.0625 235.71562 188.1875 235.87187Q188.32812 236.04375 188.59375 236.15312Q188.75 236.21562 189.53125 236.41875Q190.65625 236.73125 191.09375 236.91875Q191.53125 237.10625 191.78125 237.46562Q192.03125 237.825 192.03125 238.37187Q192.03125 238.90312 191.71875 239.37187Q191.42188 239.825 190.84375 240.09062Q190.26562 240.34062 189.53125 240.34062Q188.3125 240.34062 187.67188 239.84062Q187.04688 239.325 186.875 238.34062ZM194.42188 240.2L194.42188 231.60625L195.57812 231.60625L200.09375 238.35625L200.09375 231.60625L201.1875 231.60625L201.1875 240.2L200.01562 240.2L195.5 233.45L195.5 240.2L194.42188 240.2ZM207.54688 238.2L208.64062 238.325Q208.39062 239.27812 207.6875 239.80937Q206.98438 240.34062 205.90625 240.34062Q204.54688 240.34062 203.73438 239.49687Q202.9375 238.65312 202.9375 237.1375Q202.9375 235.575 203.75 234.71562Q204.5625 233.84062 205.84375 233.84062Q207.09375 233.84062 207.875 234.68437Q208.67188 235.52812 208.67188 237.075Q208.67188 237.16875 208.67188 237.35625L204.03125 237.35625Q204.09375 238.3875 204.60938 238.93437Q205.125 239.46562 205.90625 239.46562Q206.48438 239.46562 206.89062 239.16875Q207.3125 238.85625 207.54688 238.2ZM204.09375 236.49687L207.5625 236.49687Q207.5 235.7 207.17188 235.30937Q206.65625 234.7 205.85938 234.7Q205.125 234.7 204.625 235.18437Q204.14062 235.66875 204.09375 236.49687ZM212.59375 239.2625L212.75 240.18437Q212.29688 240.27812 211.95312 240.27812Q211.375 240.27812 211.0625 240.10625Q210.75 239.91875 210.60938 239.62187Q210.48438 239.325 210.48438 238.37187L210.48438 234.79375L209.71875 234.79375L209.71875 233.98125L210.48438 233.98125L210.48438 232.43437L211.53125 231.80937L211.53125 233.98125L212.59375 233.98125L212.59375 234.79375L211.53125 234.79375L211.53125 238.43437Q211.53125 238.8875 211.57812 239.0125Q211.64062 239.1375 211.76562 239.21562Q211.89062 239.29375 212.125 239.29375Q212.3125 239.29375 212.59375 239.2625ZM213.0 237.95L214.10938 237.85625Q214.23438 238.66875 214.67188 239.075Q215.125 239.48125 215.76562 239.48125Q216.51562 239.48125 217.04688 238.90312Q217.57812 238.325 217.57812 237.3875Q217.57812 236.48125 217.0625 235.96562Q216.5625 235.43437 215.73438 235.43437Q215.23438 235.43437 214.8125 235.66875Q214.40625 235.90312 214.17188 236.2625L213.1875 236.1375L214.01562 231.73125L218.29688 231.73125L218.29688 232.73125L214.85938 232.73125L214.40625 235.04375Q215.17188 234.49687 216.01562 234.49687Q217.14062 234.49687 217.90625 235.27812Q218.6875 236.05937 218.6875 237.29375Q218.6875 238.45 218.01562 239.30937Q217.1875 240.34062 215.76562 240.34062Q214.59375 240.34062 213.84375 239.68437Q213.10938 239.02812 213.0 237.95ZM220.0 235.96562Q220.0 234.43437 220.3125 233.5125Q220.625 232.575 221.23438 232.075Q221.85938 231.575 222.79688 231.575Q223.48438 231.575 224.0 231.85625Q224.53125 232.1375 224.875 232.66875Q225.21875 233.18437 225.40625 233.93437Q225.59375 234.68437 225.59375 235.96562Q225.59375 237.48125 225.28125 238.40312Q224.98438 239.325 224.35938 239.84062Q223.75 240.34062 222.79688 240.34062Q221.5625 240.34062 220.84375 239.45Q220.0 238.3875 220.0 235.96562ZM221.07812 235.96562Q221.07812 238.075 221.57812 238.77812Q222.07812 239.48125 222.79688 239.48125Q223.53125 239.48125 224.01562 238.77812Q224.51562 238.075 224.51562 235.96562Q224.51562 233.84062 224.01562 233.15312Q223.53125 232.45 222.78125 232.45Q222.0625 232.45 221.625 233.05937Q221.07812 233.84062 221.07812 235.96562Z" fill-rule="nonzero"/><path fill="#000000" d="M234.80388 240.2L234.80388 231.60625L241.007 231.60625L241.007 232.62187L235.9445 232.62187L235.9445 235.24687L240.6945 235.24687L240.6945 236.2625L235.9445 236.2625L235.9445 239.18437L241.21013 239.18437L241.21013 240.2L234.80388 240.2ZM242.89763 240.2L242.89763 234.79375L241.96013 234.79375L241.96013 233.98125L242.89763 233.98125L242.89763 233.30937Q242.89763 232.68437 243.007 232.3875Q243.16325 231.96562 243.53825 231.71562Q243.92888 231.46562 244.61638 231.46562Q245.0695 231.46562 245.60075 231.575L245.4445 232.48125Q245.11638 232.43437 244.8195 232.43437Q244.33513 232.43437 244.132 232.6375Q243.9445 232.84062 243.9445 233.40312L243.9445 233.98125L245.16325 233.98125L245.16325 234.79375L243.9445 234.79375L243.9445 240.2L242.89763 240.2ZM245.89763 240.2L245.89763 234.79375L244.96013 234.79375L244.96013 233.98125L245.89763 233.98125L245.89763 233.30937Q245.89763 232.68437 246.007 232.3875Q246.16325 231.96562 246.53825 231.71562Q246.92888 231.46562 247.61638 231.46562Q248.0695 231.46562 248.60075 231.575L248.4445 232.48125Q248.11638 232.43437 247.8195 232.43437Q247.33513 232.43437 247.132 232.6375Q246.9445 232.84062 246.9445 233.40312L246.9445 233.98125L248.16325 233.98125L248.16325 234.79375L246.9445 234.79375L246.9445 240.2L245.89763 240.2ZM248.64763 232.825L248.64763 231.60625L249.71013 231.60625L249.71013 232.825L248.64763 232.825ZM248.64763 240.2L248.64763 233.98125L249.71013 233.98125L249.71013 240.2L248.64763 240.2ZM255.71013 237.91875L256.7414 238.05937Q256.56952 239.12187 255.86638 239.73125Q255.16325 240.34062 254.14763 240.34062Q252.86638 240.34062 252.08513 239.5125Q251.3195 238.66875 251.3195 237.10625Q251.3195 236.10625 251.64763 235.35625Q251.99138 234.59062 252.66325 234.21562Q253.35075 233.84062 254.16325 233.84062Q255.16325 233.84062 255.80388 234.35625Q256.46014 234.85625 256.64764 235.80937L255.61638 235.96562Q255.47575 235.34062 255.10075 235.02812Q254.72575 234.7 254.1945 234.7Q253.39763 234.7 252.89763 235.27812Q252.39763 235.84062 252.39763 237.075Q252.39763 238.34062 252.882 238.90312Q253.36638 239.46562 254.132 239.46562Q254.757 239.46562 255.16325 239.09062Q255.58513 238.71562 255.71013 237.91875ZM257.64764 232.825L257.64764 231.60625L258.71014 231.60625L258.71014 232.825L257.64764 232.825ZM257.64764 240.2L257.64764 233.98125L258.71014 233.98125L258.71014 240.2L257.64764 240.2ZM264.89764 238.2L265.9914 238.325Q265.7414 239.27812 265.03827 239.80937Q264.33514 240.34062 263.25702 240.34062Q261.89764 240.34062 261.08514 239.49687Q260.28827 238.65312 260.28827 237.1375Q260.28827 235.575 261.10077 234.71562Q261.91327 233.84062 263.19452 233.84062Q264.44452 233.84062 265.22577 234.68437Q266.02264 235.52812 266.02264 237.075Q266.02264 237.16875 266.02264 237.35625L261.38202 237.35625Q261.44452 238.3875 261.96014 238.93437Q262.47577 239.46562 263.25702 239.46562Q263.83514 239.46562 264.2414 239.16875Q264.66327 238.85625 264.89764 238.2ZM261.44452 236.49687L264.91327 236.49687Q264.85077 235.7 264.52264 235.30937Q264.00702 234.7 263.21014 234.7Q262.47577 234.7 261.97577 235.18437Q261.4914 235.66875 261.44452 236.49687ZM267.64764 240.2L267.64764 233.98125L268.58514 233.98125L268.58514 234.85625Q269.27264 233.84062 270.56952 233.84062Q271.13202 233.84062 271.60077 234.04375Q272.08514 234.24687 272.31952 234.575Q272.5539 234.90312 272.64764 235.34062Q272.69452 235.6375 272.69452 236.37187L272.69452 240.2L271.64764 240.2L271.64764 236.41875Q271.64764 235.7625 271.52264 235.45Q271.39764 235.1375 271.08514 234.95Q270.77264 234.74687 270.35077 234.74687Q269.6789 234.74687 269.1789 235.18437Q268.69452 235.60625 268.69452 236.79375L268.69452 240.2L267.64764 240.2ZM276.94452 239.2625L277.10077 240.18437Q276.64764 240.27812 276.3039 240.27812Q275.72577 240.27812 275.41327 240.10625Q275.10077 239.91875 274.96014 239.62187Q274.83514 239.325 274.83514 238.37187L274.83514 234.79375L274.06952 234.79375L274.06952 233.98125L274.83514 233.98125L274.83514 232.43437L275.88202 231.80937L275.88202 233.98125L276.94452 233.98125L276.94452 234.79375L275.88202 234.79375L275.88202 238.43437Q275.88202 238.8875 275.9289 239.0125Q275.9914 239.1375 276.1164 239.21562Q276.2414 239.29375 276.47577 239.29375Q276.66327 239.29375 276.94452 239.2625ZM277.77264 240.2L277.77264 231.60625L278.9289 231.60625L283.44452 238.35625L283.44452 231.60625L284.53827 231.60625L284.53827 240.2L283.3664 240.2L278.85077 233.45L278.85077 240.2L277.77264 240.2ZM290.89764 238.2L291.9914 238.325Q291.7414 239.27812 291.03827 239.80937Q290.33514 240.34062 289.25702 240.34062Q287.89764 240.34062 287.08514 239.49687Q286.28827 238.65312 286.28827 237.1375Q286.28827 235.575 287.10077 234.71562Q287.91327 233.84062 289.19452 233.84062Q290.44452 233.84062 291.22577 234.68437Q292.02264 235.52812 292.02264 237.075Q292.02264 237.16875 292.02264 237.35625L287.38202 237.35625Q287.44452 238.3875 287.96014 238.93437Q288.47577 239.46562 289.25702 239.46562Q289.83514 239.46562 290.2414 239.16875Q290.66327 238.85625 290.89764 238.2ZM287.44452 236.49687L290.91327 236.49687Q290.85077 235.7 290.52264 235.30937Q290.00702 234.7 289.21014 234.7Q288.47577 234.7 287.97577 235.18437Q287.4914 235.66875 287.44452 236.49687ZM295.94452 239.2625L296.10077 240.18437Q295.64764 240.27812 295.3039 240.27812Q294.72577 240.27812 294.41327 240.10625Q294.10077 239.91875 293.96014 239.62187Q293.83514 239.325 293.83514 238.37187L293.83514 234.79375L293.06952 234.79375L293.06952 233.98125L293.83514 233.98125L293.83514 232.43437L294.88202 231.80937L294.88202 233.98125L295.94452 233.98125L295.94452 234.79375L294.88202 234.79375L294.88202 238.43437Q294.88202 238.8875 294.9289 239.0125Q294.9914 239.1375 295.1164 239.21562Q295.2414 239.29375 295.47577 239.29375Q295.66327 239.29375 295.94452 239.2625ZM296.72577 240.2L296.72577 231.60625L299.96014 231.60625Q300.94452 231.60625 301.53827 231.87187Q302.13202 232.1375 302.46014 232.68437Q302.8039 233.21562 302.8039 233.80937Q302.8039 234.35625 302.50702 234.84062Q302.21014 235.325 301.60077 235.62187Q302.38202 235.85625 302.78827 236.41875Q303.21014 236.96562 303.21014 237.71562Q303.21014 238.30937 302.96014 238.84062Q302.71014 239.35625 302.33514 239.6375Q301.96014 239.91875 301.38202 240.05937Q300.81952 240.2 300.00702 240.2L296.72577 240.2ZM297.8664 235.21562L299.72577 235.21562Q300.47577 235.21562 300.8039 235.12187Q301.2414 234.99687 301.46014 234.7Q301.6789 234.3875 301.6789 233.93437Q301.6789 233.5125 301.47577 233.18437Q301.27264 232.85625 300.88202 232.74687Q300.50702 232.62187 299.58514 232.62187L297.8664 232.62187L297.8664 235.21562ZM297.8664 239.18437L300.00702 239.18437Q300.5539 239.18437 300.77264 239.1375Q301.1789 239.075 301.4289 238.91875Q301.69452 238.74687 301.8664 238.43437Q302.03827 238.12187 302.03827 237.71562Q302.03827 237.23125 301.78827 236.87187Q301.5539 236.5125 301.1164 236.37187Q300.6789 236.23125 299.85077 236.23125L297.8664 236.23125L297.8664 239.18437ZM304.35077 235.96562Q304.35077 234.43437 304.66327 233.5125Q304.97577 232.575 305.58514 232.075Q306.21014 231.575 307.14764 231.575Q307.83514 231.575 308.35077 231.85625Q308.88202 232.1375 309.22577 232.66875Q309.56952 233.18437 309.75702 233.93437Q309.94452 234.68437 309.94452 235.96562Q309.94452 237.48125 309.63202 238.40312Q309.33514 239.325 308.71014 239.84062Q308.10077 240.34062 307.14764 240.34062Q305.91327 240.34062 305.19452 239.45Q304.35077 238.3875 304.35077 235.96562ZM305.4289 235.96562Q305.4289 238.075 305.9289 238.77812Q306.4289 239.48125 307.14764 239.48125Q307.88202 239.48125 308.3664 238.77812Q308.8664 238.075 308.8664 235.96562Q308.8664 233.84062 308.3664 233.15312Q307.88202 232.45 307.13202 232.45Q306.41327 232.45 305.97577 233.05937Q305.4289 233.84062 305.4289 235.96562Z" fill-rule="nonzero"/><path fill="#4285f4" d="M76.0 14.8C76.0 14.247715 76.447716 13.8 77.0 13.8L87.0 13.8C87.552284 13.8 88.0 14.247715 88.0 14.8L88.0 24.8C88.0 25.352285 87.552284 25.8 87.0 25.8L77.0 25.8C76.447716 25.8 76.0 25.352285 76.0 24.8Z" fill-rule="nonzero"/><path fill="#1a1a1a" d="M96.921875 23.8L96.921875 15.206249L98.078125 15.206249L102.59375 21.95625L102.59375 15.206249L103.6875 15.206249L103.6875 23.8L102.515625 23.8L98.0 17.05L98.0 23.8L96.921875 23.8ZM105.40625 20.690624Q105.40625 18.95625 106.359375 18.128124Q107.15625 17.440624 108.3125 17.440624Q109.59375 17.440624 110.40625 18.284374Q111.234375 19.1125 111.234375 20.596874Q111.234375 21.8 110.875 22.4875Q110.515625 23.175 109.8125 23.565624Q109.125 23.940624 108.3125 23.940624Q107.015625 23.940624 106.203125 23.1125Q105.40625 22.26875 105.40625 20.690624ZM106.484375 20.690624Q106.484375 21.878124 107.0 22.471874Q107.53125 23.065624 108.3125 23.065624Q109.109375 23.065624 109.625 22.471874Q110.140625 21.878124 110.140625 20.659374Q110.140625 19.503124 109.609375 18.909374Q109.09375 18.315624 108.3125 18.315624Q107.53125 18.315624 107.0 18.909374Q106.484375 19.4875 106.484375 20.690624ZM112.796875 23.8L112.796875 17.58125L113.734375 17.58125L113.734375 18.45625Q114.421875 17.440624 115.71875 17.440624Q116.28125 17.440624 116.75 17.64375Q117.234375 17.846874 117.46875 18.175Q117.703125 18.503124 117.796875 18.940624Q117.84375 19.2375 117.84375 19.971874L117.84375 23.8L116.796875 23.8L116.796875 20.01875Q116.796875 19.3625 116.671875 19.05Q116.546875 18.7375 116.234375 18.55Q115.921875 18.346874 115.5 18.346874Q114.828125 18.346874 114.328125 18.784374Q113.84375 19.20625 113.84375 20.39375L113.84375 23.8L112.796875 23.8ZM119.375 21.221874L119.375 20.159374L122.625 20.159374L122.625 21.221874L119.375 21.221874ZM123.546875 21.034374L124.609375 20.940624Q124.6875 21.596874 124.96875 22.003124Q125.25 22.409374 125.828125 22.675Q126.421875 22.925 127.15625 22.925Q127.796875 22.925 128.29688 22.7375Q128.79688 22.534374 129.03125 22.20625Q129.28125 21.8625 129.28125 21.471874Q129.28125 21.065624 129.04688 20.76875Q128.8125 20.45625 128.28125 20.253124Q127.921875 20.1125 126.734375 19.83125Q125.5625 19.55 125.09375 19.3Q124.46875 18.971874 124.171875 18.503124Q123.875 18.01875 123.875 17.425Q123.875 16.784374 124.234375 16.221874Q124.609375 15.643749 125.3125 15.362499Q126.03125 15.065624 126.890625 15.065624Q127.84375 15.065624 128.57812 15.378124Q129.3125 15.674999 129.70312 16.284374Q130.09375 16.878124 130.125 17.628124L129.03125 17.70625Q128.9375 16.89375 128.42188 16.4875Q127.921875 16.065624 126.9375 16.065624Q125.90625 16.065624 125.4375 16.440624Q124.96875 16.815624 124.96875 17.346874Q124.96875 17.815624 125.296875 18.1125Q125.625 18.409374 127.0 18.721874Q128.39062 19.034374 128.90625 19.26875Q129.65625 19.628124 130.01562 20.159374Q130.375 20.675 130.375 21.378124Q130.375 22.065624 129.98438 22.675Q129.59375 23.26875 128.85938 23.6125Q128.125 23.940624 127.203125 23.940624Q126.03125 23.940624 125.234375 23.6125Q124.453125 23.26875 124.0 22.58125Q123.5625 21.89375 123.546875 21.034374ZM131.79688 16.425L131.79688 15.206249L132.85938 15.206249L132.85938 16.425L131.79688 16.425ZM131.79688 23.8L131.79688 17.58125L132.85938 17.58125L132.85938 23.8L131.79688 23.8ZM138.85938 23.034374Q138.26562 23.534374 137.71875 23.7375Q137.1875 23.940624 136.5625 23.940624Q135.53125 23.940624 134.98438 23.440624Q134.4375 22.940624 134.4375 22.159374Q134.4375 21.70625 134.64062 21.33125Q134.84375 20.940624 135.1875 20.721874Q135.53125 20.4875 135.95312 20.378124Q136.25 20.284374 136.89062 20.20625Q138.15625 20.065624 138.76562 19.846874Q138.76562 19.628124 138.76562 19.58125Q138.76562 18.925 138.46875 18.659374Q138.0625 18.315624 137.26562 18.315624Q136.53125 18.315624 136.17188 18.58125Q135.8125 18.83125 135.64062 19.4875L134.60938 19.346874Q134.75 18.690624 135.07812 18.284374Q135.40625 17.878124 136.01562 17.659374Q136.625 17.440624 137.42188 17.440624Q138.21875 17.440624 138.71875 17.628124Q139.21875 17.815624 139.45312 18.096874Q139.6875 18.378124 139.78125 18.815624Q139.82812 19.08125 139.82812 19.784374L139.82812 21.190624Q139.82812 22.659374 139.89062 23.05Q139.96875 23.440624 140.17188 23.8L139.0625 23.8Q138.90625 23.471874 138.85938 23.034374ZM138.76562 20.675Q138.1875 20.909374 137.04688 21.08125Q136.39062 21.175 136.125 21.3Q135.85938 21.409374 135.70312 21.628124Q135.5625 21.846874 135.5625 22.128124Q135.5625 22.55 135.875 22.83125Q136.20312 23.1125 136.8125 23.1125Q137.42188 23.1125 137.89062 22.846874Q138.375 22.58125 138.59375 22.1125Q138.76562 21.753124 138.76562 21.065624L138.76562 20.675ZM141.79688 23.8L141.79688 17.58125L142.73438 17.58125L142.73438 18.45625Q143.03125 17.9875 143.51562 17.721874Q144.0 17.440624 144.625 17.440624Q145.3125 17.440624 145.75 17.721874Q146.20312 18.003124 146.375 18.51875Q147.125 17.440624 148.29688 17.440624Q149.23438 17.440624 149.71875 17.95625Q150.21875 18.45625 150.21875 19.534374L150.21875 23.8L149.17188 23.8L149.17188 19.878124Q149.17188 19.253124 149.0625 18.971874Q148.96875 18.690624 148.70312 18.51875Q148.4375 18.346874 148.0625 18.346874Q147.40625 18.346874 146.96875 18.784374Q146.54688 19.221874 146.54688 20.190624L146.54688 23.8L145.48438 23.8L145.48438 19.753124Q145.48438 19.05 145.21875 18.70625Q144.96875 18.346874 144.39062 18.346874Q143.9375 18.346874 143.5625 18.58125Q143.1875 18.815624 143.01562 19.26875Q142.84375 19.721874 142.84375 20.565624L142.84375 23.8L141.79688 23.8ZM157.04688 21.8L158.14062 21.925Q157.89062 22.878124 157.1875 23.409374Q156.48438 23.940624 155.40625 23.940624Q154.04688 23.940624 153.23438 23.096874Q152.4375 22.253124 152.4375 20.7375Q152.4375 19.175 153.25 18.315624Q154.0625 17.440624 155.34375 17.440624Q156.59375 17.440624 157.375 18.284374Q158.17188 19.128124 158.17188 20.675Q158.17188 20.76875 158.17188 20.95625L153.53125 20.95625Q153.59375 21.9875 154.10938 22.534374Q154.625 23.065624 155.40625 23.065624Q155.98438 23.065624 156.39062 22.76875Q156.8125 22.45625 157.04688 21.8ZM153.59375 20.096874L157.0625 20.096874Q157.0 19.3 156.67188 18.909374Q156.15625 18.3 155.35938 18.3Q154.625 18.3 154.125 18.784374Q153.64062 19.26875 153.59375 20.096874ZM159.375 21.940624L160.40625 21.784374Q160.5 22.409374 160.89062 22.7375Q161.29688 23.065624 162.03125 23.065624Q162.75 23.065624 163.09375 22.784374Q163.45312 22.4875 163.45312 22.08125Q163.45312 21.721874 163.14062 21.51875Q162.92188 21.378124 162.0625 21.159374Q160.90625 20.8625 160.45312 20.659374Q160.01562 20.440624 159.78125 20.065624Q159.54688 19.690624 159.54688 19.221874Q159.54688 18.815624 159.73438 18.45625Q159.92188 18.096874 160.25 17.8625Q160.5 17.690624 160.92188 17.565624Q161.34375 17.440624 161.84375 17.440624Q162.5625 17.440624 163.10938 17.659374Q163.67188 17.8625 163.9375 18.221874Q164.20312 18.58125 164.29688 19.175L163.26562 19.315624Q163.20312 18.846874 162.85938 18.58125Q162.53125 18.3 161.90625 18.3Q161.1875 18.3 160.875 18.55Q160.5625 18.784374 160.5625 19.1125Q160.5625 19.315624 160.6875 19.471874Q160.82812 19.64375 161.09375 19.753124Q161.25 19.815624 162.03125 20.01875Q163.15625 20.33125 163.59375 20.51875Q164.03125 20.70625 164.28125 21.065624Q164.53125 21.425 164.53125 21.971874Q164.53125 22.503124 164.21875 22.971874Q163.92188 23.425 163.34375 23.690624Q162.76562 23.940624 162.03125 23.940624Q160.8125 23.940624 160.17188 23.440624Q159.54688 22.925 159.375 21.940624ZM171.04688 21.8L172.14062 21.925Q171.89062 22.878124 171.1875 23.409374Q170.48438 23.940624 169.40625 23.940624Q168.04688 23.940624 167.23438 23.096874Q166.4375 22.253124 166.4375 20.7375Q166.4375 19.175 167.25 18.315624Q168.0625 17.440624 169.34375 17.440624Q170.59375 17.440624 171.375 18.284374Q172.17188 19.128124 172.17188 20.675Q172.17188 20.76875 172.17188 20.95625L167.53125 20.95625Q167.59375 21.9875 168.10938 22.534374Q168.625 23.065624 169.40625 23.065624Q169.98438 23.065624 170.39062 22.76875Q170.8125 22.45625 171.04688 21.8ZM167.59375 20.096874L171.0625 20.096874Q171.0 19.3 170.67188 18.909374Q170.15625 18.3 169.35938 18.3Q168.625 18.3 168.125 18.784374Q167.64062 19.26875 167.59375 20.096874Z" fill-rule="nonzero"/><path fill="#ea4335" d="M189.0 14.8C189.0 14.247715 189.44771 13.8 190.0 13.8L200.0 13.8C200.55229 13.8 201.0 14.247715 201.0 14.8L201.0 24.8C201.0 25.352285 200.55229 25.8 200.0 25.8L190.0 25.8C189.44771 25.8 189.0 25.352285 189.0 24.8Z" fill-rule="nonzero"/><path fill="#1a1a1a" d="M209.54688 21.034374L210.60938 20.940624Q210.6875 21.596874 210.96875 22.003124Q211.25 22.409374 211.82812 22.675Q212.42188 22.925 213.15625 22.925Q213.79688 22.925 214.29688 22.7375Q214.79688 22.534374 215.03125 22.20625Q215.28125 21.8625 215.28125 21.471874Q215.28125 21.065624 215.04688 20.76875Q214.8125 20.45625 214.28125 20.253124Q213.92188 20.1125 212.73438 19.83125Q211.5625 19.55 211.09375 19.3Q210.46875 18.971874 210.17188 18.503124Q209.875 18.01875 209.875 17.425Q209.875 16.784374 210.23438 16.221874Q210.60938 15.643749 211.3125 15.362499Q212.03125 15.065624 212.89062 15.065624Q213.84375 15.065624 214.57812 15.378124Q215.3125 15.674999 215.70312 16.284374Q216.09375 16.878124 216.125 17.628124L215.03125 17.70625Q214.9375 16.89375 214.42188 16.4875Q213.92188 16.065624 212.9375 16.065624Q211.90625 16.065624 211.4375 16.440624Q210.96875 16.815624 210.96875 17.346874Q210.96875 17.815624 211.29688 18.1125Q211.625 18.409374 213.0 18.721874Q214.39062 19.034374 214.90625 19.26875Q215.65625 19.628124 216.01562 20.159374Q216.375 20.675 216.375 21.378124Q216.375 22.065624 215.98438 22.675Q215.59375 23.26875 214.85938 23.6125Q214.125 23.940624 213.20312 23.940624Q212.03125 23.940624 211.23438 23.6125Q210.45312 23.26875 210.0 22.58125Q209.5625 21.89375 209.54688 21.034374ZM217.79688 16.425L217.79688 15.206249L218.85938 15.206249L218.85938 16.425L217.79688 16.425ZM217.79688 23.8L217.79688 17.58125L218.85938 17.58125L218.85938 23.8L217.79688 23.8ZM224.85938 23.034374Q224.26562 23.534374 223.71875 23.7375Q223.1875 23.940624 222.5625 23.940624Q221.53125 23.940624 220.98438 23.440624Q220.4375 22.940624 220.4375 22.159374Q220.4375 21.70625 220.64062 21.33125Q220.84375 20.940624 221.1875 20.721874Q221.53125 20.4875 221.95312 20.378124Q222.25 20.284374 222.89062 20.20625Q224.15625 20.065624 224.76562 19.846874Q224.76562 19.628124 224.76562 19.58125Q224.76562 18.925 224.46875 18.659374Q224.0625 18.315624 223.26562 18.315624Q222.53125 18.315624 222.17188 18.58125Q221.8125 18.83125 221.64062 19.4875L220.60938 19.346874Q220.75 18.690624 221.07812 18.284374Q221.40625 17.878124 222.01562 17.659374Q222.625 17.440624 223.42188 17.440624Q224.21875 17.440624 224.71875 17.628124Q225.21875 17.815624 225.45312 18.096874Q225.6875 18.378124 225.78125 18.815624Q225.82812 19.08125 225.82812 19.784374L225.82812 21.190624Q225.82812 22.659374 225.89062 23.05Q225.96875 23.440624 226.17188 23.8L225.0625 23.8Q224.90625 23.471874 224.85938 23.034374ZM224.76562 20.675Q224.1875 20.909374 223.04688 21.08125Q222.39062 21.175 222.125 21.3Q221.85938 21.409374 221.70312 21.628124Q221.5625 21.846874 221.5625 22.128124Q221.5625 22.55 221.875 22.83125Q222.20312 23.1125 222.8125 23.1125Q223.42188 23.1125 223.89062 22.846874Q224.375 22.58125 224.59375 22.1125Q224.76562 21.753124 224.76562 21.065624L224.76562 20.675ZM227.79688 23.8L227.79688 17.58125L228.73438 17.58125L228.73438 18.45625Q229.03125 17.9875 229.51562 17.721874Q230.0 17.440624 230.625 17.440624Q231.3125 17.440624 231.75 17.721874Q232.20312 18.003124 232.375 18.51875Q233.125 17.440624 234.29688 17.440624Q235.23438 17.440624 235.71875 17.95625Q236.21875 18.45625 236.21875 19.534374L236.21875 23.8L235.17188 23.8L235.17188 19.878124Q235.17188 19.253124 235.0625 18.971874Q234.96875 18.690624 234.70312 18.51875Q234.4375 18.346874 234.0625 18.346874Q233.40625 18.346874 232.96875 18.784374Q232.54688 19.221874 232.54688 20.190624L232.54688 23.8L231.48438 23.8L231.48438 19.753124Q231.48438 19.05 231.21875 18.70625Q230.96875 18.346874 230.39062 18.346874Q229.9375 18.346874 229.5625 18.58125Q229.1875 18.815624 229.01562 19.26875Q228.84375 19.721874 228.84375 20.565624L228.84375 23.8L227.79688 23.8ZM243.04688 21.8L244.14062 21.925Q243.89062 22.878124 243.1875 23.409374Q242.48438 23.940624 241.40625 23.940624Q240.04688 23.940624 239.23438 23.096874Q238.4375 22.253124 238.4375 20.7375Q238.4375 19.175 239.25 18.315624Q240.0625 17.440624 241.34375 17.440624Q242.59375 17.440624 243.375 18.284374Q244.17188 19.128124 244.17188 20.675Q244.17188 20.76875 244.17188 20.95625L239.53125 20.95625Q239.59375 21.9875 240.10938 22.534374Q240.625 23.065624 241.40625 23.065624Q241.98438 23.065624 242.39062 22.76875Q242.8125 22.45625 243.04688 21.8ZM239.59375 20.096874L243.0625 20.096874Q243.0 19.3 242.67188 18.909374Q242.15625 18.3 241.35938 18.3Q240.625 18.3 240.125 18.784374Q239.64062 19.26875 239.59375 20.096874ZM245.375 21.940624L246.40625 21.784374Q246.5 22.409374 246.89062 22.7375Q247.29688 23.065624 248.03125 23.065624Q248.75 23.065624 249.09375 22.784374Q249.45312 22.4875 249.45312 22.08125Q249.45312 21.721874 249.14062 21.51875Q248.92188 21.378124 248.0625 21.159374Q246.90625 20.8625 246.45312 20.659374Q246.01562 20.440624 245.78125 20.065624Q245.54688 19.690624 245.54688 19.221874Q245.54688 18.815624 245.73438 18.45625Q245.92188 18.096874 246.25 17.8625Q246.5 17.690624 246.92188 17.565624Q247.34375 17.440624 247.84375 17.440624Q248.5625 17.440624 249.10938 17.659374Q249.67188 17.8625 249.9375 18.221874Q250.20312 18.58125 250.29688 19.175L249.26562 19.315624Q249.20312 18.846874 248.85938 18.58125Q248.53125 18.3 247.90625 18.3Q247.1875 18.3 246.875 18.55Q246.5625 18.784374 246.5625 19.1125Q246.5625 19.315624 246.6875 19.471874Q246.82812 19.64375 247.09375 19.753124Q247.25 19.815624 248.03125 20.01875Q249.15625 20.33125 249.59375 20.51875Q250.03125 20.70625 250.28125 21.065624Q250.53125 21.425 250.53125 21.971874Q250.53125 22.503124 250.21875 22.971874Q249.92188 23.425 249.34375 23.690624Q248.76562 23.940624 248.03125 23.940624Q246.8125 23.940624 246.17188 23.440624Q245.54688 22.925 245.375 21.940624ZM257.04688 21.8L258.14062 21.925Q257.89062 22.878124 257.1875 23.409374Q256.48438 23.940624 255.40625 23.940624Q254.04688 23.940624 253.23438 23.096874Q252.4375 22.253124 252.4375 20.7375Q252.4375 19.175 253.25 18.315624Q254.0625 17.440624 255.34375 17.440624Q256.59375 17.440624 257.375 18.284374Q258.17188 19.128124 258.17188 20.675Q258.17188 20.76875 258.17188 20.95625L253.53125 20.95625Q253.59375 21.9875 254.10938 22.534374Q254.625 23.065624 255.40625 23.065624Q255.98438 23.065624 256.39062 22.76875Q256.8125 22.45625 257.04688 21.8ZM253.59375 20.096874L257.0625 20.096874Q257.0 19.3 256.67188 18.909374Q256.15625 18.3 255.35938 18.3Q254.625 18.3 254.125 18.784374Q253.64062 19.26875 253.59375 20.096874Z" fill-rule="nonzero"/></svg>