<svg version="1.1" viewBox="0.0 0.0 337.0 256.0" fill="none" stroke="none" stroke-linecap="square" stroke-miterlimit="10" width="337" height="256" xmlns:xlink="http://www.w3.org/1999/xlink" xmlns="http://www.w3.org/2000/svg"><path fill="#ffffff" d="M0 0L337.0 0L337.0 256.0L0 256.0L0 0Z" fill-rule="nonzero"/><path stroke="#333333" stroke-width="1.0" stroke-linecap="butt" d="M74.5 223.5L324.5 223.5" fill-rule="nonzero"/><path stroke="#cccccc" stroke-width="1.0" stroke-linecap="butt" d="M74.5 177.5L324.5 177.5" fill-rule="nonzero"/><path stroke="#cccccc" stroke-width="1.0" stroke-linecap="butt" d="M74.5 132.5L324.5 132.5" fill-rule="nonzero"/><path stroke="#cccccc" stroke-width="1.0" stroke-linecap="butt" d="M74.5 87.5L324.5 87.5" fill-rule="nonzero"/><path stroke="#cccccc" stroke-width="1.0" stroke-linecap="butt" d="M74.5 42.5L324.5 42.5" fill-rule="nonzero"/><clipPath id="id_0"><path d="M74.8 42.333332L324.2 42.333332L324.2 223.2L74.8 223.2L74.8 42.333332Z" clip-rule="nonzero"/></clipPath><path stroke="#000000" stroke-width="2.0" stroke-linecap="butt" stroke-opacity="0.0" clip-path="url(#id_0)" d="M124.0 223.0L102.0 223.0L102.0 68.0C102.0 66.89543 102.89543 66.0 104.0 66.0L122.0 66.0C123.10457 66.0 124.0 66.89543 124.0 68.0Z" fill-rule="nonzero"/><path fill="#4285f4" clip-path="url(#id_0)" d="M124.0 223.0L102.0 223.0L102.0 68.0C102.0 66.89543 102.89543 66.0 104.0 66.0L122.0 66.0C123.10457 66.0 124.0 66.89543 124.0 68.0Z" fill-rule="nonzero"/><path stroke="#000000" stroke-width="2.0" stroke-linecap="butt" stroke-opacity="0.0" clip-path="url(#id_0)" d="M199.0 223.0L177.0 223.0L177.0 70.0C177.0 68.89543 177.89543 68.0 179.0 68.0L197.0 68.0C198.10457 68.0 199.0 68.89543 199.0 70.0Z" fill-rule="nonzero"/><path fill="#4285f4" clip-path="url(#id_0)" d="M199.0 223.0L177.0 223.0L177.0 70.0C177.0 68.89543 177.89543 68.0 179.0 68.0L197.0 68.0C198.10457 68.0 199.0 68.89543 199.0 70.0Z" fill-rule="nonzero"/><path stroke="#000000" stroke-width="2.0" stroke-linecap="butt" stroke-opacity="0.0" clip-path="url(#id_0)" d="M273.0 223.0L251.0 223.0L251.0 73.0C251.0 71.89543 251.89543 71.0 253.0 71.0L271.0 71.0C272.10458 71.0 273.0 71.89543 273.0 73.0Z" fill-rule="nonzero"/><path fill="#4285f4" clip-path="url(#id_0)" d="M273.0 223.0L251.0 223.0L251.0 73.0C251.0 71.89543 251.89543 71.0 253.0 71.0L271.0 71.0C272.10458 71.0 273.0 71.89543 273.0 73.0Z" fill-rule="nonzero"/><path stroke="#000000" stroke-width="2.0" stroke-linecap="butt" stroke-opacity="0.0" clip-path="url(#id_0)" d="M148.0 223.0L126.0 223.0L126.0 57.0C126.0 55.89543 126.89543 55.0 128.0 55.0L146.0 55.0C147.10457 55.0 148.0 55.89543 148.0 57.0Z" fill-rule="nonzero"/><path fill="#ea4335" clip-path="url(#id_0)" d="M148.0 223.0L126.0 223.0L126.0 57.0C126.0 55.89543 126.89543 55.0 128.0 55.0L146.0 55.0C147.10457 55.0 148.0 55.89543 148.0 57.0Z" fill-rule="nonzero"/><path stroke="#000000" stroke-width="2.0" stroke-linecap="butt" stroke-opacity="0.0" clip-path="url(#id_0)" d="M223.0 223.0L201.0 223.0L201.0 57.0C201.0 55.89543 201.89543 55.0 203.0 55.0L221.0 55.0C222.10457 55.0 223.0 55.89543 223.0 57.0Z" fill-rule="nonzero"/><path fill="#ea4335" clip-path="url(#id_0)" d="M223.0 223.0L201.0 223.0L201.0 57.0C201.0 55.89543 201.89543 55.0 203.0 55.0L221.0 55.0C222.10457 55.0 223.0 55.89543 223.0 57.0Z" fill-rule="nonzero"/><path stroke="#000000" stroke-width="2.0" stroke-linecap="butt" stroke-opacity="0.0" clip-path="url(#id_0)" d="M297.0 223.0L275.0 223.0L275.0 59.0C275.0 57.89543 275.89542 57.0 277.0 57.0L295.0 57.0C296.10458 57.0 297.0 57.89543 297.0 59.0Z" fill-rule="nonzero"/><path fill="#ea4335" clip-path="url(#id_0)" d="M297.0 223.0L275.0 223.0L275.0 59.0C275.0 57.89543 275.89542 57.0 277.0 57.0L295.0 57.0C296.10458 57.0 297.0 57.89543 297.0 59.0Z" fill-rule="nonzero"/><path stroke="#ffffff" stroke-width="3.0" stroke-linejoin="round" stroke-linecap="round" d="M107.328125 47.31475Q107.328125 49.080376 106.59375 50.0335Q105.859375 50.971 104.453125 50.971Q103.046875 50.971 102.3125 50.049126Q101.578125 49.12725 101.5625 47.4085L101.5625 45.830376Q101.5625 44.049126 102.296875 43.12725Q103.046875 42.18975 104.4375 42.18975Q105.828125 42.18975 106.5625 43.111626Q107.3125 44.0335 107.328125 45.75225L107.328125 47.31475ZM105.625 45.596Q105.625 44.5335 105.328125 44.049126Q105.046875 43.56475 104.4375 43.56475Q103.84375 43.56475 103.546875 44.0335Q103.265625 44.486626 103.25 45.471L103.25 47.5335Q103.25 48.580376 103.53125 49.096Q103.8125 49.596 104.453125 49.596Q105.0625 49.596 105.34375 49.111626Q105.625 48.62725 105.625 47.62725L105.625 45.596ZM109.09375 52.986626L108.203125 52.517876L108.421875 52.142876Q108.8125 51.424126 108.828125 50.721L108.828125 49.4085L110.25 49.4085L110.25 50.580376Q110.234375 51.221 109.90625 51.87725Q109.59375 52.549126 109.09375 52.986626ZM117.140625 44.580376Q117.140625 45.205376 116.828125 45.68975Q116.515625 46.1585 115.96875 46.455376Q116.59375 46.75225 116.953125 47.2835Q117.328125 47.799126 117.328125 48.50225Q117.328125 49.642876 116.546875 50.31475Q115.78125 50.971 114.4375 50.971Q113.109375 50.971 112.328125 50.31475Q111.5625 49.642876 111.5625 48.50225Q111.5625 47.799126 111.921875 47.267876Q112.28125 46.736626 112.90625 46.455376Q112.359375 46.1585 112.046875 45.68975Q111.734375 45.205376 111.734375 44.580376Q111.734375 43.486626 112.453125 42.846Q113.1875 42.18975 114.4375 42.18975Q115.6875 42.18975 116.40625 42.846Q117.140625 43.486626 117.140625 44.580376ZM115.625 48.37725Q115.625 47.830376 115.296875 47.50225Q114.984375 47.1585 114.4375 47.1585Q113.890625 47.1585 113.5625 47.486626Q113.25 47.81475 113.25 48.37725Q113.25 48.924126 113.5625 49.267876Q113.890625 49.596 114.453125 49.596Q115.0 49.596 115.3125 49.2835Q115.625 48.955376 115.625 48.37725ZM115.453125 44.6585Q115.453125 44.1585 115.1875 43.861626Q114.921875 43.56475 114.4375 43.56475Q113.96875 43.56475 113.703125 43.861626Q113.4375 44.142876 113.4375 44.6585Q113.4375 45.174126 113.703125 45.486626Q113.96875 45.799126 114.4375 45.799126Q114.921875 45.799126 115.1875 45.486626Q115.453125 45.174126 115.453125 44.6585ZM124.375 43.267876L121.078125 50.846L119.296875 50.846L122.59375 43.68975L118.359375 43.68975L118.359375 42.31475L124.375 42.31475L124.375 43.267876Z" fill-rule="nonzero"/><path fill="#000000" d="M107.328125 47.31475Q107.328125 49.080376 106.59375 50.0335Q105.859375 50.971 104.453125 50.971Q103.046875 50.971 102.3125 50.049126Q101.578125 49.12725 101.5625 47.4085L101.5625 45.830376Q101.5625 44.049126 102.296875 43.12725Q103.046875 42.18975 104.4375 42.18975Q105.828125 42.18975 106.5625 43.111626Q107.3125 44.0335 107.328125 45.75225L107.328125 47.31475ZM105.625 45.596Q105.625 44.5335 105.328125 44.049126Q105.046875 43.56475 104.4375 43.56475Q103.84375 43.56475 103.546875 44.0335Q103.265625 44.486626 103.25 45.471L103.25 47.5335Q103.25 48.580376 103.53125 49.096Q103.8125 49.596 104.453125 49.596Q105.0625 49.596 105.34375 49.111626Q105.625 48.62725 105.625 47.62725L105.625 45.596ZM109.09375 52.986626L108.203125 52.517876L108.421875 52.142876Q108.8125 51.424126 108.828125 50.721L108.828125 49.4085L110.25 49.4085L110.25 50.580376Q110.234375 51.221 109.90625 51.87725Q109.59375 52.549126 109.09375 52.986626ZM117.140625 44.580376Q117.140625 45.205376 116.828125 45.68975Q116.515625 46.1585 115.96875 46.455376Q116.59375 46.75225 116.953125 47.2835Q117.328125 47.799126 117.328125 48.50225Q117.328125 49.642876 116.546875 50.31475Q115.78125 50.971 114.4375 50.971Q113.109375 50.971 112.328125 50.31475Q111.5625 49.642876 111.5625 48.50225Q111.5625 47.799126 111.921875 47.267876Q112.28125 46.736626 112.90625 46.455376Q112.359375 46.1585 112.046875 45.68975Q111.734375 45.205376 111.734375 44.580376Q111.734375 43.486626 112.453125 42.846Q113.1875 42.18975 114.4375 42.18975Q115.6875 42.18975 116.40625 42.846Q117.140625 43.486626 117.140625 44.580376ZM115.625 48.37725Q115.625 47.830376 115.296875 47.50225Q114.984375 47.1585 114.4375 47.1585Q113.890625 47.1585 113.5625 47.486626Q113.25 47.81475 113.25 48.37725Q113.25 48.924126 113.5625 49.267876Q113.890625 49.596 114.453125 49.596Q115.0 49.596 115.3125 49.2835Q115.625 48.955376 115.625 48.37725ZM115.453125 44.6585Q115.453125 44.1585 115.1875 43.861626Q114.921875 43.56475 114.4375 43.56475Q113.96875 43.56475 113.703125 43.861626Q113.4375 44.142876 113.4375 44.6585Q113.4375 45.174126 113.703125 45.486626Q113.96875 45.799126 114.4375 45.799126Q114.921875 45.799126 115.1875 45.486626Q115.453125 45.174126 115.453125 44.6585ZM124.375 43.267876L121.078125 50.846L119.296875 50.846L122.59375 43.68975L118.359375 43.68975L118.359375 42.31475L124.375 42.31475L124.375 43.267876Z" fill-rule="nonzero"/><path stroke="#ffffff" stroke-width="3.0" stroke-linejoin="round" stroke-linecap="round" d="M182.32812 49.123417Q182.32812 50.88904 181.59375 51.842167Q180.85938 52.779667 179.45312 52.779667Q178.04688 52.779667 177.3125 51.85779Q176.57812 50.935917 176.5625 49.217167L176.5625 47.63904Q176.5625 45.85779 177.29688 44.935917Q178.04688 43.998417 179.4375 43.998417Q180.82812 43.998417 181.5625 44.92029Q182.3125 45.842167 182.32812 47.560917L182.32812 49.123417ZM180.625 47.404667Q180.625 46.342167 180.32812 45.85779Q180.04688 45.373417 179.4375 45.373417Q178.84375 45.373417 178.54688 45.842167Q178.26562 46.29529 178.25 47.279667L178.25 49.342167Q178.25 50.38904 178.53125 50.904667Q178.8125 51.404667 179.45312 51.404667Q180.0625 51.404667 180.34375 50.92029Q180.625 50.435917 180.625 49.435917L180.625 47.404667ZM184.09375 54.79529L183.20312 54.32654L183.42188 53.95154Q183.8125 53.23279 183.82812 52.529667L183.82812 51.217167L185.25 51.217167L185.25 52.38904Q185.23438 53.029667 184.90625 53.685917Q184.59375 54.35779 184.09375 54.79529ZM192.14062 46.38904Q192.14062 47.01404 191.82812 47.498417Q191.51562 47.967167 190.96875 48.26404Q191.59375 48.560917 191.95312 49.092167Q192.32812 49.60779 192.32812 50.310917Q192.32812 51.45154 191.54688 52.123417Q190.78125 52.779667 189.4375 52.779667Q188.10938 52.779667 187.32812 52.123417Q186.5625 51.45154 186.5625 50.310917Q186.5625 49.60779 186.92188 49.07654Q187.28125 48.54529 187.90625 48.26404Q187.35938 47.967167 187.04688 47.498417Q186.73438 47.01404 186.73438 46.38904Q186.73438 45.29529 187.45312 44.654667Q188.1875 43.998417 189.4375 43.998417Q190.6875 43.998417 191.40625 44.654667Q192.14062 45.29529 192.14062 46.38904ZM190.625 50.185917Q190.625 49.63904 190.29688 49.310917Q189.98438 48.967167 189.4375 48.967167Q188.89062 48.967167 188.5625 49.29529Q188.25 49.623417 188.25 50.185917Q188.25 50.73279 188.5625 51.07654Q188.89062 51.404667 189.45312 51.404667Q190.0 51.404667 190.3125 51.092167Q190.625 50.76404 190.625 50.185917ZM190.45312 46.467167Q190.45312 45.967167 190.1875 45.67029Q189.92188 45.373417 189.4375 45.373417Q188.96875 45.373417 188.70312 45.67029Q188.4375 45.95154 188.4375 46.467167Q188.4375 46.98279 188.70312 47.29529Q188.96875 47.60779 189.4375 47.60779Q189.92188 47.60779 190.1875 47.29529Q190.45312 46.98279 190.45312 46.467167ZM198.17188 44.029667L198.17188 45.435917L198.01562 45.435917Q196.85938 45.45154 196.15625 46.029667Q195.46875 46.60779 195.32812 47.63904Q196.0 46.95154 197.03125 46.95154Q198.15625 46.95154 198.8125 47.748417Q199.46875 48.54529 199.46875 49.842167Q199.46875 50.67029 199.10938 51.342167Q198.75 52.01404 198.07812 52.404667Q197.42188 52.779667 196.59375 52.779667Q195.25 52.779667 194.42188 51.842167Q193.59375 50.88904 193.59375 49.32654L193.59375 48.717167Q193.59375 47.32654 194.10938 46.26404Q194.64062 45.20154 195.60938 44.623417Q196.59375 44.04529 197.89062 44.029667L198.17188 44.029667ZM196.51562 48.310917Q196.10938 48.310917 195.76562 48.529667Q195.4375 48.73279 195.28125 49.092167L195.28125 49.60779Q195.28125 50.45154 195.60938 50.935917Q195.95312 51.404667 196.5625 51.404667Q197.10938 51.404667 197.4375 50.98279Q197.78125 50.54529 197.78125 49.85779Q197.78125 49.154667 197.4375 48.73279Q197.09375 48.310917 196.51562 48.310917Z" fill-rule="nonzero"/><path fill="#000000" d="M182.32812 49.123417Q182.32812 50.88904 181.59375 51.842167Q180.85938 52.779667 179.45312 52.779667Q178.04688 52.779667 177.3125 51.85779Q176.57812 50.935917 176.5625 49.217167L176.5625 47.63904Q176.5625 45.85779 177.29688 44.935917Q178.04688 43.998417 179.4375 43.998417Q180.82812 43.998417 181.5625 44.92029Q182.3125 45.842167 182.32812 47.560917L182.32812 49.123417ZM180.625 47.404667Q180.625 46.342167 180.32812 45.85779Q180.04688 45.373417 179.4375 45.373417Q178.84375 45.373417 178.54688 45.842167Q178.26562 46.29529 178.25 47.279667L178.25 49.342167Q178.25 50.38904 178.53125 50.904667Q178.8125 51.404667 179.45312 51.404667Q180.0625 51.404667 180.34375 50.92029Q180.625 50.435917 180.625 49.435917L180.625 47.404667ZM184.09375 54.79529L183.20312 54.32654L183.42188 53.95154Q183.8125 53.23279 183.82812 52.529667L183.82812 51.217167L185.25 51.217167L185.25 52.38904Q185.23438 53.029667 184.90625 53.685917Q184.59375 54.35779 184.09375 54.79529ZM192.14062 46.38904Q192.14062 47.01404 191.82812 47.498417Q191.51562 47.967167 190.96875 48.26404Q191.59375 48.560917 191.95312 49.092167Q192.32812 49.60779 192.32812 50.310917Q192.32812 51.45154 191.54688 52.123417Q190.78125 52.779667 189.4375 52.779667Q188.10938 52.779667 187.32812 52.123417Q186.5625 51.45154 186.5625 50.310917Q186.5625 49.60779 186.92188 49.07654Q187.28125 48.54529 187.90625 48.26404Q187.35938 47.967167 187.04688 47.498417Q186.73438 47.01404 186.73438 46.38904Q186.73438 45.29529 187.45312 44.654667Q188.1875 43.998417 189.4375 43.998417Q190.6875 43.998417 191.40625 44.654667Q192.14062 45.29529 192.14062 46.38904ZM190.625 50.185917Q190.625 49.63904 190.29688 49.310917Q189.98438 48.967167 189.4375 48.967167Q188.89062 48.967167 188.5625 49.29529Q188.25 49.623417 188.25 50.185917Q188.25 50.73279 188.5625 51.07654Q188.89062 51.404667 189.45312 51.404667Q190.0 51.404667 190.3125 51.092167Q190.625 50.76404 190.625 50.185917ZM190.45312 46.467167Q190.45312 45.967167 190.1875 45.67029Q189.92188 45.373417 189.4375 45.373417Q188.96875 45.373417 188.70312 45.67029Q188.4375 45.95154 188.4375 46.467167Q188.4375 46.98279 188.70312 47.29529Q188.96875 47.60779 189.4375 47.60779Q189.92188 47.60779 190.1875 47.29529Q190.45312 46.98279 190.45312 46.467167ZM198.17188 44.029667L198.17188 45.435917L198.01562 45.435917Q196.85938 45.45154 196.15625 46.029667Q195.46875 46.60779 195.32812 47.63904Q196.0 46.95154 197.03125 46.95154Q198.15625 46.95154 198.8125 47.748417Q199.46875 48.54529 199.46875 49.842167Q199.46875 50.67029 199.10938 51.342167Q198.75 52.01404 198.07812 52.404667Q197.42188 52.779667 196.59375 52.779667Q195.25 52.779667 194.42188 51.842167Q193.59375 50.88904 193.59375 49.32654L193.59375 48.717167Q193.59375 47.32654 194.10938 46.26404Q194.64062 45.20154 195.60938 44.623417Q196.59375 44.04529 197.89062 44.029667L198.17188 44.029667ZM196.51562 48.310917Q196.10938 48.310917 195.76562 48.529667Q195.4375 48.73279 195.28125 49.092167L195.28125 49.60779Q195.28125 50.45154 195.60938 50.935917Q195.95312 51.404667 196.5625 51.404667Q197.10938 51.404667 197.4375 50.98279Q197.78125 50.54529 197.78125 49.85779Q197.78125 49.154667 197.4375 48.73279Q197.09375 48.310917 196.51562 48.310917Z" fill-rule="nonzero"/><path stroke="#ffffff" stroke-width="3.0" stroke-linejoin="round" stroke-linecap="round" d="M256.32812 52.74075Q256.32812 54.506374 255.59375 55.4595Q254.85938 56.397 253.45312 56.397Q252.04688 56.397 251.3125 55.475124Q250.57812 54.55325 250.5625 52.8345L250.5625 51.256374Q250.5625 49.475124 251.29688 48.55325Q252.04688 47.61575 253.4375 47.61575Q254.82812 47.61575 255.5625 48.537624Q256.3125 49.4595 256.32812 51.17825L256.32812 52.74075ZM254.625 51.022Q254.625 49.9595 254.32812 49.475124Q254.04688 48.99075 253.4375 48.99075Q252.84375 48.99075 252.54688 49.4595Q252.26562 49.912624 252.25 50.897L252.25 52.9595Q252.25 54.006374 252.53125 54.522Q252.8125 55.022 253.45312 55.022Q254.0625 55.022 254.34375 54.537624Q254.625 54.05325 254.625 53.05325L254.625 51.022ZM258.09375 58.412624L257.20312 57.943874L257.42188 57.568874Q257.8125 56.850124 257.82812 56.147L257.82812 54.8345L259.25 54.8345L259.25 56.006374Q259.23438 56.647 258.90625 57.30325Q258.59375 57.975124 258.09375 58.412624ZM266.14062 50.006374Q266.14062 50.631374 265.82812 51.11575Q265.51562 51.5845 264.96875 51.881374Q265.59375 52.17825 265.95312 52.7095Q266.32812 53.225124 266.32812 53.92825Q266.32812 55.068874 265.54688 55.74075Q264.78125 56.397 263.4375 56.397Q262.10938 56.397 261.32812 55.74075Q260.5625 55.068874 260.5625 53.92825Q260.5625 53.225124 260.92188 52.693874Q261.28125 52.162624 261.90625 51.881374Q261.35938 51.5845 261.04688 51.11575Q260.73438 50.631374 260.73438 50.006374Q260.73438 48.912624 261.45312 48.272Q262.1875 47.61575 263.4375 47.61575Q264.6875 47.61575 265.40625 48.272Q266.14062 48.912624 266.14062 50.006374ZM264.625 53.80325Q264.625 53.256374 264.29688 52.92825Q263.98438 52.5845 263.4375 52.5845Q262.89062 52.5845 262.5625 52.912624Q262.25 53.24075 262.25 53.80325Q262.25 54.350124 262.5625 54.693874Q262.89062 55.022 263.45312 55.022Q264.0 55.022 264.3125 54.7095Q264.625 54.381374 264.625 53.80325ZM264.45312 50.0845Q264.45312 49.5845 264.1875 49.287624Q263.92188 48.99075 263.4375 48.99075Q262.96875 48.99075 262.70312 49.287624Q262.4375 49.568874 262.4375 50.0845Q262.4375 50.600124 262.70312 50.912624Q262.96875 51.225124 263.4375 51.225124Q263.92188 51.225124 264.1875 50.912624Q264.45312 50.600124 264.45312 50.0845ZM272.59375 53.05325L273.5625 53.05325L273.5625 54.42825L272.59375 54.42825L272.59375 56.272L270.89062 56.272L270.89062 54.42825L267.40625 54.42825L267.32812 53.36575L270.875 47.74075L272.59375 47.74075L272.59375 53.05325ZM269.01562 53.05325L270.89062 53.05325L270.89062 50.05325L270.78125 50.24075L269.01562 53.05325Z" fill-rule="nonzero"/><path fill="#000000" d="M256.32812 52.74075Q256.32812 54.506374 255.59375 55.4595Q254.85938 56.397 253.45312 56.397Q252.04688 56.397 251.3125 55.475124Q250.57812 54.55325 250.5625 52.8345L250.5625 51.256374Q250.5625 49.475124 251.29688 48.55325Q252.04688 47.61575 253.4375 47.61575Q254.82812 47.61575 255.5625 48.537624Q256.3125 49.4595 256.32812 51.17825L256.32812 52.74075ZM254.625 51.022Q254.625 49.9595 254.32812 49.475124Q254.04688 48.99075 253.4375 48.99075Q252.84375 48.99075 252.54688 49.4595Q252.26562 49.912624 252.25 50.897L252.25 52.9595Q252.25 54.006374 252.53125 54.522Q252.8125 55.022 253.45312 55.022Q254.0625 55.022 254.34375 54.537624Q254.625 54.05325 254.625 53.05325L254.625 51.022ZM258.09375 58.412624L257.20312 57.943874L257.42188 57.568874Q257.8125 56.850124 257.82812 56.147L257.82812 54.8345L259.25 54.8345L259.25 56.006374Q259.23438 56.647 258.90625 57.30325Q258.59375 57.975124 258.09375 58.412624ZM266.14062 50.006374Q266.14062 50.631374 265.82812 51.11575Q265.51562 51.5845 264.96875 51.881374Q265.59375 52.17825 265.95312 52.7095Q266.32812 53.225124 266.32812 53.92825Q266.32812 55.068874 265.54688 55.74075Q264.78125 56.397 263.4375 56.397Q262.10938 56.397 261.32812 55.74075Q260.5625 55.068874 260.5625 53.92825Q260.5625 53.225124 260.92188 52.693874Q261.28125 52.162624 261.90625 51.881374Q261.35938 51.5845 261.04688 51.11575Q260.73438 50.631374 260.73438 50.006374Q260.73438 48.912624 261.45312 48.272Q262.1875 47.61575 263.4375 47.61575Q264.6875 47.61575 265.40625 48.272Q266.14062 48.912624 266.14062 50.006374ZM264.625 53.80325Q264.625 53.256374 264.29688 52.92825Q263.98438 52.5845 263.4375 52.5845Q262.89062 52.5845 262.5625 52.912624Q262.25 53.24075 262.25 53.80325Q262.25 54.350124 262.5625 54.693874Q262.89062 55.022 263.45312 55.022Q264.0 55.022 264.3125 54.7095Q264.625 54.381374 264.625 53.80325ZM264.45312 50.0845Q264.45312 49.5845 264.1875 49.287624Q263.92188 48.99075 263.4375 48.99075Q262.96875 48.99075 262.70312 49.287624Q262.4375 49.568874 262.4375 50.0845Q262.4375 50.600124 262.70312 50.912624Q262.96875 51.225124 263.4375 51.225124Q263.92188 51.225124 264.1875 50.912624Q264.45312 50.600124 264.45312 50.0845ZM272.59375 53.05325L273.5625 53.05325L273.5625 54.42825L272.59375 54.42825L272.59375 56.272L270.89062 56.272L270.89062 54.42825L267.40625 54.42825L267.32812 53.36575L270.875 47.74075L272.59375 47.74075L272.59375 53.05325ZM269.01562 53.05325L270.89062 53.05325L270.89062 50.05325L270.78125 50.24075L269.01562 53.05325Z" fill-rule="nonzero"/><path stroke="#ffffff" stroke-width="3.0" stroke-linejoin="round" stroke-linecap="round" d="M131.32812 36.46275Q131.32812 38.228374 130.59375 39.1815Q129.85938 40.119 128.45312 40.119Q127.046875 40.119 126.3125 39.197124Q125.578125 38.27525 125.5625 36.5565L125.5625 34.978374Q125.5625 33.197124 126.296875 32.27525Q127.046875 31.33775 128.4375 31.33775Q129.82812 31.33775 130.5625 32.259624Q131.3125 33.1815 131.32812 34.90025L131.32812 36.46275ZM129.625 34.744Q129.625 33.6815 129.32812 33.197124Q129.04688 32.71275 128.4375 32.71275Q127.84375 32.71275 127.546875 33.1815Q127.265625 33.634624 127.25 34.619L127.25 36.6815Q127.25 37.728374 127.53125 38.244Q127.8125 38.744 128.45312 38.744Q129.0625 38.744 129.34375 38.259624Q129.625 37.77525 129.625 36.77525L129.625 34.744ZM133.09375 42.134624L132.20312 41.665874L132.42188 41.290874Q132.8125 40.572124 132.82812 39.869L132.82812 38.5565L134.25 38.5565L134.25 39.728374Q134.23438 40.369 133.90625 41.02525Q133.59375 41.697124 133.09375 42.134624ZM139.54688 36.58775Q138.875 37.228374 138.0 37.228374Q136.85938 37.228374 136.17188 36.46275Q135.5 35.6815 135.5 34.369Q135.5 33.52525 135.85938 32.822124Q136.23438 32.119 136.89062 31.728374Q137.54688 31.33775 138.375 31.33775Q139.21875 31.33775 139.875 31.759624Q140.53125 32.1815 140.89062 32.978374Q141.25 33.77525 141.26562 34.790874L141.26562 35.415874Q141.26562 37.5565 140.20312 38.77525Q139.14062 39.994 137.1875 40.072124L136.78125 40.072124L136.78125 38.665874L137.15625 38.65025Q139.35938 38.5565 139.54688 36.58775ZM138.40625 35.9315Q138.82812 35.9315 139.10938 35.728374Q139.40625 35.509624 139.5625 35.21275L139.5625 34.52525Q139.5625 33.665874 139.23438 33.197124Q138.90625 32.71275 138.35938 32.71275Q137.84375 32.71275 137.51562 33.1815Q137.1875 33.634624 137.1875 34.33775Q137.1875 35.040874 137.5 35.494Q137.82812 35.9315 138.40625 35.9315ZM144.29688 34.978374L145.20312 34.978374Q145.84375 34.978374 146.15625 34.665874Q146.46875 34.33775 146.46875 33.8065Q146.46875 33.290874 146.15625 33.009624Q145.85938 32.71275 145.3125 32.71275Q144.82812 32.71275 144.5 32.978374Q144.17188 33.244 144.17188 33.665874L142.48438 33.665874Q142.48438 33.009624 142.84375 32.478374Q143.20312 31.947124 143.84375 31.65025Q144.5 31.33775 145.28125 31.33775Q146.625 31.33775 147.39062 31.994Q148.17188 32.634624 148.17188 33.77525Q148.17188 34.369 147.8125 34.869Q147.45312 35.353374 146.875 35.603374Q147.59375 35.869 147.9375 36.384624Q148.29688 36.90025 148.29688 37.603374Q148.29688 38.744 147.46875 39.4315Q146.64062 40.119 145.28125 40.119Q144.0 40.119 143.1875 39.447124Q142.375 38.759624 142.375 37.65025L144.0625 37.65025Q144.0625 38.134624 144.42188 38.447124Q144.79688 38.744 145.3125 38.744Q145.92188 38.744 146.26562 38.4315Q146.60938 38.103374 146.60938 37.572124Q146.60938 36.3065 145.20312 36.3065L144.29688 36.3065L144.29688 34.978374Z" fill-rule="nonzero"/><path fill="#000000" d="M131.32812 36.46275Q131.32812 38.228374 130.59375 39.1815Q129.85938 40.119 128.45312 40.119Q127.046875 40.119 126.3125 39.197124Q125.578125 38.27525 125.5625 36.5565L125.5625 34.978374Q125.5625 33.197124 126.296875 32.27525Q127.046875 31.33775 128.4375 31.33775Q129.82812 31.33775 130.5625 32.259624Q131.3125 33.1815 131.32812 34.90025L131.32812 36.46275ZM129.625 34.744Q129.625 33.6815 129.32812 33.197124Q129.04688 32.71275 128.4375 32.71275Q127.84375 32.71275 127.546875 33.1815Q127.265625 33.634624 127.25 34.619L127.25 36.6815Q127.25 37.728374 127.53125 38.244Q127.8125 38.744 128.45312 38.744Q129.0625 38.744 129.34375 38.259624Q129.625 37.77525 129.625 36.77525L129.625 34.744ZM133.09375 42.134624L132.20312 41.665874L132.42188 41.290874Q132.8125 40.572124 132.82812 39.869L132.82812 38.5565L134.25 38.5565L134.25 39.728374Q134.23438 40.369 133.90625 41.02525Q133.59375 41.697124 133.09375 42.134624ZM139.54688 36.58775Q138.875 37.228374 138.0 37.228374Q136.85938 37.228374 136.17188 36.46275Q135.5 35.6815 135.5 34.369Q135.5 33.52525 135.85938 32.822124Q136.23438 32.119 136.89062 31.728374Q137.54688 31.33775 138.375 31.33775Q139.21875 31.33775 139.875 31.759624Q140.53125 32.1815 140.89062 32.978374Q141.25 33.77525 141.26562 34.790874L141.26562 35.415874Q141.26562 37.5565 140.20312 38.77525Q139.14062 39.994 137.1875 40.072124L136.78125 40.072124L136.78125 38.665874L137.15625 38.65025Q139.35938 38.5565 139.54688 36.58775ZM138.40625 35.9315Q138.82812 35.9315 139.10938 35.728374Q139.40625 35.509624 139.5625 35.21275L139.5625 34.52525Q139.5625 33.665874 139.23438 33.197124Q138.90625 32.71275 138.35938 32.71275Q137.84375 32.71275 137.51562 33.1815Q137.1875 33.634624 137.1875 34.33775Q137.1875 35.040874 137.5 35.494Q137.82812 35.9315 138.40625 35.9315ZM144.29688 34.978374L145.20312 34.978374Q145.84375 34.978374 146.15625 34.665874Q146.46875 34.33775 146.46875 33.8065Q146.46875 33.290874 146.15625 33.009624Q145.85938 32.71275 145.3125 32.71275Q144.82812 32.71275 144.5 32.978374Q144.17188 33.244 144.17188 33.665874L142.48438 33.665874Q142.48438 33.009624 142.84375 32.478374Q143.20312 31.947124 143.84375 31.65025Q144.5 31.33775 145.28125 31.33775Q146.625 31.33775 147.39062 31.994Q148.17188 32.634624 148.17188 33.77525Q148.17188 34.369 147.8125 34.869Q147.45312 35.353374 146.875 35.603374Q147.59375 35.869 147.9375 36.384624Q148.29688 36.90025 148.29688 37.603374Q148.29688 38.744 147.46875 39.4315Q146.64062 40.119 145.28125 40.119Q144.0 40.119 143.1875 39.447124Q142.375 38.759624 142.375 37.65025L144.0625 37.65025Q144.0625 38.134624 144.42188 38.447124Q144.79688 38.744 145.3125 38.744Q145.92188 38.744 146.26562 38.4315Q146.60938 38.103374 146.60938 37.572124Q146.60938 36.3065 145.20312 36.3065L144.29688 36.3065L144.29688 34.978374Z" fill-rule="nonzero"/><path stroke="#ffffff" stroke-width="3.0" stroke-linejoin="round" stroke-linecap="round" d="M206.32812 36.46275Q206.32812 38.228374 205.59375 39.1815Q204.85938 40.119 203.45312 40.119Q202.04688 40.119 201.3125 39.197124Q200.57812 38.27525 200.5625 36.5565L200.5625 34.978374Q200.5625 33.197124 201.29688 32.27525Q202.04688 31.33775 203.4375 31.33775Q204.82812 31.33775 205.5625 32.259624Q206.3125 33.1815 206.32812 34.90025L206.32812 36.46275ZM204.625 34.744Q204.625 33.6815 204.32812 33.197124Q204.04688 32.71275 203.4375 32.71275Q202.84375 32.71275 202.54688 33.1815Q202.26562 33.634624 202.25 34.619L202.25 36.6815Q202.25 37.728374 202.53125 38.244Q202.8125 38.744 203.45312 38.744Q204.0625 38.744 204.34375 38.259624Q204.625 37.77525 204.625 36.77525L204.625 34.744ZM208.09375 42.134624L207.20312 41.665874L207.42188 41.290874Q207.8125 40.572124 207.82812 39.869L207.82812 38.5565L209.25 38.5565L209.25 39.728374Q209.23438 40.369 208.90625 41.02525Q208.59375 41.697124 208.09375 42.134624ZM214.54688 36.58775Q213.875 37.228374 213.0 37.228374Q211.85938 37.228374 211.17188 36.46275Q210.5 35.6815 210.5 34.369Q210.5 33.52525 210.85938 32.822124Q211.23438 32.119 211.89062 31.728374Q212.54688 31.33775 213.375 31.33775Q214.21875 31.33775 214.875 31.759624Q215.53125 32.1815 215.89062 32.978374Q216.25 33.77525 216.26562 34.790874L216.26562 35.415874Q216.26562 37.5565 215.20312 38.77525Q214.14062 39.994 212.1875 40.072124L211.78125 40.072124L211.78125 38.665874L212.15625 38.65025Q214.35938 38.5565 214.54688 36.58775ZM213.40625 35.9315Q213.82812 35.9315 214.10938 35.728374Q214.40625 35.509624 214.5625 35.21275L214.5625 34.52525Q214.5625 33.665874 214.23438 33.197124Q213.90625 32.71275 213.35938 32.71275Q212.84375 32.71275 212.51562 33.1815Q212.1875 33.634624 212.1875 34.33775Q212.1875 35.040874 212.5 35.494Q212.82812 35.9315 213.40625 35.9315ZM219.29688 34.978374L220.20312 34.978374Q220.84375 34.978374 221.15625 34.665874Q221.46875 34.33775 221.46875 33.8065Q221.46875 33.290874 221.15625 33.009624Q220.85938 32.71275 220.3125 32.71275Q219.82812 32.71275 219.5 32.978374Q219.17188 33.244 219.17188 33.665874L217.48438 33.665874Q217.48438 33.009624 217.84375 32.478374Q218.20312 31.947124 218.84375 31.65025Q219.5 31.33775 220.28125 31.33775Q221.625 31.33775 222.39062 31.994Q223.17188 32.634624 223.17188 33.77525Q223.17188 34.369 222.8125 34.869Q222.45312 35.353374 221.875 35.603374Q222.59375 35.869 222.9375 36.384624Q223.29688 36.90025 223.29688 37.603374Q223.29688 38.744 222.46875 39.4315Q221.64062 40.119 220.28125 40.119Q219.0 40.119 218.1875 39.447124Q217.375 38.759624 217.375 37.65025L219.0625 37.65025Q219.0625 38.134624 219.42188 38.447124Q219.79688 38.744 220.3125 38.744Q220.92188 38.744 221.26562 38.4315Q221.60938 38.103374 221.60938 37.572124Q221.60938 36.3065 220.20312 36.3065L219.29688 36.3065L219.29688 34.978374Z" fill-rule="nonzero"/><path fill="#000000" d="M206.32812 36.46275Q206.32812 38.228374 205.59375 39.1815Q204.85938 40.119 203.45312 40.119Q202.04688 40.119 201.3125 39.197124Q200.57812 38.27525 200.5625 36.5565L200.5625 34.978374Q200.5625 33.197124 201.29688 32.27525Q202.04688 31.33775 203.4375 31.33775Q204.82812 31.33775 205.5625 32.259624Q206.3125 33.1815 206.32812 34.90025L206.32812 36.46275ZM204.625 34.744Q204.625 33.6815 204.32812 33.197124Q204.04688 32.71275 203.4375 32.71275Q202.84375 32.71275 202.54688 33.1815Q202.26562 33.634624 202.25 34.619L202.25 36.6815Q202.25 37.728374 202.53125 38.244Q202.8125 38.744 203.45312 38.744Q204.0625 38.744 204.34375 38.259624Q204.625 37.77525 204.625 36.77525L204.625 34.744ZM208.09375 42.134624L207.20312 41.665874L207.42188 41.290874Q207.8125 40.572124 207.82812 39.869L207.82812 38.5565L209.25 38.5565L209.25 39.728374Q209.23438 40.369 208.90625 41.02525Q208.59375 41.697124 208.09375 42.134624ZM214.54688 36.58775Q213.875 37.228374 213.0 37.228374Q211.85938 37.228374 211.17188 36.46275Q210.5 35.6815 210.5 34.369Q210.5 33.52525 210.85938 32.822124Q211.23438 32.119 211.89062 31.728374Q212.54688 31.33775 213.375 31.33775Q214.21875 31.33775 214.875 31.759624Q215.53125 32.1815 215.89062 32.978374Q216.25 33.77525 216.26562 34.790874L216.26562 35.415874Q216.26562 37.5565 215.20312 38.77525Q214.14062 39.994 212.1875 40.072124L211.78125 40.072124L211.78125 38.665874L212.15625 38.65025Q214.35938 38.5565 214.54688 36.58775ZM213.40625 35.9315Q213.82812 35.9315 214.10938 35.728374Q214.40625 35.509624 214.5625 35.21275L214.5625 34.52525Q214.5625 33.665874 214.23438 33.197124Q213.90625 32.71275 213.35938 32.71275Q212.84375 32.71275 212.51562 33.1815Q212.1875 33.634624 212.1875 34.33775Q212.1875 35.040874 212.5 35.494Q212.82812 35.9315 213.40625 35.9315ZM219.29688 34.978374L220.20312 34.978374Q220.84375 34.978374 221.15625 34.665874Q221.46875 34.33775 221.46875 33.8065Q221.46875 33.290874 221.15625 33.009624Q220.85938 32.71275 220.3125 32.71275Q219.82812 32.71275 219.5 32.978374Q219.17188 33.244 219.17188 33.665874L217.48438 33.665874Q217.48438 33.009624 217.84375 32.478374Q218.20312 31.947124 218.84375 31.65025Q219.5 31.33775 220.28125 31.33775Q221.625 31.33775 222.39062 31.994Q223.17188 32.634624 223.17188 33.77525Q223.17188 34.369 222.8125 34.869Q222.45312 35.353374 221.875 35.603374Q222.59375 35.869 222.9375 36.384624Q223.29688 36.90025 223.29688 37.603374Q223.29688 38.744 222.46875 39.4315Q221.64062 40.119 220.28125 40.119Q219.0 40.119 218.1875 39.447124Q217.375 38.759624 217.375 37.65025L219.0625 37.65025Q219.0625 38.134624 219.42188 38.447124Q219.79688 38.744 220.3125 38.744Q220.92188 38.744 221.26562 38.4315Q221.60938 38.103374 221.60938 37.572124Q221.60938 36.3065 220.20312 36.3065L219.29688 36.3065L219.29688 34.978374Z" fill-rule="nonzero"/><path stroke="#ffffff" stroke-width="3.0" stroke-linejoin="round" stroke-linecap="round" d="M280.32812 38.271416Q280.32812 40.03704 279.59375 40.990166Q278.85938 41.927666 277.45312 41.927666Q276.04688 41.927666 275.3125 41.00579Q274.57812 40.083916 274.5625 38.365166L274.5625 36.78704Q274.5625 35.00579 275.29688 34.083916Q276.04688 33.146416 277.4375 33.146416Q278.82812 33.146416 279.5625 34.06829Q280.3125 34.990166 280.32812 36.708916L280.32812 38.271416ZM278.625 36.552666Q278.625 35.490166 278.32812 35.00579Q278.04688 34.521416 277.4375 34.521416Q276.84375 34.521416 276.54688 34.990166Q276.26562 35.44329 276.25 36.427666L276.25 38.490166Q276.25 39.53704 276.53125 40.052666Q276.8125 40.552666 277.45312 40.552666Q278.0625 40.552666 278.34375 40.06829Q278.625 39.583916 278.625 38.583916L278.625 36.552666ZM282.09375 43.94329L281.20312 43.47454L281.42188 43.09954Q281.8125 42.38079 281.82812 41.677666L281.82812 40.365166L283.25 40.365166L283.25 41.53704Q283.23438 42.177666 282.90625 42.833916Q282.59375 43.50579 282.09375 43.94329ZM288.54688 38.396416Q287.875 39.03704 287.0 39.03704Q285.85938 39.03704 285.17188 38.271416Q284.5 37.490166 284.5 36.177666Q284.5 35.333916 284.85938 34.63079Q285.23438 33.927666 285.89062 33.53704Q286.54688 33.146416 287.375 33.146416Q288.21875 33.146416 288.875 33.56829Q289.53125 33.990166 289.89062 34.78704Q290.25 35.583916 290.26562 36.59954L290.26562 37.22454Q290.26562 39.365166 289.20312 40.583916Q288.14062 41.802666 286.1875 41.88079L285.78125 41.88079L285.78125 40.47454L286.15625 40.458916Q288.35938 40.365166 288.54688 38.396416ZM287.40625 37.740166Q287.82812 37.740166 288.10938 37.53704Q288.40625 37.31829 288.5625 37.021416L288.5625 36.333916Q288.5625 35.47454 288.23438 35.00579Q287.90625 34.521416 287.35938 34.521416Q286.84375 34.521416 286.51562 34.990166Q286.1875 35.44329 286.1875 36.146416Q286.1875 36.84954 286.5 37.302666Q286.82812 37.740166 287.40625 37.740166ZM297.42188 41.802666L291.57812 41.802666L291.57812 40.646416L294.34375 37.69329Q294.90625 37.083916 295.17188 36.615166Q295.45312 36.146416 295.45312 35.740166Q295.45312 35.16204 295.15625 34.84954Q294.875 34.521416 294.34375 34.521416Q293.76562 34.521416 293.4375 34.91204Q293.10938 35.302666 293.10938 35.958916L291.40625 35.958916Q291.40625 35.177666 291.78125 34.53704Q292.15625 33.88079 292.82812 33.521416Q293.51562 33.146416 294.375 33.146416Q295.6875 33.146416 296.42188 33.78704Q297.15625 34.41204 297.15625 35.56829Q297.15625 36.208916 296.82812 36.865166Q296.5 37.521416 295.70312 38.396416L293.76562 40.44329L297.42188 40.44329L297.42188 41.802666Z" fill-rule="nonzero"/><path fill="#000000" d="M280.32812 38.271416Q280.32812 40.03704 279.59375 40.990166Q278.85938 41.927666 277.45312 41.927666Q276.04688 41.927666 275.3125 41.00579Q274.57812 40.083916 274.5625 38.365166L274.5625 36.78704Q274.5625 35.00579 275.29688 34.083916Q276.04688 33.146416 277.4375 33.146416Q278.82812 33.146416 279.5625 34.06829Q280.3125 34.990166 280.32812 36.708916L280.32812 38.271416ZM278.625 36.552666Q278.625 35.490166 278.32812 35.00579Q278.04688 34.521416 277.4375 34.521416Q276.84375 34.521416 276.54688 34.990166Q276.26562 35.44329 276.25 36.427666L276.25 38.490166Q276.25 39.53704 276.53125 40.052666Q276.8125 40.552666 277.45312 40.552666Q278.0625 40.552666 278.34375 40.06829Q278.625 39.583916 278.625 38.583916L278.625 36.552666ZM282.09375 43.94329L281.20312 43.47454L281.42188 43.09954Q281.8125 42.38079 281.82812 41.677666L281.82812 40.365166L283.25 40.365166L283.25 41.53704Q283.23438 42.177666 282.90625 42.833916Q282.59375 43.50579 282.09375 43.94329ZM288.54688 38.396416Q287.875 39.03704 287.0 39.03704Q285.85938 39.03704 285.17188 38.271416Q284.5 37.490166 284.5 36.177666Q284.5 35.333916 284.85938 34.63079Q285.23438 33.927666 285.89062 33.53704Q286.54688 33.146416 287.375 33.146416Q288.21875 33.146416 288.875 33.56829Q289.53125 33.990166 289.89062 34.78704Q290.25 35.583916 290.26562 36.59954L290.26562 37.22454Q290.26562 39.365166 289.20312 40.583916Q288.14062 41.802666 286.1875 41.88079L285.78125 41.88079L285.78125 40.47454L286.15625 40.458916Q288.35938 40.365166 288.54688 38.396416ZM287.40625 37.740166Q287.82812 37.740166 288.10938 37.53704Q288.40625 37.31829 288.5625 37.021416L288.5625 36.333916Q288.5625 35.47454 288.23438 35.00579Q287.90625 34.521416 287.35938 34.521416Q286.84375 34.521416 286.51562 34.990166Q286.1875 35.44329 286.1875 36.146416Q286.1875 36.84954 286.5 37.302666Q286.82812 37.740166 287.40625 37.740166ZM297.42188 41.802666L291.57812 41.802666L291.57812 40.646416L294.34375 37.69329Q294.90625 37.083916 295.17188 36.615166Q295.45312 36.146416 295.45312 35.740166Q295.45312 35.16204 295.15625 34.84954Q294.875 34.521416 294.34375 34.521416Q293.76562 34.521416 293.4375 34.91204Q293.10938 35.302666 293.10938 35.958916L291.40625 35.958916Q291.40625 35.177666 291.78125 34.53704Q292.15625 33.88079 292.82812 33.521416Q293.51562 33.146416 294.375 33.146416Q295.6875 33.146416 296.42188 33.78704Q297.15625 34.41204 297.15625 35.56829Q297.15625 36.208916 296.82812 36.865166Q296.5 37.521416 295.70312 38.396416L293.76562 40.44329L297.42188 40.44329L297.42188 41.802666Z" fill-rule="nonzero"/><path fill="#000000" d="M17.331247 143.25104Q16.174997 143.25104 15.628122 142.75104Q15.065622 142.23541 15.065622 141.36041Q15.065622 140.46979 15.628122 139.96979Q16.174997 139.45416 17.331247 139.45416Q18.487497 139.45416 19.049997 139.96979Q19.596872 140.46979 19.596872 141.32916Q19.596872 142.23541 19.049997 142.75104Q18.487497 143.25104 17.331247 143.25104ZM17.315622 141.95416Q18.159372 141.95416 18.440622 141.76666Q18.659372 141.62604 18.659372 141.36041Q18.659372 141.09479 18.440622 140.95416Q18.159372 140.76666 17.315622 140.76666Q16.487497 140.76666 16.206247 140.95416Q15.987497 141.09479 15.987497 141.36041Q15.987497 141.62604 16.190622 141.76666Q16.487497 141.95416 17.315622 141.95416ZM24.128122 140.11041L24.128122 141.32916L15.065622 136.75104L15.065622 135.56354L24.128122 140.11041ZM21.878122 137.45416Q20.721872 137.45416 20.159372 136.95416Q19.596872 136.43854 19.596872 135.56354Q19.596872 134.67291 20.159372 134.17291Q20.721872 133.65729 21.878122 133.65729Q23.034372 133.65729 23.596872 134.17291Q24.143747 134.67291 24.143747 135.53229Q24.143747 136.43854 23.596872 136.95416Q23.034372 137.45416 21.878122 137.45416ZM21.862497 136.17291Q22.706247 136.17291 22.987497 135.96979Q23.206247 135.82916 23.206247 135.56354Q23.206247 135.29791 22.987497 135.15729Q22.706247 134.96979 21.862497 134.96979Q21.034372 134.96979 20.737497 135.15729Q20.534372 135.29791 20.534372 135.56354Q20.534372 135.82916 20.737497 135.96979Q21.034372 136.17291 21.862497 136.17291Z" fill-rule="nonzero"/><path fill="#000000" d="M45.3 222.96562Q45.3 221.43437 45.6125 220.5125Q45.925 219.575 46.534374 219.075Q47.159374 218.575 48.096874 218.575Q48.784374 218.575 49.3 218.85625Q49.83125 219.1375 50.175 219.66875Q50.51875 220.18437 50.70625 220.93437Q50.89375 221.68437 50.89375 222.96562Q50.89375 224.48125 50.58125 225.40312Q50.284374 226.325 49.659374 226.84062Q49.05 227.34062 48.096874 227.34062Q46.8625 227.34062 46.14375 226.45Q45.3 225.3875 45.3 222.96562ZM46.378124 222.96562Q46.378124 225.075 46.878124 225.77812Q47.378124 226.48125 48.096874 226.48125Q48.83125 226.48125 49.315624 225.77812Q49.815624 225.075 49.815624 222.96562Q49.815624 220.84062 49.315624 220.15312Q48.83125 219.45 48.08125 219.45Q47.3625 219.45 46.925 220.05937Q46.378124 220.84062 46.378124 222.96562ZM52.8625 227.2L52.8625 225.99687L54.065624 225.99687L54.065624 227.2Q54.065624 227.85625 53.83125 228.2625Q53.596874 228.68437 53.096874 228.90312L52.8 228.45Q53.128124 228.30937 53.284374 228.0125Q53.440624 227.73125 53.471874 227.2L52.8625 227.2ZM55.3 222.96562Q55.3 221.43437 55.6125 220.5125Q55.925 219.575 56.534374 219.075Q57.159374 218.575 58.096874 218.575Q58.784374 218.575 59.3 218.85625Q59.83125 219.1375 60.175 219.66875Q60.51875 220.18437 60.70625 220.93437Q60.89375 221.68437 60.89375 222.96562Q60.89375 224.48125 60.58125 225.40312Q60.284374 226.325 59.659374 226.84062Q59.05 227.34062 58.096874 227.34062Q56.8625 227.34062 56.14375 226.45Q55.3 225.3875 55.3 222.96562ZM56.378124 222.96562Q56.378124 225.075 56.878124 225.77812Q57.378124 226.48125 58.096874 226.48125Q58.83125 226.48125 59.315624 225.77812Q59.815624 225.075 59.815624 222.96562Q59.815624 220.84062 59.315624 220.15312Q58.83125 219.45 58.08125 219.45Q57.3625 219.45 56.925 220.05937Q56.378124 220.84062 56.378124 222.96562ZM62.3 222.96562Q62.3 221.43437 62.6125 220.5125Q62.925 219.575 63.534374 219.075Q64.15938 218.575 65.09688 218.575Q65.78438 218.575 66.3 218.85625Q66.83125 219.1375 67.175 219.66875Q67.51875 220.18437 67.70625 220.93437Q67.89375 221.68437 67.89375 222.96562Q67.89375 224.48125 67.58125 225.40312Q67.28438 226.325 66.65938 226.84062Q66.05 227.34062 65.09688 227.34062Q63.8625 227.34062 63.14375 226.45Q62.3 225.3875 62.3 222.96562ZM63.378124 222.96562Q63.378124 225.075 63.878124 225.77812Q64.37813 226.48125 65.09688 226.48125Q65.83125 226.48125 66.31563 225.77812Q66.81563 225.075 66.81563 222.96562Q66.81563 220.84062 66.31563 220.15312Q65.83125 219.45 65.08125 219.45Q64.3625 219.45 63.925 220.05937Q63.378124 220.84062 63.378124 222.96562Z" fill-rule="nonzero"/><path fill="#000000" d="M45.3 177.74896Q45.3 176.21771 45.6125 175.29584Q45.925 174.35834 46.534374 173.85834Q47.159374 173.35834 48.096874 173.35834Q48.784374 173.35834 49.3 173.63959Q49.83125 173.92084 50.175 174.45209Q50.51875 174.96771 50.70625 175.71771Q50.89375 176.46771 50.89375 177.74896Q50.89375 179.26459 50.58125 180.18646Q50.284374 181.10834 49.659374 181.62396Q49.05 182.12396 48.096874 182.12396Q46.8625 182.12396 46.14375 181.23334Q45.3 180.17084 45.3 177.74896ZM46.378124 177.74896Q46.378124 179.85834 46.878124 180.56146Q47.378124 181.26459 48.096874 181.26459Q48.83125 181.26459 49.315624 180.56146Q49.815624 179.85834 49.815624 177.74896Q49.815624 175.62396 49.315624 174.93646Q48.83125 174.23334 48.08125 174.23334Q47.3625 174.23334 46.925 174.84271Q46.378124 175.62396 46.378124 177.74896ZM52.8625 181.98334L52.8625 180.78021L54.065624 180.78021L54.065624 181.98334Q54.065624 182.63959 53.83125 183.04584Q53.596874 183.46771 53.096874 183.68646L52.8 183.23334Q53.128124 183.09271 53.284374 182.79584Q53.440624 182.51459 53.471874 181.98334L52.8625 181.98334ZM60.846874 180.96771L60.846874 181.98334L55.159374 181.98334Q55.159374 181.60834 55.284374 181.24896Q55.503124 180.67084 55.971874 180.10834Q56.45625 179.54584 57.3625 178.81146Q58.76875 177.65521 59.253124 176.98334Q59.753124 176.31146 59.753124 175.71771Q59.753124 175.09271 59.3 174.67084Q58.846874 174.23334 58.128124 174.23334Q57.3625 174.23334 56.909374 174.68646Q56.45625 175.13959 56.440624 175.95209L55.3625 175.84271Q55.471874 174.62396 56.190624 173.99896Q56.925 173.35834 58.159374 173.35834Q59.39375 173.35834 60.1125 174.04584Q60.83125 174.73334 60.83125 175.74896Q60.83125 176.26459 60.6125 176.76459Q60.409374 177.24896 59.909374 177.81146Q59.425 178.35834 58.3 179.31146Q57.346874 180.10834 57.065624 180.40521Q56.8 180.68646 56.628124 180.96771L60.846874 180.96771ZM62.3 179.73334L63.409374 179.63959Q63.534374 180.45209 63.971874 180.85834Q64.425 181.26459 65.06563 181.26459Q65.81563 181.26459 66.34688 180.68646Q66.87813 180.10834 66.87813 179.17084Q66.87813 178.26459 66.3625 177.74896Q65.8625 177.21771 65.03438 177.21771Q64.53438 177.21771 64.1125 177.45209Q63.70625 177.68646 63.471874 178.04584L62.4875 177.92084L63.315624 173.51459L67.59688 173.51459L67.59688 174.51459L64.15938 174.51459L63.70625 176.82709Q64.47188 176.28021 65.31563 176.28021Q66.44063 176.28021 67.20625 177.06146Q67.9875 177.84271 67.9875 179.07709Q67.9875 180.23334 67.31563 181.09271Q66.4875 182.12396 65.06563 182.12396Q63.89375 182.12396 63.14375 181.46771Q62.409374 180.81146 62.3 179.73334Z" fill-rule="nonzero"/><path fill="#000000" d="M45.3 132.53229Q45.3 131.00104 45.6125 130.07916Q45.925 129.14166 46.534374 128.64166Q47.159374 128.14166 48.096874 128.14166Q48.784374 128.14166 49.3 128.42291Q49.83125 128.70416 50.175 129.23541Q50.51875 129.75104 50.70625 130.50104Q50.89375 131.25104 50.89375 132.53229Q50.89375 134.04791 50.58125 134.96979Q50.284374 135.89166 49.659374 136.40729Q49.05 136.90729 48.096874 136.90729Q46.8625 136.90729 46.14375 136.01666Q45.3 134.95416 45.3 132.53229ZM46.378124 132.53229Q46.378124 134.64166 46.878124 135.34479Q47.378124 136.04791 48.096874 136.04791Q48.83125 136.04791 49.315624 135.34479Q49.815624 134.64166 49.815624 132.53229Q49.815624 130.40729 49.315624 129.71979Q48.83125 129.01666 48.08125 129.01666Q47.3625 129.01666 46.925 129.62604Q46.378124 130.40729 46.378124 132.53229ZM52.8625 136.76666L52.8625 135.56354L54.065624 135.56354L54.065624 136.76666Q54.065624 137.42291 53.83125 137.82916Q53.596874 138.25104 53.096874 138.46979L52.8 138.01666Q53.128124 137.87604 53.284374 137.57916Q53.440624 137.29791 53.471874 136.76666L52.8625 136.76666ZM55.3 134.51666L56.409374 134.42291Q56.534374 135.23541 56.971874 135.64166Q57.425 136.04791 58.065624 136.04791Q58.815624 136.04791 59.346874 135.46979Q59.878124 134.89166 59.878124 133.95416Q59.878124 133.04791 59.3625 132.53229Q58.8625 132.00104 58.034374 132.00104Q57.534374 132.00104 57.1125 132.23541Q56.70625 132.46979 56.471874 132.82916L55.4875 132.70416L56.315624 128.29791L60.596874 128.29791L60.596874 129.29791L57.159374 129.29791L56.70625 131.61041Q57.471874 131.06354 58.315624 131.06354Q59.440624 131.06354 60.20625 131.84479Q60.9875 132.62604 60.9875 133.86041Q60.9875 135.01666 60.315624 135.87604Q59.4875 136.90729 58.065624 136.90729Q56.89375 136.90729 56.14375 136.25104Q55.409374 135.59479 55.3 134.51666ZM62.3 132.53229Q62.3 131.00104 62.6125 130.07916Q62.925 129.14166 63.534374 128.64166Q64.15938 128.14166 65.09688 128.14166Q65.78438 128.14166 66.3 128.42291Q66.83125 128.70416 67.175 129.23541Q67.51875 129.75104 67.70625 130.50104Q67.89375 131.25104 67.89375 132.53229Q67.89375 134.04791 67.58125 134.96979Q67.28438 135.89166 66.65938 136.40729Q66.05 136.90729 65.09688 136.90729Q63.8625 136.90729 63.14375 136.01666Q62.3 134.95416 62.3 132.53229ZM63.378124 132.53229Q63.378124 134.64166 63.878124 135.34479Q64.37813 136.04791 65.09688 136.04791Q65.83125 136.04791 66.31563 135.34479Q66.81563 134.64166 66.81563 132.53229Q66.81563 130.40729 66.31563 129.71979Q65.83125 129.01666 65.08125 129.01666Q64.3625 129.01666 63.925 129.62604Q63.378124 130.40729 63.378124 132.53229Z" fill-rule="nonzero"/><path fill="#000000" d="M45.3 87.31563Q45.3 85.78438 45.6125 84.8625Q45.925 83.925 46.534374 83.425Q47.159374 82.925 48.096874 82.925Q48.784374 82.925 49.3 83.20625Q49.83125 83.4875 50.175 84.01875Q50.51875 84.53438 50.70625 85.28438Q50.89375 86.03438 50.89375 87.31563Q50.89375 88.83125 50.58125 89.75313Q50.284374 90.675 49.659374 91.19063Q49.05 91.69063 48.096874 91.69063Q46.8625 91.69063 46.14375 90.8Q45.3 89.7375 45.3 87.31563ZM46.378124 87.31563Q46.378124 89.425 46.878124 90.12813Q47.378124 90.83125 48.096874 90.83125Q48.83125 90.83125 49.315624 90.12813Q49.815624 89.425 49.815624 87.31563Q49.815624 85.19063 49.315624 84.50313Q48.83125 83.8 48.08125 83.8Q47.3625 83.8 46.925 84.40938Q46.378124 85.19063 46.378124 87.31563ZM52.8625 91.55L52.8625 90.34688L54.065624 90.34688L54.065624 91.55Q54.065624 92.20625 53.83125 92.6125Q53.596874 93.03438 53.096874 93.25313L52.8 92.8Q53.128124 92.65938 53.284374 92.3625Q53.440624 92.08125 53.471874 91.55L52.8625 91.55ZM55.3625 84.08125L55.3625 83.06563L60.925 83.06563L60.925 83.89375Q60.1125 84.76875 59.3 86.22188Q58.503124 87.65938 58.065624 89.19063Q57.7375 90.26875 57.659374 91.55L56.565624 91.55Q56.58125 90.53438 56.95625 89.09688Q57.346874 87.65938 58.05 86.33125Q58.76875 85.00313 59.58125 84.08125L55.3625 84.08125ZM62.3 89.3L63.409374 89.20625Q63.534374 90.01875 63.971874 90.425Q64.425 90.83125 65.06563 90.83125Q65.81563 90.83125 66.34688 90.25313Q66.87813 89.675 66.87813 88.7375Q66.87813 87.83125 66.3625 87.31563Q65.8625 86.78438 65.03438 86.78438Q64.53438 86.78438 64.1125 87.01875Q63.70625 87.25313 63.471874 87.6125L62.4875 87.4875L63.315624 83.08125L67.59688 83.08125L67.59688 84.08125L64.15938 84.08125L63.70625 86.39375Q64.47188 85.84688 65.31563 85.84688Q66.44063 85.84688 67.20625 86.62813Q67.9875 87.40938 67.9875 88.64375Q67.9875 89.8 67.31563 90.65938Q66.4875 91.69063 65.06563 91.69063Q63.89375 91.69063 63.14375 91.03438Q62.409374 90.37813 62.3 89.3Z" fill-rule="nonzero"/><path fill="#000000" d="M49.26875 46.333332L48.221874 46.333332L48.221874 39.614582Q47.83125 39.973957 47.20625 40.348957Q46.596874 40.708332 46.1125 40.880207L46.1125 39.864582Q46.9875 39.442707 47.64375 38.864582Q48.315624 38.270832 48.596874 37.708332L49.26875 37.708332L49.26875 46.333332ZM52.8625 46.333332L52.8625 45.130207L54.065624 45.130207L54.065624 46.333332Q54.065624 46.989582 53.83125 47.395832Q53.596874 47.817707 53.096874 48.036457L52.8 47.583332Q53.128124 47.442707 53.284374 47.145832Q53.440624 46.864582 53.471874 46.333332L52.8625 46.333332ZM55.3 42.098957Q55.3 40.567707 55.6125 39.645832Q55.925 38.708332 56.534374 38.208332Q57.159374 37.708332 58.096874 37.708332Q58.784374 37.708332 59.3 37.989582Q59.83125 38.270832 60.175 38.802082Q60.51875 39.317707 60.70625 40.067707Q60.89375 40.817707 60.89375 42.098957Q60.89375 43.614582 60.58125 44.536457Q60.284374 45.458332 59.659374 45.973957Q59.05 46.473957 58.096874 46.473957Q56.8625 46.473957 56.14375 45.583332Q55.3 44.520832 55.3 42.098957ZM56.378124 42.098957Q56.378124 44.208332 56.878124 44.911457Q57.378124 45.614582 58.096874 45.614582Q58.83125 45.614582 59.315624 44.911457Q59.815624 44.208332 59.815624 42.098957Q59.815624 39.973957 59.315624 39.286457Q58.83125 38.583332 58.08125 38.583332Q57.3625 38.583332 56.925 39.192707Q56.378124 39.973957 56.378124 42.098957ZM62.3 42.098957Q62.3 40.567707 62.6125 39.645832Q62.925 38.708332 63.534374 38.208332Q64.15938 37.708332 65.09688 37.708332Q65.78438 37.708332 66.3 37.989582Q66.83125 38.270832 67.175 38.802082Q67.51875 39.317707 67.70625 40.067707Q67.89375 40.817707 67.89375 42.098957Q67.89375 43.614582 67.58125 44.536457Q67.28438 45.458332 66.65938 45.973957Q66.05 46.473957 65.09688 46.473957Q63.8625 46.473957 63.14375 45.583332Q62.3 44.520832 62.3 42.098957ZM63.378124 42.098957Q63.378124 44.208332 63.878124 44.911457Q64.37813 45.614582 65.09688 45.614582Q65.83125 45.614582 66.31563 44.911457Q66.81563 44.208332 66.81563 42.098957Q66.81563 39.973957 66.31563 39.286457Q65.83125 38.583332 65.08125 38.583332Q64.3625 38.583332 63.925 39.192707Q63.378124 39.973957 63.378124 42.098957Z" fill-rule="nonzero"/><path fill="#000000" d="M91.44286 240.2L91.44286 231.60625L93.16161 231.60625L95.19286 237.68437Q95.47411 238.54375 95.59911 238.96562Q95.73974 238.49687 96.05224 237.59062L98.11474 231.60625L99.64599 231.60625L99.64599 240.2L98.55224 240.2L98.55224 233.0125L96.05224 240.2L95.02099 240.2L92.53661 232.8875L92.53661 240.2L91.44286 240.2ZM99.95849 237.09062Q99.95849 235.35625 100.91161 234.52812Q101.70849 233.84062 102.86474 233.84062Q104.14599 233.84062 104.95849 234.68437Q105.78661 235.5125 105.78661 236.99687Q105.78661 238.2 105.42724 238.8875Q105.06786 239.575 104.36474 239.96562Q103.67724 240.34062 102.86474 240.34062Q101.56786 240.34062 100.75536 239.5125Q99.95849 238.66875 99.95849 237.09062ZM101.03661 237.09062Q101.03661 238.27812 101.55224 238.87187Q102.08349 239.46562 102.86474 239.46562Q103.66161 239.46562 104.17724 238.87187Q104.69286 238.27812 104.69286 237.05937Q104.69286 235.90312 104.16161 235.30937Q103.64599 234.71562 102.86474 234.71562Q102.08349 234.71562 101.55224 235.30937Q101.03661 235.8875 101.03661 237.09062ZM108.31786 240.2L107.33349 240.2L107.33349 231.60625L108.39599 231.60625L108.39599 234.66875Q109.06786 233.84062 110.09911 233.84062Q110.67724 233.84062 111.17724 234.075Q111.69286 234.29375 112.02099 234.71562Q112.36474 235.1375 112.55224 235.73125Q112.73974 236.325 112.73974 236.99687Q112.73974 238.59062 111.94286 239.46562Q111.14599 240.34062 110.05224 240.34062Q108.94286 240.34062 108.31786 239.41875L108.31786 240.2ZM108.30224 237.04375Q108.30224 238.15312 108.61474 238.65312Q109.11474 239.46562 109.95849 239.46562Q110.64599 239.46562 111.14599 238.87187Q111.66161 238.27812 111.66161 237.075Q111.66161 235.85625 111.17724 235.27812Q110.69286 234.7 110.00536 234.7Q109.31786 234.7 108.80224 235.30937Q108.30224 235.90312 108.30224 237.04375ZM114.34911 232.825L114.34911 231.60625L115.41161 231.60625L115.41161 232.825L114.34911 232.825ZM114.34911 240.2L114.34911 233.98125L115.41161 233.98125L115.41161 240.2L114.34911 240.2ZM117.31786 240.2L117.31786 231.60625L118.38036 231.60625L118.38036 240.2L117.31786 240.2ZM124.59911 238.2L125.69286 238.325Q125.44286 239.27812 124.73974 239.80937Q124.03661 240.34062 122.95849 240.34062Q121.59911 240.34062 120.78661 239.49687Q119.98974 238.65312 119.98974 237.1375Q119.98974 235.575 120.80224 234.71562Q121.61474 233.84062 122.89599 233.84062Q124.14599 233.84062 124.92724 234.68437Q125.72411 235.52812 125.72411 237.075Q125.72411 237.16875 125.72411 237.35625L121.08349 237.35625Q121.14599 238.3875 121.66161 238.93437Q122.17724 239.46562 122.95849 239.46562Q123.53661 239.46562 123.94286 239.16875Q124.36474 238.85625 124.59911 238.2ZM121.14599 236.49687L124.61474 236.49687Q124.55224 235.7 124.22411 235.30937Q123.70849 234.7 122.91161 234.7Q122.17724 234.7 121.67724 235.18437Q121.19286 235.66875 121.14599 236.49687ZM127.47411 240.2L127.47411 231.60625L128.63037 231.60625L133.146 238.35625L133.146 231.60625L134.23975 231.60625L134.23975 240.2L133.06787 240.2L128.55225 233.45L128.55225 240.2L127.47411 240.2ZM140.59912 238.2L141.69287 238.325Q141.44287 239.27812 140.73975 239.80937Q140.03662 240.34062 138.9585 240.34062Q137.59912 240.34062 136.78662 239.49687Q135.98975 238.65312 135.98975 237.1375Q135.98975 235.575 136.80225 234.71562Q137.61475 233.84062 138.896 233.84062Q140.146 233.84062 140.92725 234.68437Q141.72412 235.52812 141.72412 237.075Q141.72412 237.16875 141.72412 237.35625L137.0835 237.35625Q137.146 238.3875 137.66162 238.93437Q138.17725 239.46562 138.9585 239.46562Q139.53662 239.46562 139.94287 239.16875Q140.36475 238.85625 140.59912 238.2ZM137.146 236.49687L140.61475 236.49687Q140.55225 235.7 140.22412 235.30937Q139.7085 234.7 138.91162 234.7Q138.17725 234.7 137.67725 235.18437Q137.19287 235.66875 137.146 236.49687ZM145.646 239.2625L145.80225 240.18437Q145.34912 240.27812 145.00537 240.27812Q144.42725 240.27812 144.11475 240.10625Q143.80225 239.91875 143.66162 239.62187Q143.53662 239.325 143.53662 238.37187L143.53662 234.79375L142.771 234.79375L142.771 233.98125L143.53662 233.98125L143.53662 232.43437L144.5835 231.80937L144.5835 233.98125L145.646 233.98125L145.646 234.79375L144.5835 234.79375L144.5835 238.43437Q144.5835 238.8875 144.63037 239.0125Q144.69287 239.1375 144.81787 239.21562Q144.94287 239.29375 145.17725 239.29375Q145.36475 239.29375 145.646 239.2625ZM148.92725 240.2L145.59912 231.60625L146.8335 231.60625L149.06787 237.85625Q149.3335 238.60625 149.521 239.2625Q149.72412 238.55937 149.98975 237.85625L152.30225 231.60625L153.4585 231.60625L150.09912 240.2L148.92725 240.2ZM158.59912 239.18437L158.59912 240.2L152.91162 240.2Q152.91162 239.825 153.03662 239.46562Q153.25537 238.8875 153.72412 238.325Q154.2085 237.7625 155.11475 237.02812Q156.521 235.87187 157.00537 235.2Q157.50537 234.52812 157.50537 233.93437Q157.50537 233.30937 157.05225 232.8875Q156.59912 232.45 155.88037 232.45Q155.11475 232.45 154.66162 232.90312Q154.2085 233.35625 154.19287 234.16875L153.11475 234.05937Q153.22412 232.84062 153.94287 232.21562Q154.67725 231.575 155.91162 231.575Q157.146 231.575 157.86475 232.2625Q158.5835 232.95 158.5835 233.96562Q158.5835 234.48125 158.36475 234.98125Q158.16162 235.46562 157.66162 236.02812Q157.17725 236.575 156.05225 237.52812Q155.09912 238.325 154.81787 238.62187Q154.55225 238.90312 154.38037 239.18437L158.59912 239.18437Z" fill-rule="nonzero"/><path fill="#000000" d="M172.4375 240.2L172.4375 231.60625L176.25 231.60625Q177.40625 231.60625 178.0 231.84062Q178.59375 232.075 178.95312 232.66875Q179.3125 233.24687 179.3125 233.95Q179.3125 234.87187 178.71875 235.49687Q178.125 236.12187 176.89062 236.29375Q177.34375 236.5125 177.57812 236.71562Q178.07812 237.16875 178.51562 237.85625L180.01562 240.2L178.57812 240.2L177.45312 238.41875Q176.95312 237.6375 176.625 237.23125Q176.3125 236.825 176.04688 236.66875Q175.79688 236.49687 175.53125 236.41875Q175.34375 236.3875 174.90625 236.3875L173.57812 236.3875L173.57812 240.2L172.4375 240.2ZM173.57812 235.40312L176.03125 235.40312Q176.79688 235.40312 177.23438 235.24687Q177.6875 235.075 177.90625 234.73125Q178.14062 234.37187 178.14062 233.95Q178.14062 233.34062 177.6875 232.95Q177.25 232.55937 176.29688 232.55937L173.57812 232.55937L173.57812 235.40312ZM185.54688 238.2L186.64062 238.325Q186.39062 239.27812 185.6875 239.80937Q184.98438 240.34062 183.90625 240.34062Q182.54688 240.34062 181.73438 239.49687Q180.9375 238.65312 180.9375 237.1375Q180.9375 235.575 181.75 234.71562Q182.5625 233.84062 183.84375 233.84062Q185.09375 233.84062 185.875 234.68437Q186.67188 235.52812 186.67188 237.075Q186.67188 237.16875 186.67188 237.35625L182.03125 237.35625Q182.09375 238.3875 182.60938 238.93437Q183.125 239.46562 183.90625 239.46562Q184.48438 239.46562 184.89062 239.16875Q185.3125 238.85625 185.54688 238.2ZM182.09375 236.49687L185.5625 236.49687Q185.5 235.7 185.17188 235.30937Q184.65625 234.7 183.85938 234.7Q183.125 234.7 182.625 235.18437Q182.14062 235.66875 182.09375 236.49687ZM187.875 238.34062L188.90625 238.18437Q189.0 238.80937 189.39062 239.1375Q189.79688 239.46562 190.53125 239.46562Q191.25 239.46562 191.59375 239.18437Q191.95312 238.8875 191.95312 238.48125Q191.95312 238.12187 191.64062 237.91875Q191.42188 237.77812 190.5625 237.55937Q189.40625 237.2625 188.95312 237.05937Q188.51562 236.84062 188.28125 236.46562Q188.04688 236.09062 188.04688 235.62187Q188.04688 235.21562 188.23438 234.85625Q188.42188 234.49687 188.75 234.2625Q189.0 234.09062 189.42188 233.96562Q189.84375 233.84062 190.34375 233.84062Q191.0625 233.84062 191.60938 234.05937Q192.17188 234.2625 192.4375 234.62187Q192.70312 234.98125 192.79688 235.575L191.76562 235.71562Q191.70312 235.24687 191.35938 234.98125Q191.03125 234.7 190.40625 234.7Q189.6875 234.7 189.375 234.95Q189.0625 235.18437 189.0625 235.5125Q189.0625 235.71562 189.1875 235.87187Q189.32812 236.04375 189.59375 236.15312Q189.75 236.21562 190.53125 236.41875Q191.65625 236.73125 192.09375 236.91875Q192.53125 237.10625 192.78125 237.46562Q193.03125 237.825 193.03125 238.37187Q193.03125 238.90312 192.71875 239.37187Q192.42188 239.825 191.84375 240.09062Q191.26562 240.34062 190.53125 240.34062Q189.3125 240.34062 188.67188 239.84062Q188.04688 239.325 187.875 238.34062ZM195.42188 240.2L195.42188 231.60625L196.57812 231.60625L201.09375 238.35625L201.09375 231.60625L202.1875 231.60625L202.1875 240.2L201.01562 240.2L196.5 233.45L196.5 240.2L195.42188 240.2ZM208.54688 238.2L209.64062 238.325Q209.39062 239.27812 208.6875 239.80937Q207.98438 240.34062 206.90625 240.34062Q205.54688 240.34062 204.73438 239.49687Q203.9375 238.65312 203.9375 237.1375Q203.9375 235.575 204.75 234.71562Q205.5625 233.84062 206.84375 233.84062Q208.09375 233.84062 208.875 234.68437Q209.67188 235.52812 209.67188 237.075Q209.67188 237.16875 209.67188 237.35625L205.03125 237.35625Q205.09375 238.3875 205.60938 238.93437Q206.125 239.46562 206.90625 239.46562Q207.48438 239.46562 207.89062 239.16875Q208.3125 238.85625 208.54688 238.2ZM205.09375 236.49687L208.5625 236.49687Q208.5 235.7 208.17188 235.30937Q207.65625 234.7 206.85938 234.7Q206.125 234.7 205.625 235.18437Q205.14062 235.66875 205.09375 236.49687ZM213.59375 239.2625L213.75 240.18437Q213.29688 240.27812 212.95312 240.27812Q212.375 240.27812 212.0625 240.10625Q211.75 239.91875 211.60938 239.62187Q211.48438 239.325 211.48438 238.37187L211.48438 234.79375L210.71875 234.79375L210.71875 233.98125L211.48438 233.98125L211.48438 232.43437L212.53125 231.80937L212.53125 233.98125L213.59375 233.98125L213.59375 234.79375L212.53125 234.79375L212.53125 238.43437Q212.53125 238.8875 212.57812 239.0125Q212.64062 239.1375 212.76562 239.21562Q212.89062 239.29375 213.125 239.29375Q213.3125 239.29375 213.59375 239.2625ZM214.0 237.95L215.10938 237.85625Q215.23438 238.66875 215.67188 239.075Q216.125 239.48125 216.76562 239.48125Q217.51562 239.48125 218.04688 238.90312Q218.57812 238.325 218.57812 237.3875Q218.57812 236.48125 218.0625 235.96562Q217.5625 235.43437 216.73438 235.43437Q216.23438 235.43437 215.8125 235.66875Q215.40625 235.90312 215.17188 236.2625L214.1875 236.1375L215.01562 231.73125L219.29688 231.73125L219.29688 232.73125L215.85938 232.73125L215.40625 235.04375Q216.17188 234.49687 217.01562 234.49687Q218.14062 234.49687 218.90625 235.27812Q219.6875 236.05937 219.6875 237.29375Q219.6875 238.45 219.01562 239.30937Q218.1875 240.34062 216.76562 240.34062Q215.59375 240.34062 214.84375 239.68437Q214.10938 239.02812 214.0 237.95ZM221.0 235.96562Q221.0 234.43437 221.3125 233.5125Q221.625 232.575 222.23438 232.075Q222.85938 231.575 223.79688 231.575Q224.48438 231.575 225.0 231.85625Q225.53125 232.1375 225.875 232.66875Q226.21875 233.18437 226.40625 233.93437Q226.59375 234.68437 226.59375 235.96562Q226.59375 237.48125 226.28125 238.40312Q225.98438 239.325 225.35938 239.84062Q224.75 240.34062 223.79688 240.34062Q222.5625 240.34062 221.84375 239.45Q221.0 238.3875 221.0 235.96562ZM222.07812 235.96562Q222.07812 238.075 222.57812 238.77812Q223.07812 239.48125 223.79688 239.48125Q224.53125 239.48125 225.01562 238.77812Q225.51562 238.075 225.51562 235.96562Q225.51562 233.84062 225.01562 233.15312Q224.53125 232.45 223.78125 232.45Q223.0625 232.45 222.625 233.05937Q222.07812 233.84062 222.07812 235.96562Z" fill-rule="nonzero"/><path fill="#000000" d="M236.40088 240.2L236.40088 231.60625L242.604 231.60625L242.604 232.62187L237.5415 232.62187L237.5415 235.24687L242.2915 235.24687L242.2915 236.2625L237.5415 236.2625L237.5415 239.18437L242.80713 239.18437L242.80713 240.2L236.40088 240.2ZM244.49463 240.2L244.49463 234.79375L243.55713 234.79375L243.55713 233.98125L244.49463 233.98125L244.49463 233.30937Q244.49463 232.68437 244.604 232.3875Q244.76025 231.96562 245.13525 231.71562Q245.52588 231.46562 246.21338 231.46562Q246.6665 231.46562 247.19775 231.575L247.0415 232.48125Q246.71338 232.43437 246.4165 232.43437Q245.93213 232.43437 245.729 232.6375Q245.5415 232.84062 245.5415 233.40312L245.5415 233.98125L246.76025 233.98125L246.76025 234.79375L245.5415 234.79375L245.5415 240.2L244.49463 240.2ZM247.49463 240.2L247.49463 234.79375L246.55713 234.79375L246.55713 233.98125L247.49463 233.98125L247.49463 233.30937Q247.49463 232.68437 247.604 232.3875Q247.76025 231.96562 248.13525 231.71562Q248.52588 231.46562 249.21338 231.46562Q249.6665 231.46562 250.19775 231.575L250.0415 232.48125Q249.71338 232.43437 249.4165 232.43437Q248.93213 232.43437 248.729 232.6375Q248.5415 232.84062 248.5415 233.40312L248.5415 233.98125L249.76025 233.98125L249.76025 234.79375L248.5415 234.79375L248.5415 240.2L247.49463 240.2ZM250.24463 232.825L250.24463 231.60625L251.30713 231.60625L251.30713 232.825L250.24463 232.825ZM250.24463 240.2L250.24463 233.98125L251.30713 233.98125L251.30713 240.2L250.24463 240.2ZM257.30713 237.91875L258.33838 238.05937Q258.1665 239.12187 257.46338 239.73125Q256.76025 240.34062 255.74463 240.34062Q254.46338 240.34062 253.68213 239.5125Q252.9165 238.66875 252.9165 237.10625Q252.9165 236.10625 253.24463 235.35625Q253.58838 234.59062 254.26025 234.21562Q254.94775 233.84062 255.76025 233.84062Q256.76025 233.84062 257.40088 234.35625Q258.05713 234.85625 258.24463 235.80937L257.21338 235.96562Q257.07275 235.34062 256.69775 235.02812Q256.32275 234.7 255.7915 234.7Q254.99463 234.7 254.49463 235.27812Q253.99463 235.84062 253.99463 237.075Q253.99463 238.34062 254.479 238.90312Q254.96338 239.46562 255.729 239.46562Q256.354 239.46562 256.76025 239.09062Q257.18213 238.71562 257.30713 237.91875ZM259.24463 232.825L259.24463 231.60625L260.30713 231.60625L260.30713 232.825L259.24463 232.825ZM259.24463 240.2L259.24463 233.98125L260.30713 233.98125L260.30713 240.2L259.24463 240.2ZM266.49463 238.2L267.58838 238.325Q267.33838 239.27812 266.63525 239.80937Q265.93213 240.34062 264.854 240.34062Q263.49463 240.34062 262.68213 239.49687Q261.88525 238.65312 261.88525 237.1375Q261.88525 235.575 262.69775 234.71562Q263.51025 233.84062 264.7915 233.84062Q266.0415 233.84062 266.82275 234.68437Q267.61963 235.52812 267.61963 237.075Q267.61963 237.16875 267.61963 237.35625L262.979 237.35625Q263.0415 238.3875 263.55713 238.93437Q264.07275 239.46562 264.854 239.46562Q265.43213 239.46562 265.83838 239.16875Q266.26025 238.85625 266.49463 238.2ZM263.0415 236.49687L266.51025 236.49687Q266.44775 235.7 266.11963 235.30937Q265.604 234.7 264.80713 234.7Q264.07275 234.7 263.57275 235.18437Q263.08838 235.66875 263.0415 236.49687ZM269.24463 240.2L269.24463 233.98125L270.18213 233.98125L270.18213 234.85625Q270.86963 233.84062 272.1665 233.84062Q272.729 233.84062 273.19775 234.04375Q273.68213 234.24687 273.9165 234.575Q274.15088 234.90312 274.24463 235.34062Q274.2915 235.6375 274.2915 236.37187L274.2915 240.2L273.24463 240.2L273.24463 236.41875Q273.24463 235.7625 273.11963 235.45Q272.99463 235.1375 272.68213 234.95Q272.36963 234.74687 271.94775 234.74687Q271.27588 234.74687 270.77588 235.18437Q270.2915 235.60625 270.2915 236.79375L270.2915 240.2L269.24463 240.2ZM278.5415 239.2625L278.69775 240.18437Q278.24463 240.27812 277.90088 240.27812Q277.32275 240.27812 277.01025 240.10625Q276.69775 239.91875 276.55713 239.62187Q276.43213 239.325 276.43213 238.37187L276.43213 234.79375L275.6665 234.79375L275.6665 233.98125L276.43213 233.98125L276.43213 232.43437L277.479 231.80937L277.479 233.98125L278.5415 233.98125L278.5415 234.79375L277.479 234.79375L277.479 238.43437Q277.479 238.8875 277.52588 239.0125Q277.58838 239.1375 277.71338 239.21562Q277.83838 239.29375 278.07275 239.29375Q278.26025 239.29375 278.5415 239.2625ZM279.36963 240.2L279.36963 231.60625L280.52588 231.60625L285.0415 238.35625L285.0415 231.60625L286.13525 231.60625L286.13525 240.2L284.96338 240.2L280.44775 233.45L280.44775 240.2L279.36963 240.2ZM292.49463 238.2L293.58838 238.325Q293.33838 239.27812 292.63525 239.80937Q291.93213 240.34062 290.854 240.34062Q289.49463 240.34062 288.68213 239.49687Q287.88525 238.65312 287.88525 237.1375Q287.88525 235.575 288.69775 234.71562Q289.51025 233.84062 290.7915 233.84062Q292.0415 233.84062 292.82275 234.68437Q293.61963 235.52812 293.61963 237.075Q293.61963 237.16875 293.61963 237.35625L288.979 237.35625Q289.0415 238.3875 289.55713 238.93437Q290.07275 239.46562 290.854 239.46562Q291.43213 239.46562 291.83838 239.16875Q292.26025 238.85625 292.49463 238.2ZM289.0415 236.49687L292.51025 236.49687Q292.44775 235.7 292.11963 235.30937Q291.604 234.7 290.80713 234.7Q290.07275 234.7 289.57275 235.18437Q289.08838 235.66875 289.0415 236.49687ZM297.5415 239.2625L297.69775 240.18437Q297.24463 240.27812 296.90088 240.27812Q296.32275 240.27812 296.01025 240.10625Q295.69775 239.91875 295.55713 239.62187Q295.43213 239.325 295.43213 238.37187L295.43213 234.79375L294.6665 234.79375L294.6665 233.98125L295.43213 233.98125L295.43213 232.43437L296.479 231.80937L296.479 233.98125L297.5415 233.98125L297.5415 234.79375L296.479 234.79375L296.479 238.43437Q296.479 238.8875 296.52588 239.0125Q296.58838 239.1375 296.71338 239.21562Q296.83838 239.29375 297.07275 239.29375Q297.26025 239.29375 297.5415 239.2625ZM298.32275 240.2L298.32275 231.60625L301.55713 231.60625Q302.5415 231.60625 303.13525 231.87187Q303.729 232.1375 304.05713 232.68437Q304.40088 233.21562 304.40088 233.80937Q304.40088 234.35625 304.104 234.84062Q303.80713 235.325 303.19775 235.62187Q303.979 235.85625 304.38525 236.41875Q304.80713 236.96562 304.80713 237.71562Q304.80713 238.30937 304.55713 238.84062Q304.30713 239.35625 303.93213 239.6375Q303.55713 239.91875 302.979 240.05937Q302.4165 240.2 301.604 240.2L298.32275 240.2ZM299.46338 235.21562L301.32275 235.21562Q302.07275 235.21562 302.40088 235.12187Q302.83838 234.99687 303.05713 234.7Q303.27588 234.3875 303.27588 233.93437Q303.27588 233.5125 303.07275 233.18437Q302.86963 232.85625 302.479 232.74687Q302.104 232.62187 301.18213 232.62187L299.46338 232.62187L299.46338 235.21562ZM299.46338 239.18437L301.604 239.18437Q302.15088 239.18437 302.36963 239.1375Q302.77588 239.075 303.02588 238.91875Q303.2915 238.74687 303.46338 238.43437Q303.63525 238.12187 303.63525 237.71562Q303.63525 237.23125 303.38525 236.87187Q303.15088 236.5125 302.71338 236.37187Q302.27588 236.23125 301.44775 236.23125L299.46338 236.23125L299.46338 239.18437ZM305.94775 235.96562Q305.94775 234.43437 306.26025 233.5125Q306.57275 232.575 307.18213 232.075Q307.80713 231.575 308.74463 231.575Q309.43213 231.575 309.94775 231.85625Q310.479 232.1375 310.82275 232.66875Q311.1665 233.18437 311.354 233.93437Q311.5415 234.68437 311.5415 235.96562Q311.5415 237.48125 311.229 238.40312Q310.93213 239.325 310.30713 239.84062Q309.69775 240.34062 308.74463 240.34062Q307.51025 240.34062 306.7915 239.45Q305.94775 238.3875 305.94775 235.96562ZM307.02588 235.96562Q307.02588 238.075 307.52588 238.77812Q308.02588 239.48125 308.74463 239.48125Q309.479 239.48125 309.96338 238.77812Q310.46338 238.075 310.46338 235.96562Q310.46338 233.84062 309.96338 233.15312Q309.479 232.45 308.729 232.45Q308.01025 232.45 307.57275 233.05937Q307.02588 233.84062 307.02588 235.96562Z" fill-rule="nonzero"/><path fill="#4285f4" d="M77.0 14.8C77.0 14.247715 77.447716 13.8 78.0 13.8L88.0 13.8C88.552284 13.8 89.0 14.247715 89.0 14.8L89.0 24.8C89.0 25.352285 88.552284 25.8 88.0 25.8L78.0 25.8C77.447716 25.8 77.0 25.352285 77.0 24.8Z" fill-rule="nonzero"/><path fill="#1a1a1a" d="M97.921875 23.8L97.921875 15.206249L99.078125 15.206249L103.59375 21.95625L103.59375 15.206249L104.6875 15.206249L104.6875 23.8L103.515625 23.8L99.0 17.05L99.0 23.8L97.921875 23.8ZM106.40625 20.690624Q106.40625 18.95625 107.359375 18.128124Q108.15625 17.440624 109.3125 17.440624Q110.59375 17.440624 111.40625 18.284374Q112.234375 19.1125 112.234375 20.596874Q112.234375 21.8 111.875 22.4875Q111.515625 23.175 110.8125 23.565624Q110.125 23.940624 109.3125 23.940624Q108.015625 23.940624 107.203125 23.1125Q106.40625 22.26875 106.40625 20.690624ZM107.484375 20.690624Q107.484375 21.878124 108.0 22.471874Q108.53125 23.065624 109.3125 23.065624Q110.109375 23.065624 110.625 22.471874Q111.140625 21.878124 111.140625 20.659374Q111.140625 19.503124 110.609375 18.909374Q110.09375 18.315624 109.3125 18.315624Q108.53125 18.315624 108.0 18.909374Q107.484375 19.4875 107.484375 20.690624ZM113.796875 23.8L113.796875 17.58125L114.734375 17.58125L114.734375 18.45625Q115.421875 17.440624 116.71875 17.440624Q117.28125 17.440624 117.75 17.64375Q118.234375 17.846874 118.46875 18.175Q118.703125 18.503124 118.796875 18.940624Q118.84375 19.2375 118.84375 19.971874L118.84375 23.8L117.796875 23.8L117.796875 20.01875Q117.796875 19.3625 117.671875 19.05Q117.546875 18.7375 117.234375 18.55Q116.921875 18.346874 116.5 18.346874Q115.828125 18.346874 115.328125 18.784374Q114.84375 19.20625 114.84375 20.39375L114.84375 23.8L113.796875 23.8ZM120.375 21.221874L120.375 20.159374L123.625 20.159374L123.625 21.221874L120.375 21.221874ZM124.546875 21.034374L125.609375 20.940624Q125.6875 21.596874 125.96875 22.003124Q126.25 22.409374 126.828125 22.675Q127.421875 22.925 128.15625 22.925Q128.79688 22.925 129.29688 22.7375Q129.79688 22.534374 130.03125 22.20625Q130.28125 21.8625 130.28125 21.471874Q130.28125 21.065624 130.04688 20.76875Q129.8125 20.45625 129.28125 20.253124Q128.92188 20.1125 127.734375 19.83125Q126.5625 19.55 126.09375 19.3Q125.46875 18.971874 125.171875 18.503124Q124.875 18.01875 124.875 17.425Q124.875 16.784374 125.234375 16.221874Q125.609375 15.643749 126.3125 15.362499Q127.03125 15.065624 127.890625 15.065624Q128.84375 15.065624 129.57812 15.378124Q130.3125 15.674999 130.70312 16.284374Q131.09375 16.878124 131.125 17.628124L130.03125 17.70625Q129.9375 16.89375 129.42188 16.4875Q128.92188 16.065624 127.9375 16.065624Q126.90625 16.065624 126.4375 16.440624Q125.96875 16.815624 125.96875 17.346874Q125.96875 17.815624 126.296875 18.1125Q126.625 18.409374 128.0 18.721874Q129.39062 19.034374 129.90625 19.26875Q130.65625 19.628124 131.01562 20.159374Q131.375 20.675 131.375 21.378124Q131.375 22.065624 130.98438 22.675Q130.59375 23.26875 129.85938 23.6125Q129.125 23.940624 128.20312 23.940624Q127.03125 23.940624 126.234375 23.6125Q125.453125 23.26875 125.0 22.58125Q124.5625 21.89375 124.546875 21.034374ZM132.79688 16.425L132.79688 15.206249L133.85938 15.206249L133.85938 16.425L132.79688 16.425ZM132.79688 23.8L132.79688 17.58125L133.85938 17.58125L133.85938 23.8L132.79688 23.8ZM139.85938 23.034374Q139.26562 23.534374 138.71875 23.7375Q138.1875 23.940624 137.5625 23.940624Q136.53125 23.940624 135.98438 23.440624Q135.4375 22.940624 135.4375 22.159374Q135.4375 21.70625 135.64062 21.33125Q135.84375 20.940624 136.1875 20.721874Q136.53125 20.4875 136.95312 20.378124Q137.25 20.284374 137.89062 20.20625Q139.15625 20.065624 139.76562 19.846874Q139.76562 19.628124 139.76562 19.58125Q139.76562 18.925 139.46875 18.659374Q139.0625 18.315624 138.26562 18.315624Q137.53125 18.315624 137.17188 18.58125Q136.8125 18.83125 136.64062 19.4875L135.60938 19.346874Q135.75 18.690624 136.07812 18.284374Q136.40625 17.878124 137.01562 17.659374Q137.625 17.440624 138.42188 17.440624Q139.21875 17.440624 139.71875 17.628124Q140.21875 17.815624 140.45312 18.096874Q140.6875 18.378124 140.78125 18.815624Q140.82812 19.08125 140.82812 19.784374L140.82812 21.190624Q140.82812 22.659374 140.89062 23.05Q140.96875 23.440624 141.17188 23.8L140.0625 23.8Q139.90625 23.471874 139.85938 23.034374ZM139.76562 20.675Q139.1875 20.909374 138.04688 21.08125Q137.39062 21.175 137.125 21.3Q136.85938 21.409374 136.70312 21.628124Q136.5625 21.846874 136.5625 22.128124Q136.5625 22.55 136.875 22.83125Q137.20312 23.1125 137.8125 23.1125Q138.42188 23.1125 138.89062 22.846874Q139.375 22.58125 139.59375 22.1125Q139.76562 21.753124 139.76562 21.065624L139.76562 20.675ZM142.79688 23.8L142.79688 17.58125L143.73438 17.58125L143.73438 18.45625Q144.03125 17.9875 144.51562 17.721874Q145.0 17.440624 145.625 17.440624Q146.3125 17.440624 146.75 17.721874Q147.20312 18.003124 147.375 18.51875Q148.125 17.440624 149.29688 17.440624Q150.23438 17.440624 150.71875 17.95625Q151.21875 18.45625 151.21875 19.534374L151.21875 23.8L150.17188 23.8L150.17188 19.878124Q150.17188 19.253124 150.0625 18.971874Q149.96875 18.690624 149.70312 18.51875Q149.4375 18.346874 149.0625 18.346874Q148.40625 18.346874 147.96875 18.784374Q147.54688 19.221874 147.54688 20.190624L147.54688 23.8L146.48438 23.8L146.48438 19.753124Q146.48438 19.05 146.21875 18.70625Q145.96875 18.346874 145.39062 18.346874Q144.9375 18.346874 144.5625 18.58125Q144.1875 18.815624 144.01562 19.26875Q143.84375 19.721874 143.84375 20.565624L143.84375 23.8L142.79688 23.8ZM158.04688 21.8L159.14062 21.925Q158.89062 22.878124 158.1875 23.409374Q157.48438 23.940624 156.40625 23.940624Q155.04688 23.940624 154.23438 23.096874Q153.4375 22.253124 153.4375 20.7375Q153.4375 19.175 154.25 18.315624Q155.0625 17.440624 156.34375 17.440624Q157.59375 17.440624 158.375 18.284374Q159.17188 19.128124 159.17188 20.675Q159.17188 20.76875 159.17188 20.95625L154.53125 20.95625Q154.59375 21.9875 155.10938 22.534374Q155.625 23.065624 156.40625 23.065624Q156.98438 23.065624 157.39062 22.76875Q157.8125 22.45625 158.04688 21.8ZM154.59375 20.096874L158.0625 20.096874Q158.0 19.3 157.67188 18.909374Q157.15625 18.3 156.35938 18.3Q155.625 18.3 155.125 18.784374Q154.64062 19.26875 154.59375 20.096874ZM160.375 21.940624L161.40625 21.784374Q161.5 22.409374 161.89062 22.7375Q162.29688 23.065624 163.03125 23.065624Q163.75 23.065624 164.09375 22.784374Q164.45312 22.4875 164.45312 22.08125Q164.45312 21.721874 164.14062 21.51875Q163.92188 21.378124 163.0625 21.159374Q161.90625 20.8625 161.45312 20.659374Q161.01562 20.440624 160.78125 20.065624Q160.54688 19.690624 160.54688 19.221874Q160.54688 18.815624 160.73438 18.45625Q160.92188 18.096874 161.25 17.8625Q161.5 17.690624 161.92188 17.565624Q162.34375 17.440624 162.84375 17.440624Q163.5625 17.440624 164.10938 17.659374Q164.67188 17.8625 164.9375 18.221874Q165.20312 18.58125 165.29688 19.175L164.26562 19.315624Q164.20312 18.846874 163.85938 18.58125Q163.53125 18.3 162.90625 18.3Q162.1875 18.3 161.875 18.55Q161.5625 18.784374 161.5625 19.1125Q161.5625 19.315624 161.6875 19.471874Q161.82812 19.64375 162.09375 19.753124Q162.25 19.815624 163.03125 20.01875Q164.15625 20.33125 164.59375 20.51875Q165.03125 20.70625 165.28125 21.065624Q165.53125 21.425 165.53125 21.971874Q165.53125 22.503124 165.21875 22.971874Q164.92188 23.425 164.34375 23.690624Q163.76562 23.940624 163.03125 23.940624Q161.8125 23.940624 161.17188 23.440624Q160.54688 22.925 160.375 21.940624ZM172.04688 21.8L173.14062 21.925Q172.89062 22.878124 172.1875 23.409374Q171.48438 23.940624 170.40625 23.940624Q169.04688 23.940624 168.23438 23.096874Q167.4375 22.253124 167.4375 20.7375Q167.4375 19.175 168.25 18.315624Q169.0625 17.440624 170.34375 17.440624Q171.59375 17.440624 172.375 18.284374Q173.17188 19.128124 173.17188 20.675Q173.17188 20.76875 173.17188 20.95625L168.53125 20.95625Q168.59375 21.9875 169.10938 22.534374Q169.625 23.065624 170.40625 23.065624Q170.98438 23.065624 171.39062 22.76875Q171.8125 22.45625 172.04688 21.8ZM168.59375 20.096874L172.0625 20.096874Q172.0 19.3 171.67188 18.909374Q171.15625 18.3 170.35938 18.3Q169.625 18.3 169.125 18.784374Q168.64062 19.26875 168.59375 20.096874Z" fill-rule="nonzero"/><path fill="#ea4335" d="M190.0 14.8C190.0 14.247715 190.44771 13.8 191.0 13.8L201.0 13.8C201.55229 13.8 202.0 14.247715 202.0 14.8L202.0 24.8C202.0 25.352285 201.55229 25.8 201.0 25.8L191.0 25.8C190.44771 25.8 190.0 25.352285 190.0 24.8Z" fill-rule="nonzero"/><path fill="#1a1a1a" d="M210.54688 21.034374L211.60938 20.940624Q211.6875 21.596874 211.96875 22.003124Q212.25 22.409374 212.82812 22.675Q213.42188 22.925 214.15625 22.925Q214.79688 22.925 215.29688 22.7375Q215.79688 22.534374 216.03125 22.20625Q216.28125 21.8625 216.28125 21.471874Q216.28125 21.065624 216.04688 20.76875Q215.8125 20.45625 215.28125 20.253124Q214.92188 20.1125 213.73438 19.83125Q212.5625 19.55 212.09375 19.3Q211.46875 18.971874 211.17188 18.503124Q210.875 18.01875 210.875 17.425Q210.875 16.784374 211.23438 16.221874Q211.60938 15.643749 212.3125 15.362499Q213.03125 15.065624 213.89062 15.065624Q214.84375 15.065624 215.57812 15.378124Q216.3125 15.674999 216.70312 16.284374Q217.09375 16.878124 217.125 17.628124L216.03125 17.70625Q215.9375 16.89375 215.42188 16.4875Q214.92188 16.065624 213.9375 16.065624Q212.90625 16.065624 212.4375 16.440624Q211.96875 16.815624 211.96875 17.346874Q211.96875 17.815624 212.29688 18.1125Q212.625 18.409374 214.0 18.721874Q215.39062 19.034374 215.90625 19.26875Q216.65625 19.628124 217.01562 20.159374Q217.375 20.675 217.375 21.378124Q217.375 22.065624 216.98438 22.675Q216.59375 23.26875 215.85938 23.6125Q215.125 23.940624 214.20312 23.940624Q213.03125 23.940624 212.23438 23.6125Q211.45312 23.26875 211.0 22.58125Q210.5625 21.89375 210.54688 21.034374ZM218.79688 16.425L218.79688 15.206249L219.85938 15.206249L219.85938 16.425L218.79688 16.425ZM218.79688 23.8L218.79688 17.58125L219.85938 17.58125L219.85938 23.8L218.79688 23.8ZM225.85938 23.034374Q225.26562 23.534374 224.71875 23.7375Q224.1875 23.940624 223.5625 23.940624Q222.53125 23.940624 221.98438 23.440624Q221.4375 22.940624 221.4375 22.159374Q221.4375 21.70625 221.64062 21.33125Q221.84375 20.940624 222.1875 20.721874Q222.53125 20.4875 222.95312 20.378124Q223.25 20.284374 223.89062 20.20625Q225.15625 20.065624 225.76562 19.846874Q225.76562 19.628124 225.76562 19.58125Q225.76562 18.925 225.46875 18.659374Q225.0625 18.315624 224.26562 18.315624Q223.53125 18.315624 223.17188 18.58125Q222.8125 18.83125 222.64062 19.4875L221.60938 19.346874Q221.75 18.690624 222.07812 18.284374Q222.40625 17.878124 223.01562 17.659374Q223.625 17.440624 224.42188 17.440624Q225.21875 17.440624 225.71875 17.628124Q226.21875 17.815624 226.45312 18.096874Q226.6875 18.378124 226.78125 18.815624Q226.82812 19.08125 226.82812 19.784374L226.82812 21.190624Q226.82812 22.659374 226.89062 23.05Q226.96875 23.440624 227.17188 23.8L226.0625 23.8Q225.90625 23.471874 225.85938 23.034374ZM225.76562 20.675Q225.1875 20.909374 224.04688 21.08125Q223.39062 21.175 223.125 21.3Q222.85938 21.409374 222.70312 21.628124Q222.5625 21.846874 222.5625 22.128124Q222.5625 22.55 222.875 22.83125Q223.20312 23.1125 223.8125 23.1125Q224.42188 23.1125 224.89062 22.846874Q225.375 22.58125 225.59375 22.1125Q225.76562 21.753124 225.76562 21.065624L225.76562 20.675ZM228.79688 23.8L228.79688 17.58125L229.73438 17.58125L229.73438 18.45625Q230.03125 17.9875 230.51562 17.721874Q231.0 17.440624 231.625 17.440624Q232.3125 17.440624 232.75 17.721874Q233.20312 18.003124 233.375 18.51875Q234.125 17.440624 235.29688 17.440624Q236.23438 17.440624 236.71875 17.95625Q237.21875 18.45625 237.21875 19.534374L237.21875 23.8L236.17188 23.8L236.17188 19.878124Q236.17188 19.253124 236.0625 18.971874Q235.96875 18.690624 235.70312 18.51875Q235.4375 18.346874 235.0625 18.346874Q234.40625 18.346874 233.96875 18.784374Q233.54688 19.221874 233.54688 20.190624L233.54688 23.8L232.48438 23.8L232.48438 19.753124Q232.48438 19.05 232.21875 18.70625Q231.96875 18.346874 231.39062 18.346874Q230.9375 18.346874 230.5625 18.58125Q230.1875 18.815624 230.01562 19.26875Q229.84375 19.721874 229.84375 20.565624L229.84375 23.8L228.79688 23.8ZM244.04688 21.8L245.14062 21.925Q244.89062 22.878124 244.1875 23.409374Q243.48438 23.940624 242.40625 23.940624Q241.04688 23.940624 240.23438 23.096874Q239.4375 22.253124 239.4375 20.7375Q239.4375 19.175 240.25 18.315624Q241.0625 17.440624 242.34375 17.440624Q243.59375 17.440624 244.375 18.284374Q245.17188 19.128124 245.17188 20.675Q245.17188 20.76875 245.17188 20.95625L240.53125 20.95625Q240.59375 21.9875 241.10938 22.534374Q241.625 23.065624 242.40625 23.065624Q242.98438 23.065624 243.39062 22.76875Q243.8125 22.45625 244.04688 21.8ZM240.59375 20.096874L244.0625 20.096874Q244.0 19.3 243.67188 18.909374Q243.15625 18.3 242.35938 18.3Q241.625 18.3 241.125 18.784374Q240.64062 19.26875 240.59375 20.096874ZM246.375 21.940624L247.40625 21.784374Q247.5 22.409374 247.89062 22.7375Q248.29688 23.065624 249.03125 23.065624Q249.75 23.065624 250.09375 22.784374Q250.45312 22.4875 250.45312 22.08125Q250.45312 21.721874 250.14062 21.51875Q249.92188 21.378124 249.0625 21.159374Q247.90625 20.8625 247.45312 20.659374Q247.01562 20.440624 246.78125 20.065624Q246.54688 19.690624 246.54688 19.221874Q246.54688 18.815624 246.73438 18.45625Q246.92188 18.096874 247.25 17.8625Q247.5 17.690624 247.92188 17.565624Q248.34375 17.440624 248.84375 17.440624Q249.5625 17.440624 250.10938 17.659374Q250.67188 17.8625 250.9375 18.221874Q251.20312 18.58125 251.29688 19.175L250.26562 19.315624Q250.20312 18.846874 249.85938 18.58125Q249.53125 18.3 248.90625 18.3Q248.1875 18.3 247.875 18.55Q247.5625 18.784374 247.5625 19.1125Q247.5625 19.315624 247.6875 19.471874Q247.82812 19.64375 248.09375 19.753124Q248.25 19.815624 249.03125 20.01875Q250.15625 20.33125 250.59375 20.51875Q251.03125 20.70625 251.28125 21.065624Q251.53125 21.425 251.53125 21.971874Q251.53125 22.503124 251.21875 22.971874Q250.92188 23.425 250.34375 23.690624Q249.76562 23.940624 249.03125 23.940624Q247.8125 23.940624 247.17188 23.440624Q246.54688 22.925 246.375 21.940624ZM258.04688 21.8L259.14062 21.925Q258.89062 22.878124 258.1875 23.409374Q257.48438 23.940624 256.40625 23.940624Q255.04688 23.940624 254.23438 23.096874Q253.4375 22.253124 253.4375 20.7375Q253.4375 19.175 254.25 18.315624Q255.0625 17.440624 256.34375 17.440624Q257.59375 17.440624 258.375 18.284374Q259.17188 19.128124 259.17188 20.675Q259.17188 20.76875 259.17188 20.95625L254.53125 20.95625Q254.59375 21.9875 255.10938 22.534374Q255.625 23.065624 256.40625 23.065624Q256.98438 23.065624 257.39062 22.76875Q257.8125 22.45625 258.04688 21.8ZM254.59375 20.096874L258.0625 20.096874Q258.0 19.3 257.67188 18.909374Q257.15625 18.3 256.35938 18.3Q255.625 18.3 255.125 18.784374Q254.64062 19.26875 254.59375 20.096874Z" fill-rule="nonzero"/></svg>